<?xml version="1.0" encoding="UTF-8"?>
<svg version="1.1" xmlns="http://www.w3.org/2000/svg" width="818" height="818">
<path d="M0 0 C1.13752716 0.00182281 2.27505432 0.00364563 3.447052 0.00552368 C21.31568056 0.05359004 38.80137817 0.6831975 56.5 3.3125 C57.66257324 3.47878906 58.82514648 3.64507812 60.02294922 3.81640625 C98.08708432 9.39508258 135.10690505 20.06714166 170.05419922 36.18652344 C172.32088457 37.23004039 174.59733178 38.24737856 176.87890625 39.2578125 C208.29079226 53.35515998 237.1874251 73.23509301 263.5 95.3125 C263.99990952 95.72870102 264.49981903 96.14490204 265.01487732 96.57371521 C273.7517213 103.86032243 282.00953762 111.50414662 290.0246582 119.57641602 C291.82215805 121.38471608 293.63022316 123.18195977 295.43945312 124.97851562 C302.25419837 131.78553124 308.51646973 138.75664367 314.5 146.3125 C315.43448138 147.41458104 316.37586641 148.51089885 317.328125 149.59765625 C364.66536372 203.88278001 394.1452855 275.17769452 405.3125 345.8125 C405.50739014 347.03783447 405.70228027 348.26316895 405.90307617 349.52563477 C408.86368051 369.26343194 409.87919582 388.86716043 409.8125 408.8125 C409.80976578 410.51879074 409.80976578 410.51879074 409.80697632 412.259552 C409.75890996 430.12818056 409.1293025 447.61387817 406.5 465.3125 C406.33371094 466.47507324 406.16742187 467.63764648 405.99609375 468.83544922 C400.16248566 508.63902149 388.6887899 546.94686859 371.5 583.3125 C371.14873047 584.05806152 370.79746094 584.80362305 370.43554688 585.57177734 C368.22922859 590.20921274 365.89588607 594.77056065 363.5 599.3125 C363.07138672 600.13250488 362.64277344 600.95250977 362.20117188 601.79736328 C356.17108516 613.28513975 349.83194211 624.36065335 342.3371582 634.96777344 C341.80566162 635.74411133 341.27416504 636.52044922 340.7265625 637.3203125 C340.24783691 637.99723145 339.76911133 638.67415039 339.27587891 639.37158203 C338.29453443 641.27289528 338.29453443 641.27289528 338.97729492 643.17724609 C341.19354687 646.28504464 343.88783236 648.84240698 346.63671875 651.46875 C347.86565244 652.66754032 349.09415537 653.86677237 350.32226562 655.06640625 C352.25970014 656.94789399 354.20075461 658.82521532 356.1496582 660.69482422 C358.03141557 662.50428835 359.89737337 664.32887491 361.76171875 666.15625 C362.64593758 666.99234802 362.64593758 666.99234802 363.54801941 667.84533691 C365.16674805 669.44335938 365.16674805 669.44335938 367.5 672.3125 C367.05128059 676.06603968 365.58807996 677.41984949 362.6875 679.75 C360.34088823 681.70620202 358.41553545 683.41808069 356.5 685.8125 C354.08754578 688.82806778 351.3057385 691.12525245 348.375 693.625 C346.36602082 695.341158 346.36602082 695.341158 344.5 697.8125 C342.08754578 700.82806778 339.3057385 703.12525245 336.375 705.625 C334.36602082 707.341158 334.36602082 707.341158 332.5 709.8125 C330.08754578 712.82806778 327.3057385 715.12525245 324.375 717.625 C322.36602082 719.341158 322.36602082 719.341158 320.5 721.8125 C318.08754578 724.82806778 315.3057385 727.12525245 312.375 729.625 C310.36602082 731.341158 310.36602082 731.341158 308.5 733.8125 C306.08754578 736.82806778 303.3057385 739.12525245 300.375 741.625 C298.36602082 743.341158 298.36602082 743.341158 296.5 745.8125 C294.08754578 748.82806778 291.3057385 751.12525245 288.375 753.625 C286.36602082 755.341158 286.36602082 755.341158 284.5 757.8125 C282.09084072 760.8239491 279.31460647 763.1183529 276.38671875 765.61328125 C274.13240513 767.6435637 272.36839388 769.92868712 270.5 772.3125 C268 774.6875 268 774.6875 265.5 776.3125 C262.32368197 775.94001115 260.68960619 774.87287355 258.47558594 772.62866211 C257.91530701 772.06815659 257.35502808 771.50765106 256.777771 770.93016052 C256.18595032 770.32285599 255.59412964 769.71555145 254.984375 769.08984375 C254.36854553 768.46976944 253.75271606 767.84969513 253.1182251 767.21083069 C251.15499365 765.23082095 249.20245564 763.24063081 247.25 761.25 C245.91996252 759.90491465 244.58924121 758.56050512 243.2578125 757.21679688 C239.99722463 753.92315094 236.74618812 750.62033661 233.5 747.3125 C228.21074536 750.18575771 223.07755439 753.1628914 218.0625 756.5 C210.47513464 761.46117184 202.59570631 765.8335037 194.62841797 770.14990234 C192.74146131 771.18060751 190.87061259 772.2340146 189.00390625 773.30078125 C148.69960202 795.80595922 101.90266782 808.73105979 56.5 815.3125 C55.39221191 815.47766113 54.28442383 815.64282227 53.14306641 815.81298828 C17.76672374 820.85780812 -20.17163847 820.56087188 -55.5 815.3125 C-56.66257324 815.14621094 -57.82514648 814.97992187 -59.02294922 814.80859375 C-97.08708432 809.22991742 -134.10690505 798.55785834 -169.05419922 782.43847656 C-171.32088457 781.39495961 -173.59733178 780.37762144 -175.87890625 779.3671875 C-207.29079226 765.26984002 -236.1874251 745.38990699 -262.5 723.3125 C-262.99990952 722.89629898 -263.49981903 722.48009796 -264.01487732 722.05128479 C-272.7517213 714.76467757 -281.00953762 707.12085338 -289.0246582 699.04858398 C-290.82215805 697.24028392 -292.63022316 695.44304023 -294.43945312 693.64648438 C-301.25419837 686.83946876 -307.51646973 679.86835633 -313.5 672.3125 C-314.43448138 671.21041896 -315.37586641 670.11410115 -316.328125 669.02734375 C-365.42937247 612.71930029 -394.86921916 538.64991489 -405.5 465.3125 C-405.66516113 464.20471191 -405.83032227 463.09692383 -406.00048828 461.95556641 C-411.04411558 426.58758632 -410.76576871 388.6316804 -405.5 353.3125 C-405.32839355 352.12865723 -405.15678711 350.94481445 -404.97998047 349.72509766 C-399.10105484 310.19076759 -387.77372281 271.39052866 -370.5 235.3125 C-369.80487305 233.83813477 -369.80487305 233.83813477 -369.09570312 232.33398438 C-360.01766672 213.16924086 -349.42251592 194.85093204 -337.5 177.3125 C-341.18883014 172.76143013 -345.15923059 168.62192376 -349.37109375 164.5546875 C-349.90054596 164.04021057 -350.42999817 163.52573364 -350.97549438 162.9956665 C-353.19267942 160.8415453 -355.41022159 158.68856097 -357.65112305 156.55908203 C-359.30078202 154.9879105 -360.93080704 153.39846706 -362.55859375 151.8046875 C-363.06990341 151.3274826 -363.58121307 150.85027771 -364.10801697 150.35861206 C-365.50561523 148.97216797 -365.50561523 148.97216797 -367.5 146.3125 C-367.25909635 141.95696432 -365.62555103 139.93496048 -362.61027527 136.90811157 C-361.77326584 136.05837769 -360.93625641 135.2086438 -360.07388306 134.3331604 C-359.14868866 133.41449188 -358.22349426 132.49582336 -357.27026367 131.54931641 C-356.29057206 130.56256568 -355.3117261 129.57497474 -354.33366394 128.58660889 C-351.67767538 125.90812163 -349.0091134 123.24250439 -346.33742309 120.5796895 C-344.1092381 118.35661277 -341.88727976 116.12736521 -339.66529733 113.89809167 C-334.42578037 108.64157583 -329.17605286 103.39541595 -323.91967773 98.15576172 C-318.49202421 92.74505069 -313.08098554 87.31812693 -307.67796534 81.88282645 C-303.04070165 77.21890734 -298.39383703 72.56471465 -293.73897916 67.91835535 C-290.95782263 65.14213725 -288.18039403 62.36243353 -285.41194725 59.57353592 C-282.8104706 56.95376431 -280.19722691 54.34634116 -277.57428169 51.74806976 C-276.1520672 50.33328529 -274.74221342 48.90610946 -273.33270264 47.47866821 C-272.48723373 46.64585327 -271.64176483 45.81303833 -270.77067566 44.95498657 C-270.03822726 44.22312449 -269.30577887 43.4912624 -268.55113506 42.73722267 C-266.5 41.3125 -266.5 41.3125 -264.33195591 41.50851917 C-262.22670174 42.43244097 -260.99779414 43.45289278 -259.38378906 45.08813477 C-258.51333954 45.95892418 -258.51333954 45.95892418 -257.62530518 46.8473053 C-257.01161072 47.47648361 -256.39791626 48.10566193 -255.765625 48.75390625 C-255.12759949 49.39617661 -254.48957397 50.03844696 -253.83221436 50.70018005 C-251.79765882 52.75151726 -249.77378621 54.81304273 -247.75 56.875 C-246.37178509 58.26826234 -244.99288675 59.66084898 -243.61328125 61.05273438 C-240.23420954 64.46486865 -236.86468136 67.88617707 -233.5 71.3125 C-230.25199125 70.09127973 -227.39051513 68.74217423 -224.48828125 66.84375 C-223.36546753 66.11816895 -223.36546753 66.11816895 -222.2199707 65.37792969 C-221.42550537 64.86133789 -220.63104004 64.34474609 -219.8125 63.8125 C-206.16615018 55.07567632 -192.04413099 47.33797968 -177.46679688 40.27148438 C-175.52747843 39.32589812 -173.59967401 38.35943735 -171.671875 37.390625 C-137.8503408 20.65220228 -100.39782896 10.46544728 -63.25 4.5625 C-62.00911621 4.36374268 -60.76823242 4.16498535 -59.48974609 3.96020508 C-39.68344258 0.9561675 -20.01923409 -0.06694292 0 0 Z " fill="#323742" transform="translate(408.5,-0.3125)"/>
<path d="M0 0 C3.35206147 1.45781068 5.54953161 3.29999559 8.12600255 5.87760556 C9.35645751 7.10131864 9.35645751 7.10131864 10.61177015 8.3497532 C11.95809735 9.70396144 11.95809735 9.70396144 13.33162308 11.08552742 C14.30113172 12.05355706 15.27107905 13.02114752 16.24142575 13.9883371 C18.92035295 16.66110925 21.59297415 19.34011176 24.26465601 22.02012363 C27.16709741 24.9294184 30.07532341 27.8329207 32.98283458 30.73714721 C38.08228523 35.83244438 43.17799559 40.93145852 48.27130508 46.03289413 C55.8449343 53.61857318 63.42426923 61.19853177 71.00480405 68.77730912 C83.75513014 81.52500476 96.50078806 94.27735823 109.24381256 107.03235245 C121.86508868 119.66545358 134.48842262 132.29649258 147.11452484 144.92477036 C148.29112082 146.10157255 148.29112082 146.10157255 149.49148641 147.30214853 C153.47488663 151.2862254 157.45832379 155.27026533 161.44177517 159.25429104 C189.67286642 187.48958561 217.89931568 215.72951653 246.12304688 243.97216797 C273.54583181 271.41331502 300.97071177 298.85236551 328.3984375 326.28857422 C329.24354704 327.13394681 330.08865658 327.97931941 330.9593755 328.85030935 C339.4461425 337.33971334 347.93295218 345.82907465 356.41979314 354.3184047 C373.70920695 371.61289125 390.99833583 388.90766263 408.28729248 406.2026062 C409.47972884 407.39545443 409.47972884 407.39545443 410.69625482 408.6124006 C463.80227595 461.73683 516.90165406 514.86789931 570 568 C568.57424848 572.27725455 565.40849072 573.63990898 561.75 575.9375 C560.99783203 576.41622559 560.24566406 576.89495117 559.47070312 577.38818359 C550.96387446 582.74401347 542.25285447 587.74056938 533.46923828 592.62597656 C531.93081596 593.4820415 530.39486909 594.34258953 528.86279297 595.20996094 C487.49159944 618.59852977 439.78059794 632.218819 393 639 C391.89221191 639.16516113 390.78442383 639.33032227 389.64306641 639.50048828 C354.26672374 644.54530812 316.32836153 644.24837188 281 639 C279.83742676 638.83371094 278.67485352 638.66742187 277.47705078 638.49609375 C239.41291568 632.91741742 202.39309495 622.24535834 167.44580078 606.12597656 C165.17911543 605.08245961 162.90266822 604.06512144 160.62109375 603.0546875 C129.20920774 588.95734002 100.3125749 569.07740699 74 547 C73.50009048 546.58379898 73.00018097 546.16759796 72.48512268 545.73878479 C63.7482787 538.45217757 55.49046238 530.80835338 47.4753418 522.73608398 C45.67784195 520.92778392 43.86977684 519.13054023 42.06054688 517.33398438 C35.24580163 510.52696876 28.98353027 503.55585633 23 496 C22.06551862 494.89791896 21.12413359 493.80160115 20.171875 492.71484375 C-28.92937247 436.40680029 -58.36921916 362.33741489 -69 289 C-69.16516113 287.89221191 -69.33032227 286.78442383 -69.50048828 285.64306641 C-74.54411558 250.27508632 -74.26576871 212.3191804 -69 177 C-68.82839355 175.81615723 -68.65678711 174.63231445 -68.47998047 173.41259766 C-62.60105484 133.87826759 -51.27372281 95.07802866 -34 59 C-33.30487305 57.52563477 -33.30487305 57.52563477 -32.59570312 56.02148438 C-23.32728977 36.45483396 -12.64521249 17.59270922 0 0 Z " fill="#323742" transform="translate(72,176)"/>
<path d="M0 0 C2.09574757 0.92011349 3.29151137 1.92123966 4.883008 3.56332588 C5.45039692 4.14062447 6.01778584 4.71792305 6.60236835 5.31271553 C7.2035146 5.93875679 7.80466084 6.56479805 8.42402363 7.20981026 C9.36683186 8.16965828 9.36683186 8.16965828 10.32868671 9.14889717 C13.01657795 11.88584422 15.686415 14.64016728 18.35810566 17.39291573 C20.31147461 19.40045254 22.27370603 21.39901777 24.23652363 23.39731026 C24.83766987 24.02335152 25.43881611 24.64939278 26.0581789 25.29440498 C26.90926228 26.16035286 26.90926228 26.16035286 27.77753925 27.04379463 C28.27177387 27.5537397 28.76600849 28.06368477 29.27521992 28.58908272 C31.08743361 30.00439899 32.58671044 30.39741492 34.83027363 30.80356026 C33.84027363 31.13356026 32.85027363 31.46356026 31.83027363 31.80356026 C37.08628823 38.00328084 42.67875722 43.79319951 48.43174934 49.53087711 C49.39455398 50.4947267 50.35713969 51.458795 51.31952807 52.42306021 C53.95734855 55.06476143 56.59825504 57.70335826 59.23969025 60.34144444 C62.1155641 63.21477607 64.98853166 66.09101123 67.86187524 68.96687275 C72.8956141 74.00422049 77.93120724 79.03970859 82.96802616 84.07397652 C90.45764303 91.55981041 97.94439892 99.04850075 105.43059586 106.53775453 C118.79944751 119.91187186 132.17115891 133.28312705 145.54408771 146.65316746 C157.24314 158.34970524 168.94126371 170.04717073 180.63846111 181.74556351 C181.41404388 182.52122266 182.18962665 183.29688182 182.98871193 184.09604579 C186.13690502 187.24455022 189.28509458 190.39305817 192.43327832 193.54157195 C221.96520971 223.07656242 251.50005687 252.60863558 281.03620867 282.1394054 C307.29529181 308.3937401 333.55178461 334.65066271 359.80610371 360.90976143 C389.29157037 390.40057798 418.77864582 419.8897844 448.26833409 449.37637955 C451.4092809 452.51700563 454.55022377 455.65763566 457.69116497 458.79826736 C458.85127085 459.95825463 458.85127085 459.95825463 460.03481321 461.14167598 C471.73191629 472.8376399 483.42778178 484.53484042 495.12305355 496.2326355 C508.41171183 509.52414654 521.70214238 522.81388253 534.99494634 536.10124754 C542.4413448 543.54469999 549.88635125 550.98953847 557.32939655 558.43634393 C562.29250783 563.4016868 567.25741504 568.36522893 572.2238274 573.32727001 C575.05900354 576.16005287 577.89336158 578.99364189 580.72555677 581.82940536 C583.29711465 584.40417032 585.87092236 586.9766628 588.44661919 589.54728713 C589.81893554 590.91810595 591.1887771 592.29140087 592.55854449 593.6647667 C593.36395913 594.46767782 594.16937377 595.27058895 594.99919492 596.09783071 C595.69610998 596.79467801 596.39302504 597.49152531 597.11105873 598.20948919 C598.75405522 599.88219935 598.75405522 599.88219935 600.83027363 600.80356026 C601.16027363 599.81356026 601.49027363 598.82356026 601.83027363 597.80356026 C601.99141148 598.69911629 601.99141148 598.69911629 602.15580463 599.61276436 C602.92061926 602.09701903 603.7602231 603.07318455 605.62177753 604.85629463 C606.2055315 605.42368355 606.78928547 605.99107246 607.39072895 606.57565498 C608.02304432 607.17680122 608.65535969 607.77794746 609.30683613 608.39731026 C610.62999998 609.68742137 611.95290902 610.97779386 613.27558613 612.26840401 C615.36960255 614.29393378 617.46745863 616.31524177 619.570508 618.33139229 C621.59749271 620.28016079 623.60901812 622.24387478 625.61933613 624.20981026 C626.25569996 624.8109565 626.89206379 625.41210274 627.54771137 626.03146553 C629.29755878 627.75082588 629.29755878 627.75082588 631.83027363 630.80356026 C631.40641414 634.55791732 629.91220137 635.91585207 627.01777363 638.24106026 C624.67116186 640.19726228 622.74580908 641.90914094 620.83027363 644.30356026 C618.41781941 647.31912803 615.63601213 649.61631271 612.70527363 652.11606026 C610.69629445 653.83221826 610.69629445 653.83221826 608.83027363 656.30356026 C606.41781941 659.31912803 603.63601213 661.61631271 600.70527363 664.11606026 C598.69629445 665.83221826 598.69629445 665.83221826 596.83027363 668.30356026 C594.41781941 671.31912803 591.63601213 673.61631271 588.70527363 676.11606026 C586.69629445 677.83221826 586.69629445 677.83221826 584.83027363 680.30356026 C582.41781941 683.31912803 579.63601213 685.61631271 576.70527363 688.11606026 C574.69629445 689.83221826 574.69629445 689.83221826 572.83027363 692.30356026 C570.41781941 695.31912803 567.63601213 697.61631271 564.70527363 700.11606026 C562.69629445 701.83221826 562.69629445 701.83221826 560.83027363 704.30356026 C558.41781941 707.31912803 555.63601213 709.61631271 552.70527363 712.11606026 C550.69629445 713.83221826 550.69629445 713.83221826 548.83027363 716.30356026 C546.42111435 719.31500935 543.6448801 721.60941315 540.71699238 724.10434151 C538.46267876 726.13462396 536.6986675 728.41974738 534.83027363 730.80356026 C532.33027363 733.17856026 532.33027363 733.17856026 529.83027363 734.80356026 C526.63471729 734.43097962 524.98616381 733.33458367 522.74580097 731.09140205 C522.17195667 730.52378654 521.59811237 729.95617104 521.00687885 729.37135506 C520.09574833 728.44640991 520.09574833 728.44640991 519.16621113 727.50277901 C518.53292896 726.86999535 517.8996468 726.23721169 517.24717426 725.58525276 C515.91059005 724.24632967 514.57769401 722.90371614 513.24824238 721.55771065 C511.21464046 719.50053566 509.16807255 717.45697945 507.11933613 715.41488838 C505.82166726 714.11164191 504.52476616 712.80763042 503.22871113 711.50277901 C502.61724232 710.8922216 502.00577351 710.2816642 501.37577534 709.65260506 C500.80823536 709.07553307 500.24069538 708.49846107 499.65595722 707.90390205 C498.90794346 707.1489772 498.90794346 707.1489772 498.14481831 706.37880135 C496.83027363 704.80356026 496.83027363 704.80356026 495.9897046 702.96236635 C494.6227804 700.41721759 493.00787213 698.73085394 490.96483344 696.68742174 C490.15173926 695.86932052 489.33864508 695.05121931 488.50091168 694.20832714 C487.60113977 693.31323757 486.70136786 692.41814799 485.77433014 691.49593449 C484.80951964 690.52903826 483.84514772 689.56170425 482.88117608 688.5939717 C480.21730727 685.92228142 477.54720832 683.25689321 474.87609602 680.59244754 C471.97638656 677.69779358 469.08245794 674.79737015 466.18780071 671.89766556 C461.10918112 666.81180682 456.02683027 661.72970055 450.94204617 656.65000534 C443.3809071 649.09641307 435.82547036 641.53713648 428.27116654 633.9767091 C414.78083425 620.47582923 401.28476525 606.98069554 387.78627368 593.48797406 C375.97312116 581.67984661 364.16182177 569.8698695 352.35237789 558.05803299 C351.56995506 557.27545739 350.78753224 556.49288179 349.98139963 555.68659178 C346.80552462 552.51009413 343.6296567 549.33358941 340.45380041 546.15707304 C310.6420772 516.33922741 280.82451668 486.52722512 251.00435373 456.71782016 C224.49521869 430.21817588 197.99125759 403.71336726 171.49165058 377.20419502 C141.73932043 347.44116153 111.98376918 317.68135447 82.2229951 287.92676407 C79.05186258 284.75627301 75.88073795 281.58577406 72.70961666 278.41527176 C71.92876676 277.63458001 71.14791685 276.85388826 70.34340483 276.04953918 C58.53805395 264.24646579 46.73517766 252.44092166 34.9334898 240.63418579 C21.51721371 227.21219979 8.09738685 213.79377552 -5.32717792 200.38007956 C-12.84559776 192.86754564 -20.3612382 185.35225602 -27.87295024 177.83301489 C-32.88532072 172.81617366 -37.90129285 167.80295316 -42.92026162 162.79271305 C-45.78343654 159.93431422 -48.64498472 157.07433588 -51.50219194 154.20997076 C-54.09944627 151.60627595 -56.70122395 149.0071938 -59.30674838 146.41177564 C-60.68835856 145.03314257 -62.06504975 143.64958529 -63.44155768 142.26585779 C-64.26216241 141.45026009 -65.08276715 140.63466239 -65.92823869 139.79434961 C-66.63204373 139.09068009 -67.33584877 138.38701057 -68.06098123 137.66201773 C-70.29306451 135.69486117 -72.59188191 134.27737388 -75.16972637 132.80356026 C-76.84071636 131.41345406 -76.84071636 131.41345406 -78.32353497 129.97201729 C-79.1686816 129.15569328 -79.1686816 129.15569328 -80.03090191 128.32287788 C-80.62069836 127.74158119 -81.2104948 127.1602845 -81.81816387 126.56137276 C-82.74334316 125.65329369 -82.74334316 125.65329369 -83.68721294 124.72686958 C-84.9825045 123.45039831 -86.27496751 122.17105113 -87.5647459 120.88900948 C-89.54547486 118.92781915 -91.54650085 116.9889584 -93.54863262 115.04965401 C-94.80645331 113.80488287 -96.06300917 112.55883207 -97.31816387 111.31137276 C-98.22107662 110.44550041 -98.22107662 110.44550041 -99.14223003 109.5621357 C-100.79228497 107.89389229 -100.79228497 107.89389229 -103.16972637 104.80356026 C-102.97470675 100.44969902 -101.28663605 98.41734622 -98.28000164 95.39917183 C-97.44299221 94.54943794 -96.60598278 93.69970406 -95.74360943 92.82422066 C-94.81841503 91.90555214 -93.89322063 90.98688362 -92.93999004 90.04037666 C-91.96029843 89.05362594 -90.98145247 88.06603499 -90.00339031 87.07766914 C-87.34740175 84.39918188 -84.67883977 81.73356465 -82.00714946 79.07074976 C-79.77896447 76.84767303 -77.55700613 74.61842547 -75.3350237 72.38915193 C-70.09550675 67.13263609 -64.84577923 61.88647621 -59.58940411 56.64682198 C-54.16175058 51.23611095 -48.75071191 45.80918718 -43.34769171 40.3738867 C-38.71042802 35.70996759 -34.06356341 31.0557749 -29.40870553 26.4094156 C-26.627549 23.63319751 -23.8501204 20.85349379 -21.08167362 18.06459618 C-18.48019697 15.44482457 -15.86695328 12.83740142 -13.24400806 10.23913002 C-11.82179357 8.82434555 -10.41193979 7.39716972 -9.00242901 5.96972847 C-8.15696011 5.13691353 -7.3114912 4.30409859 -6.44040203 3.44604683 C-5.34172944 2.3482537 -5.34172944 2.3482537 -4.22086143 1.22828293 C-2.16972637 -0.19643974 -2.16972637 -0.19643974 0 0 Z " fill="#BD6069" transform="translate(144.16972637176514,41.19643974304199)"/>
<path d="M0 0 C1.32 0.66 2.64 1.32 4 2 C-0.75 6 -0.75 6 -3 6 C-1.125 1.125 -1.125 1.125 0 0 Z " fill="#555055" transform="translate(72,176)"/>
</svg>
