<?xml version="1.0" encoding="UTF-8" standalone="no"?>
<svg
   version="1.1"
   width="2000"
   height="2000"
   id="svg4"
   sodipodi:docname="gallery.svg"
   xmlns:inkscape="http://www.inkscape.org/namespaces/inkscape"
   xmlns:sodipodi="http://sodipodi.sourceforge.net/DTD/sodipodi-0.dtd"
   xmlns="http://www.w3.org/2000/svg"
   xmlns:svg="http://www.w3.org/2000/svg">
  <defs
     id="defs4" />
  <sodipodi:namedview
     id="namedview4"
     pagecolor="#ffffff"
     bordercolor="#000000"
     borderopacity="0.25"
     inkscape:showpageshadow="2"
     inkscape:pageopacity="0.0"
     inkscape:pagecheckerboard="0"
     inkscape:deskcolor="#d1d1d1">
    <inkscape:page
       x="0"
       y="0"
       width="2000"
       height="2000"
       id="page2"
       margin="0"
       bleed="0" />
  </sodipodi:namedview>
  <path
     d="m 974.96094,-0.203125 c 1.86844,-0.00702 3.73689,-0.0141073 5.60533,-0.0212555 5.93625,-0.0193993 11.87246,-0.0244337 17.80873,-0.0256195 1.51598,-6.6278e-4 1.51598,-6.6278e-4 3.0626,-0.001339 28.7634,-0.006598 57.4097,0.0495305 86.0518,2.9948693 2.6774,0.2735046 5.3558,0.5338292 8.0345,0.7926025 C 1134.0157,7.2890664 1172.1577,13.019066 1210,21 c 0.7525,0.158152 1.5049,0.316304 2.2802,0.479248 C 1292.0509,38.315125 1369.4588,65.944054 1485,124 c 1.6237,0.90854 1.6237,0.90854 3.2803,1.83544 39.895,22.37834 78.3064,47.46845 114.7197,75.16455 0.5614,0.42491 1.1228,0.84982 1.7012,1.2876 8.6493,6.54928 17.0804,13.34798 25.4741,20.21973 1.6069,1.31454 3.2175,2.62466 4.8286,3.93408 10.0651,8.18976 19.9637,16.52508 29.5235,25.30078 2.0913,1.90963 4.2052,3.78113 6.3476,5.63281 8.5919,7.48271 16.8555,15.2835 24.8594,23.39063 2.0492,2.02099 4.1449,3.92306 6.3281,5.79687 5.8036,4.98453 11.2232,10.36518 16.1875,16.1875 3.2334,3.77736 6.7172,7.25656 10.25,10.75 4.0609,4.02041 8.0029,8.06225 11.7031,12.42188 1.8671,2.15925 3.7964,4.25409 5.7383,6.34595 4.8377,5.21251 9.4266,10.55188 13.8867,16.09546 2.1095,2.56092 4.3008,5.00795 6.5469,7.44921 4.5215,4.96821 8.6365,10.19554 12.75,15.5 2.3651,3.04825 4.7791,6.05301 7.2095,9.04932 6.9386,8.57076 13.4917,17.40208 19.9746,26.3208 1.5298,2.09659 3.0739,4.18148 4.6245,6.2627 16.8528,22.77574 32.5789,46.71176 47.0664,71.05468 0.829,1.38857 0.829,1.38857 1.6748,2.80518 8.8397,14.85329 17.2274,29.92576 25.3252,45.19482 0.5512,1.03399 1.1025,2.06798 1.6704,3.13331 22.9216,43.09938 42.1527,87.82262 58.3296,133.86669 0.2645,0.75219 0.529,1.50438 0.8015,2.27936 26.1897,74.69327 42.7397,152.48125 50.511,231.22064 0.1133,1.13572 0.1133,1.13572 0.2289,2.29438 0.5615,5.72983 1.025,11.46482 1.4586,17.20562 0.086,1.10711 0.1722,2.21421 0.261,3.35486 1.7913,23.6477 2.1024,47.23663 2.057,70.94498 -0.01,2.99441 -0.01,5.98887 -0.011,8.98327 -0.035,27.479 -0.2369,54.8456 -3.0505,82.2064 -0.2735,2.6773 -0.5338,5.3557 -0.7926,8.0345 -6.9955,71.7444 -20.894,142.95 -43.4638,211.476 -0.4028,1.226 -0.4028,1.226 -0.8138,2.4766 -7.3886,22.4459 -15.1705,44.6733 -24.1862,66.5234 -0.4441,1.082 -0.8882,2.164 -1.3457,3.2788 -6.775,16.4476 -14.0704,32.6324 -21.6543,48.7212 -0.4911,1.0455 -0.9823,2.0909 -1.4883,3.168 -10.8929,23.1367 -22.5973,45.7584 -35.5117,67.832 -0.51,0.8769 -1.02,1.7538 -1.5454,2.6573 -12.9961,22.3334 -26.6845,44.1383 -41.4546,65.3427 -0.7903,1.1379 -0.7903,1.1379 -1.5967,2.2989 -19.0352,27.3609 -39.3682,53.7506 -61.0263,79.0859 -1.4182,1.6636 -2.8277,3.3342 -4.2364,5.0059 -5.911,6.9886 -12.004,13.7646 -18.2827,20.4252 -2.8351,3.0085 -5.628,6.0243 -8.2954,9.1841 -4.0834,4.7623 -8.6263,9.0898 -13.0825,13.4986 -3.2225,3.1999 -6.3662,6.3984 -9.2925,9.8764 -3.1129,3.6775 -6.6282,6.7562 -10.2422,9.9336 -3.641,3.3272 -7.1022,6.8107 -10.5703,10.3164 -4.3349,4.3734 -8.6584,8.6735 -13.3672,12.6485 -2.1378,1.8383 -4.2052,3.7452 -6.2712,5.6635 -5.2135,4.8397 -10.5547,9.4297 -16.0999,13.8912 -2.5609,2.1094 -5.0079,4.3007 -7.4492,6.5468 -4.3745,3.9819 -8.9328,7.6424 -13.604,11.2639 -3.8166,2.9616 -7.5756,5.9807 -11.3032,9.0535 -8.7532,7.2067 -17.7867,13.9712 -26.9658,20.624 -2.1297,1.5492 -4.2473,3.1132 -6.3614,4.6836 -37.5507,27.7308 -77.7482,52.1426 -118.9531,74 -0.5842,0.3103 -1.1684,0.6205 -1.7703,0.9401 -21.0556,11.1696 -42.3947,21.5036 -64.2297,31.0599 -1.1718,0.5129 -2.3435,1.0258 -3.5508,1.5542 -85.2845,37.0968 -175.3174,61.5287 -300.8867,77.7583 -1.1286,0.1132 -1.1286,0.1132 -2.2801,0.2287 -5.7551,0.5671 -11.5154,1.0309 -17.2824,1.4588 -1.1419,0.087 -2.2838,0.173 -3.4603,0.262 -22.9491,1.6856 -45.8289,2.0544 -68.8346,1.9988 -4.7523,-0.011 -9.50445,0 -14.25676,0.01 -31.3318,0.064 -62.33804,-1.2263 -93.51084,-4.5176 -1.02312,-0.1064 -2.04624,-0.2127 -3.10037,-0.3223 -85.02788,-8.892 -169.04935,-28.4208 -391.34933,-125.9609 -2.65595,-1.5659 -5.31962,-3.1182 -7.98389,-4.6699 -27.30019,-15.9528 -53.90022,-33.2347 -79.50391,-51.7969 -0.7462,-0.5404 -1.49241,-1.0809 -2.26123,-1.6377 -21.35064,-15.506 -42.05678,-31.8316 -62.11474,-48.9765 -1.69117,-1.4431 -3.38777,-2.8795 -5.08496,-4.3155 -7.49923,-6.3627 -14.78905,-12.9113 -21.97754,-19.622 -1.51837,-1.4082 -3.04855,-2.802 -4.58496,-4.1905 -5.97537,-5.4055 -11.73871,-10.9687 -17.40015,-16.7028 -2.78918,-2.8128 -5.59765,-5.5111 -8.63892,-8.055 -4.08706,-3.4701 -7.62708,-7.4178 -11.22363,-11.3796 -3.572,-3.9228 -7.24904,-7.7079 -11.02637,-11.4329 -3.75557,-3.7126 -7.36676,-7.4845 -10.78906,-11.5078 -2.01813,-2.3171 -4.10148,-4.5613 -6.19897,-6.8064 -4.97656,-5.3284 -9.731,-10.7506 -14.29712,-16.4397 -2.85196,-3.4826 -5.81077,-6.8612 -8.77735,-10.2461 -5.61026,-6.4283 -10.93968,-13.0263 -16.14892,-19.7817 -1.59479,-2.059 -3.2042,-4.1061 -4.81592,-6.1519 -7.53598,-9.5865 -14.81495,-19.3265 -21.8833,-29.2627 -1.33408,-1.8704 -2.67471,-3.7362 -4.01856,-5.5996 -6.31062,-8.7607 -12.40101,-17.6539 -18.3833,-26.6416 -0.71316,-1.0706 -0.71316,-1.0706 -1.44073,-2.1629 C 118.84585,1482.8 81.3939,1407.6713 53.0001,1325.0032 c -0.37028,-1.0893 -0.37028,-1.0893 -0.74804,-2.2005 -8.37062,-24.6905 -15.87151,-49.5208 -22.25196,-74.7995 -0.19316,-0.7627 -0.38631,-1.5255 -0.58532,-2.3113 -12.30287,-48.7024 -20.80329,-98.1958 -25.72718,-148.1887 -0.11317,-1.135 -0.11317,-1.135 -0.22864,-2.293 -0.56157,-5.7303 -1.0253,-11.4657 -1.45886,-17.207 -0.0861,-1.1071 -0.17227,-2.2142 -0.26101,-3.3548 -1.79129,-23.6477 -2.10241,-47.2367 -2.05705,-70.945 0.006,-2.9944 0.008,-5.98885 0.0111,-8.98326 0.035,-27.48682 0.24439,-54.85704 3.05374,-82.2258 0.26821,-2.63853 0.52181,-5.27821 0.77325,-7.91839 8.77301,-91.2931 29.41852,-181.60881 83.47998,-315.57276 0.50886,-1.11922 1.01772,-2.23845 1.54199,-3.3916 10.95134,-24.01304 22.61904,-47.54905 35.45801,-70.6084 0.50612,-0.91571 1.01224,-1.83143 1.53369,-2.7749 12.28864,-22.2172 25.64379,-43.66688 39.71631,-64.7876 0.74342,-1.11669 0.74342,-1.11669 1.50186,-2.25595 10.94378,-16.41305 22.30558,-32.48014 34.24814,-48.18155 0.42491,-0.56138 0.84982,-1.12277 1.2876,-1.70117 6.05965,-8.00268 12.33368,-15.81242 18.68506,-23.58398 2.39024,-2.92582 4.74812,-5.87496 7.08984,-8.83985 7.54578,-9.45208 15.54179,-18.52614 23.71485,-27.4375 1.89687,-2.08022 3.75658,-4.18306 5.59765,-6.3125 7.48393,-8.5933 15.28616,-16.85803 23.39453,-24.86328 1.99961,-2.02762 3.87903,-4.09954 5.73047,-6.26172 5.90941,-6.88272 12.4136,-13.13672 19.30469,-19.02343 2.83909,-2.5562 5.51111,-5.25946 8.19531,-7.97657 3.84153,-3.88373 7.72373,-7.62554 11.88672,-11.16796 2.17005,-1.88124 4.27855,-3.82191 6.3833,-5.77564 5.21202,-4.83666 10.5505,-9.425 16.09326,-13.88452 2.56092,-2.10944 5.00796,-4.30075 7.44922,-6.54688 4.96468,-4.51832 10.18838,-8.63061 15.48828,-12.74218 3.09958,-2.40523 6.16098,-4.85416 9.21338,-7.31885 7.68484,-6.2007 15.50407,-12.19806 23.44971,-18.06055 1.32325,-0.97705 2.64435,-1.95703 3.96289,-2.94043 71.93856,-53.59805 152.82225,-97.349925 245.08466,-131.829154 1.93022,-0.71229 3.85834,-1.430014 5.78595,-2.149353 83.08228,-30.878636 170.25968,-48.383871 266.6908,-56.790798 0.78104,-0.066427 1.56208,-0.132854 2.36678,-0.201294 15.69379,-1.26994291 31.36531,-1.76195886 47.10588,-1.798706 z"
     fill="#2e343f"
     id="path1" />
  <path
     d="m 492.45077,374.8712 c 1.08258,-0.003 1.08258,-0.003 2.18704,-0.005 2.41787,-0.005 4.83568,-0.002 7.25355,-4e-5 1.7587,-0.002 3.5174,-0.004 5.27609,-0.007 4.8506,-0.006 9.70118,-0.007 14.55177,-0.006 5.27059,-1.7e-4 10.54118,-0.006 15.81176,-0.0112 10.46173,-0.009 20.92346,-0.0133 31.38519,-0.0155 12.52805,-0.003 25.05609,-0.0117 37.58413,-0.0204 30.28335,-0.0208 60.5667,-0.0313 90.85006,-0.0401 10.03017,-0.003 20.06034,-0.006 30.09051,-0.01 1.06159,-3.9e-4 1.06159,-3.9e-4 2.14463,-7.8e-4 2.86332,-10e-4 5.72663,-0.002 8.58995,-0.003 48.98124,-0.018 97.96248,-0.0333 146.94372,-0.0408 3.84714,-5.8e-4 7.69428,-0.001 11.54143,-0.002 0.76314,-1.2e-4 1.52628,-2.3e-4 2.31255,-3.5e-4 7.73159,-10e-4 15.46317,-0.002 23.19476,-0.004 1.55019,-2.4e-4 3.10038,-4.9e-4 4.65058,-7.3e-4 49.77194,-0.008 99.54381,-0.0302 149.31581,-0.0627 35.7638,-0.0233 71.5275,-0.0449 107.2913,-0.052 1.1038,-2.2e-4 1.1038,-2.2e-4 2.2299,-4.5e-4 16.1563,-0.003 32.3125,-0.005 48.4687,-0.006 6.5011,-4.1e-4 13.0023,-9.7e-4 19.5034,-0.002 0.7115,-6e-5 1.4229,-1.2e-4 2.156,-1.8e-4 22.8972,-0.002 45.7944,-0.0162 68.6917,-0.0368 23.7154,-0.0212 47.4307,-0.0279 71.1462,-0.0181 13.6665,0.005 27.3329,-6.6e-4 40.9994,-0.0225 9.135,-0.0135 18.2699,-0.0124 27.4049,4e-4 5.201,0.007 10.4018,0.008 15.6028,-0.01 4.7427,-0.0155 9.485,-0.0122 14.2277,0.005 1.6944,0.003 3.3888,-2.9e-4 5.0831,-0.0115 30.3662,-0.1875 58.8578,9.84386 82.0606,29.51129 0.5087,0.42507 1.0174,0.85014 1.5415,1.28809 23.6181,19.89753 38.6322,49.13988 42.4585,79.71191 0.088,2.4824 0.1274,4.96681 0.1288,7.45077 0,0.72172 0,1.44344 0.01,2.18703 0,2.41788 0,4.83569 10e-5,7.25356 0,1.7587 0,3.5174 0.01,5.27609 0.01,4.8506 0.01,9.70117 0.01,14.55177 2e-4,5.27059 0.01,10.54117 0.011,15.81176 0.01,10.46173 0.013,20.92346 0.016,31.38519 0,12.52805 0.012,25.05608 0.02,37.58412 0.021,30.28336 0.031,60.56671 0.04,90.85007 0,10.03017 0.01,20.06034 0.01,30.09051 2e-4,0.70773 5e-4,1.41545 8e-4,2.14463 0,2.86331 0,5.72663 0,8.58995 0.018,48.98124 0.033,97.96247 0.041,146.94372 5e-4,3.84714 0,7.69428 0,11.54143 2e-4,0.76314 3e-4,1.52628 4e-4,2.31255 0,7.73159 0,15.46317 0,23.19475 3e-4,1.5502 5e-4,3.10039 8e-4,4.65058 0.01,49.77195 0.03,99.54386 0.063,149.31586 0.023,35.7638 0.045,71.5275 0.052,107.2913 2e-4,0.7359 3e-4,1.4717 5e-4,2.2299 0,16.1563 0.01,32.3125 0.01,48.4687 4e-4,6.5011 10e-4,13.0023 0,19.5034 10e-5,1.0672 10e-5,1.0672 2e-4,2.156 0,22.8972 0.016,45.7944 0.037,68.6916 0.021,23.7155 0.028,47.4308 0.018,71.1463 -0.01,13.6665 6e-4,27.3329 0.023,40.9994 0.014,9.135 0.012,18.2699 -4e-4,27.4049 -0.01,5.201 -0.01,10.4018 0.01,15.6028 0.015,4.7427 0.012,9.485 -0.01,14.2277 0,1.6944 3e-4,3.3887 0.012,5.0831 0.1877,30.3873 -9.8592,58.83 -29.5113,82.0606 -0.8185,0.9939 -1.6371,1.9877 -2.4804,3.0117 -14.2674,16.5122 -33.124,28.3862 -53.7071,35.4258 -0.6509,0.2229 -1.3018,0.4459 -1.9724,0.6755 -13.5249,4.2639 -26.7932,5.3282 -40.85,5.2645 -1.7704,0 -3.5408,0.01 -5.3113,0.013 -4.8411,0.012 -9.6821,0 -14.5232,-0.01 -5.2759,-0.01 -10.5518,0 -15.8276,0.01 -9.2389,0.011 -18.4777,0.011 -27.7166,0 -13.7387,-0.011 -27.4773,-0.01 -41.2159,0 -23.1167,0.015 -46.2333,0.015 -69.3499,0.01 -0.7033,-3e-4 -1.4066,-5e-4 -2.1312,-8e-4 -1.0566,-3e-4 -1.0566,-3e-4 -2.1345,-7e-4 -21.4742,-0.01 -42.9483,-0.01 -64.4224,-0.01 -1.4389,3e-4 -2.8778,5e-4 -4.3167,7e-4 -5.7826,10e-4 -11.5652,0 -17.3478,0 -16.164,0 -32.328,0 -48.492,0.01 -1.104,0 -1.104,0 -2.2303,10e-5 -23.4473,0 -46.8945,0 -70.3418,-0.01 -1.1404,-3e-4 -1.1404,-3e-4 -2.3039,-6e-4 -12.3464,0 -24.6927,-0.01 -37.0391,-0.011 -48.9648,-0.014 -97.92952,-0.014 -146.89429,7e-4 -12.34018,0 -24.68035,0.01 -37.02053,0.011 -0.75986,2e-4 -1.51973,5e-4 -2.30262,7e-4 -23.42316,0.01 -46.84633,0.01 -70.26949,0.01 -1.10322,-10e-5 -1.10322,-10e-5 -2.22873,-10e-5 -16.14614,-10e-4 -32.29228,0 -48.43842,-0.01 -5.77738,-9e-4 -11.55475,0 -17.33213,0 -1.43721,-2e-4 -2.87443,-5e-4 -4.31164,-7e-4 -21.4675,0 -42.93498,-5e-4 -64.40247,0.01 -0.70328,3e-4 -1.40655,5e-4 -2.13114,8e-4 -1.05296,4e-4 -1.05296,4e-4 -2.12719,7e-4 -23.69279,0.01 -47.38554,0.01 -71.07832,-0.011 -13.65627,-0.01 -27.31249,-0.01 -40.96876,0 -9.12274,0.01 -18.24544,0 -27.36818,-0.011 -5.19712,-0.01 -10.39413,-0.01 -15.59125,0 -4.73434,0.01 -9.46845,0.01 -14.20278,-0.01 -1.6958,0 -3.39163,-10e-4 -5.08742,0.01 -13.84357,0.058 -27.15175,-1.436 -40.34304,-5.9513 -0.73372,-0.2498 -1.46743,-0.4995 -2.22339,-0.7568 -14.41535,-5.1544 -27.33214,-12.7832 -38.96411,-22.6807 -0.89074,-0.7399 -1.78148,-1.4798 -2.69922,-2.2422 -6.20431,-5.3397 -11.344,-11.2573 -16.30078,-17.7578 -0.59425,-0.767 -1.18851,-1.534 -1.80078,-2.3242 -7.55725,-10.2327 -13.48787,-21.7043 -17.57422,-33.7383 -0.22631,-0.6581 -0.45262,-1.3161 -0.68579,-1.9941 -4.31575,-13.5486 -5.38093,-26.8501 -5.31952,-40.9422 -0.003,-1.7692 -0.008,-3.5384 -0.0141,-5.3075 -0.0125,-4.8379 -0.006,-9.6755 0.003,-14.5133 0.007,-5.2723 -0.004,-10.5446 -0.0124,-15.817 -0.0123,-9.2327 -0.0136,-18.4654 -0.007,-27.6982 0.009,-13.7298 0.001,-27.4595 -0.0103,-41.1892 -0.0202,-25.236 -0.0217,-50.4719 -0.0163,-75.7079 7.6e-4,-3.5729 10e-4,-7.1458 0.002,-10.7187 1.3e-4,-0.7098 2.7e-4,-1.4195 4.2e-4,-2.1507 0.003,-15.744 -7e-5,-31.4879 -0.004,-47.2319 -5.8e-4,-2.1562 -0.001,-4.3123 -0.002,-6.4685 -0.002,-5.7803 -0.003,-11.5606 -0.005,-17.3409 -0.0108,-40.3404 -0.0155,-80.6808 -0.008,-121.0212 2.2e-4,-1.1401 2.2e-4,-1.1401 4.5e-4,-2.3032 0.002,-8.4751 0.003,-16.9501 0.005,-25.4252 1.6e-4,-0.7651 3.3e-4,-1.5302 4.9e-4,-2.3186 0.001,-6.2083 0.001,-6.2083 0.002,-9.2828 0.0104,-48.9377 0.003,-97.87538 -0.021,-146.81308 -0.006,-12.33125 -0.0118,-24.6625 -0.0174,-36.99375 -3.4e-4,-0.75934 -6.9e-4,-1.51868 -10e-4,-2.30102 -0.0105,-23.41169 -0.0161,-46.82337 -0.0165,-70.23506 -10e-6,-0.73527 -2e-5,-1.47054 -3e-5,-2.22809 -2.3e-4,-16.14254 7.7e-4,-32.28508 0.003,-48.42762 7.6e-4,-5.77635 0.001,-11.55269 0.002,-17.32904 1.6e-4,-1.43694 3.3e-4,-2.87388 5e-4,-4.31082 0.003,-22.87187 -0.006,-45.74372 -0.0199,-68.61559 -0.0144,-23.68316 -0.0139,-47.36627 0.003,-71.04944 0.01,-13.64656 0.008,-27.29301 -0.009,-40.93957 -0.0105,-9.12138 -0.006,-18.24267 0.009,-27.36405 0.009,-5.19308 0.0111,-10.38596 -0.004,-15.57904 -0.0139,-4.73538 -0.009,-9.47038 0.0103,-14.20575 0.004,-1.69168 8.8e-4,-3.38339 -0.01,-5.07504 -0.17687,-30.35796 9.85384,-58.84289 29.51599,-82.03948 0.63761,-0.76304 0.63761,-0.76304 1.28809,-1.5415 20.87393,-24.76965 54.37568,-42.55887 87.16087,-42.5778 z"
     fill="#d0cabe"
     id="path2" />
  <path
     d="m 500,500 c 330,0 660,0 1000,0 0,243.54 0,487.08 0,738 -2,-3 -2,-3 -2,-5 -0.66,0 -1.32,0 -2,0 0,-0.99 0,-1.98 0,-3 -0.66,0 -1.32,0 -2,0 0,-0.99 0,-1.98 0,-3 -0.66,0 -1.32,0 -2,0 0,-0.99 0,-1.98 0,-3 -0.66,0 -1.32,0 -2,0 -0.5311,-1.1369 -1.0622,-2.2739 -1.6094,-3.4453 -2.4147,-4.8316 -5.4533,-9.0833 -8.6406,-13.4297 -1.0928,-1.4943 -2.1815,-2.9916 -3.2656,-4.4922 -0.4773,-0.6508 -0.9546,-1.3016 -1.4463,-1.9722 C 1474,1199 1474,1199 1474,1197 c -0.66,0 -1.32,0 -2,0 0,-0.99 0,-1.98 0,-3 -0.66,0 -1.32,0 -2,0 -3,-4.3846 -3,-4.3846 -3,-7 -0.66,0 -1.32,0 -2,0 0,-0.99 0,-1.98 0,-3 -0.66,0 -1.32,0 -2,0 -0.33,-1.32 -0.66,-2.64 -1,-4 -0.66,0 -1.32,0 -2,0 -3,-4.3846 -3,-4.3846 -3,-7 -0.66,0 -1.32,0 -2,0 -0.33,-1.32 -0.66,-2.64 -1,-4 -0.66,0 -1.32,0 -2,0 -1.2187,-1.7148 -1.2187,-1.7148 -2.5,-3.9375 -1.6845,-3.1168 -1.6845,-3.1168 -4.5,-5.0625 -0.33,-0.99 -0.66,-1.98 -1,-3 -1.3329,-1.5001 -1.3329,-1.5001 -3,-3 -2.7155,-2.5509 -4.3877,-4.6679 -6,-8 -0.9885,-1.0114 -1.9905,-2.0096 -3,-3 -1.1336,-1.2841 -2.2582,-2.5762 -3.375,-3.875 -2.7629,-3.1733 -5.6108,-6.1862 -8.625,-9.125 -1.1888,-1.1861 -2.3763,-2.3737 -3.5625,-3.5625 -0.5968,-0.5955 -1.1937,-1.1911 -1.8086,-1.8047 -1.2609,-1.2639 -2.5099,-2.5397 -3.7539,-3.8203 -2.7163,-2.6257 -5.4826,-5.1163 -8.875,-6.8125 0,-0.66 0,-1.32 0,-2 -0.99,0 -1.98,0 -3,0 0,-0.66 0,-1.32 0,-2 -0.99,0 -1.98,0 -3,0 0,-0.66 0,-1.32 0,-2 -0.5569,-0.1702 -1.1137,-0.3403 -1.6875,-0.5156 -3.9919,-1.2677 -7.774,-2.6226 -11.5,-4.5469 -16.1014,-8.3033 -35.7017,-7.8271 -52.7163,-2.6616 -4.9236,1.7008 -9.5792,3.9785 -14.2173,6.3335 C 1313,1108 1313,1108 1311,1108 c 0,0.66 0,1.32 0,2 -0.99,0 -1.98,0 -3,0 0,0.66 0,1.32 0,2 -1.7253,0.944 -3.4505,1.888 -5.1758,2.832 -1.9023,1.218 -3.2632,2.542 -4.8242,4.168 -1.2222,1.0705 -2.452,2.1324 -3.6875,3.1875 -3.6496,3.1675 -7.0447,6.5229 -10.4336,9.9648 -1.6342,1.6071 -3.292,3.0875 -5.0664,4.5352 -2.8044,2.2296 -2.8044,2.2296 -5.125,4.625 -2.3453,2.3454 -4.7506,4.5108 -7.25,6.6875 -2.4112,2.1182 -4.4594,4.0281 -6.4375,6.5625 -1.9923,2.4281 -3.9363,3.994 -6.4375,5.875 -2.7835,2.0955 -4.8111,3.8608 -7.0625,6.5625 -2.7869,3.3443 -5.804,5.653 -9.3164,8.1914 -2.2936,1.7742 -2.2936,1.7742 -4.1484,4.2734 -2.768,3.4481 -6.0882,5.8192 -9.5977,8.4727 -2.5124,1.9916 -2.5124,1.9916 -4.4375,4.5625 -2.7499,3.4373 -6.0688,5.7959 -9.5625,8.4375 -2.5382,2.1477 -4.4086,4.4386 -6.4375,7.0625 -4.5405,4 -4.5405,4 -7,4 -1.3707,-1.636 -2.7005,-3.3068 -4,-5 -0.8353,-0.8044 -0.8353,-0.8044 -1.6875,-1.625 C 1189,1204 1189,1204 1188,1201 c -0.9765,-1.023 -1.9813,-2.019 -3,-3 -1.3333,-1.6667 -2.6667,-3.3333 -4,-5 -0.7734,-0.7425 -0.7734,-0.7425 -1.5625,-1.5 -1.4375,-1.5 -1.4375,-1.5 -2.8125,-3.8125 -1.9246,-3.183 -4.2107,-5.861 -6.625,-8.6875 -1.3383,-1.6627 -2.6719,-3.3292 -4,-5 -0.66,-0.8044 -1.32,-1.6087 -2,-2.4375 -2,-2.5625 -2,-2.5625 -4.0625,-5.6875 -1.5647,-2.3217 -2.9481,-3.9685 -4.9375,-5.875 -1.3492,-1.6539 -2.6813,-3.3217 -4,-5 -0.66,-0.8044 -1.32,-1.6087 -2,-2.4375 -2,-2.5625 -2,-2.5625 -4.0625,-5.6875 -1.5647,-2.3217 -2.9481,-3.9685 -4.9375,-5.875 -1.3492,-1.6539 -2.6813,-3.3217 -4,-5 -0.66,-0.8044 -1.32,-1.6087 -2,-2.4375 -2,-2.5625 -2,-2.5625 -4.0625,-5.6875 -1.5647,-2.3217 -2.9481,-3.9685 -4.9375,-5.875 -2.0534,-2.517 -4.0556,-5.0708 -6.0625,-7.625 -1.8163,-2.3232 -1.8163,-2.3232 -3.625,-4 C 1114,1109 1114,1109 1113,1106 c -0.99,-0.66 -1.98,-1.32 -3,-2 -0.33,-0.99 -0.66,-1.98 -1,-3 -0.9765,-1.023 -1.9813,-2.019 -3,-3 -2.2002,-2.6261 -4.1739,-5.2636 -6.0625,-8.125 -1.5647,-2.3217 -2.9481,-3.9685 -4.9375,-5.875 -2.0534,-2.517 -4.0556,-5.0708 -6.0625,-7.625 -1.8163,-2.3232 -1.8163,-2.3232 -3.625,-4 C 1084,1071 1084,1071 1083,1068 c -0.9765,-1.023 -1.9813,-2.019 -3,-3 -2.0534,-2.517 -4.0556,-5.0708 -6.0625,-7.625 -1.8163,-2.3232 -1.8163,-2.3232 -3.625,-4 C 1069,1052 1069,1052 1068,1049 c -0.9765,-1.023 -1.9813,-2.019 -3,-3 -2.0534,-2.517 -4.0556,-5.0708 -6.0625,-7.625 -1.8163,-2.3232 -1.8163,-2.3232 -3.625,-4 C 1054,1033 1054,1033 1053,1030 c -0.9765,-1.023 -1.9813,-2.019 -3,-3 -2.0534,-2.517 -4.0556,-5.0708 -6.0625,-7.625 -1.8163,-2.3232 -1.8163,-2.3232 -3.625,-4 C 1039,1014 1039,1014 1038,1011 c -0.9765,-1.023 -1.9813,-2.019 -3,-3 -2.0534,-2.517 -4.0556,-5.0708 -6.0625,-7.625 -1.8163,-2.32321 -1.8163,-2.32321 -3.625,-4 C 1024,995 1024,995 1023,992 c -0.9765,-1.02298 -1.9813,-2.01904 -3,-3 -1.3492,-1.65385 -2.6813,-3.3217 -4,-5 -0.66,-0.825 -1.32,-1.65 -2,-2.5 -6,-7.5 -6,-7.5 -7.9375,-10 -2.0651,-2.59429 -2.0651,-2.59429 -4.6875,-5.0625 -2.08482,-2.13968 -3.26312,-3.70833 -4.375,-6.4375 -0.66,0 -1.32,0 -2,0 0,-0.66 0,-1.32 0,-2 -0.89912,-0.38865 -0.89912,-0.38865 -1.81641,-0.78516 -2.35153,-1.30828 -3.48274,-2.542 -5.12109,-4.65234 -2.41419,-2.9534 -4.6849,-4.72895 -8.0625,-6.5625 -0.33,-0.66 -0.66,-1.32 -1,-2 -0.99,-0.33 -1.98,-0.66 -3,-1 -0.33,-0.66 -0.66,-1.32 -1,-2 -0.99,-0.33 -1.98,-0.66 -3,-1 0,-0.66 0,-1.32 0,-2 -0.57234,-0.28617 -1.14469,-0.57234 -1.73438,-0.86719 C 966.84375,935.42187 963.42187,933.71094 960,932 c 0,-0.66 0,-1.32 0,-2 -2.97,-0.99 -5.94,-1.98 -9,-3 0,-0.66 0,-1.32 0,-2 -1.19625,-0.26813 -2.3925,-0.53625 -3.625,-0.8125 -3.79143,-0.8498 -6.90963,-2.44836 -10.375,-4.1875 -37.4909,-14.60268 -78.7227,-13.26797 -115.50781,2.83203 -2.39373,1.12183 -4.75955,2.28487 -7.11719,3.48047 C 811,928 811,928 809,928 c 0,0.66 0,1.32 0,2 -1.65,0.33 -3.3,0.66 -5,1 0,0.66 0,1.32 0,2 -2.98269,1.52449 -5.8182,2.9394 -9,4 0,0.66 0,1.32 0,2 -0.99,0 -1.98,0 -3,0 0,0.66 0,1.32 0,2 -0.59812,0.26812 -1.19625,0.53625 -1.8125,0.8125 -2.21377,1.20176 -3.43853,2.39995 -5.1875,4.1875 -1.22039,1.09321 -2.45027,2.17589 -3.6875,3.25 -0.70125,0.61359 -1.4025,1.22719 -2.125,1.85937 -1.42586,1.23235 -2.86296,2.45185 -4.3125,3.65625 -3.89003,3.27117 -6.97489,6.44395 -9.79297,10.67579 -1.46074,2.1041 -3.2452,3.78101 -5.08203,5.55859 -1.35387,1.65003 -2.68678,3.31744 -4,5 -14,17.5 -14,17.5 -28,35 -1.02094,1.2994 -1.02094,1.2994 -2.0625,2.625 C 724,1016 724,1016 722.375,1017.5625 c -1.48434,1.4103 -1.48434,1.4103 -2.375,3.4375 -1.07898,2.158 -2.2338,3.3751 -4,5 -2.29893,2.1221 -2.97208,2.9163 -4,6 -0.99,0.66 -1.98,1.32 -3,2 -0.33,0.99 -0.66,1.98 -1,3 -0.97648,1.023 -1.98131,2.019 -3,3 -1.3492,1.6539 -2.68134,3.3217 -4,5 -8,10 -16,20 -24,30 -0.68063,0.8663 -1.36125,1.7325 -2.0625,2.625 C 673,1080 673,1080 671.375,1081.5625 c -1.48434,1.4103 -1.48434,1.4103 -2.375,3.4375 -1.07898,2.158 -2.2338,3.3751 -4,5 -2.29893,2.1221 -2.97208,2.9163 -4,6 -0.97648,1.023 -1.98131,2.019 -3,3 -1.3492,1.6539 -2.68134,3.3217 -4,5 -9.33333,11.6667 -18.66667,23.3333 -28,35 -0.68063,0.8663 -1.36125,1.7325 -2.0625,2.625 C 622,1144 622,1144 620.375,1145.5625 c -1.48434,1.4103 -1.48434,1.4103 -2.375,3.4375 -1.07898,2.158 -2.2338,3.3751 -4,5 -2.29893,2.1221 -2.97208,2.9163 -4,6 -0.99,0.66 -1.98,1.32 -3,2 -0.33,0.99 -0.66,1.98 -1,3 -0.97648,1.023 -1.98131,2.019 -3,3 -1.3492,1.6539 -2.68134,3.3217 -4,5 -8,10 -16,20 -24,30 -0.68062,0.8663 -1.36125,1.7325 -2.0625,2.625 C 571,1208 571,1208 569.375,1209.5625 c -1.50044,1.4271 -1.50044,1.4271 -2.4375,3.5625 C 566,1215 566,1215 564,1216 c -0.33,0.66 -0.66,1.32 -1,2 -1,2 -1,2 -3,3 -0.33,0.99 -0.66,1.98 -1,3 -0.99,0.66 -1.98,1.32 -3,2 -0.33,0.99 -0.66,1.98 -1,3 -0.97648,1.023 -1.98131,2.019 -3,3 -1.3492,1.6539 -2.68134,3.3217 -4,5 -8,10 -16,20 -24,30 -0.68062,0.8663 -1.36125,1.7325 -2.0625,2.625 C 520,1272 520,1272 518.375,1273.5625 c -1.48433,1.4103 -1.48433,1.4103 -2.375,3.4375 -1.07898,2.158 -2.2338,3.3751 -4,5 -2.29893,2.1221 -2.97208,2.9163 -4,6 -0.99,0.66 -1.98,1.32 -3,2 -0.33,0.99 -0.66,1.98 -1,3 -1.32,0.99 -2.64,1.98 -4,3 0,-262.68 0,-525.36 0,-796 z"
     fill="#2e3440"
     id="path3" />
  <path
     d="m 1306.75,674.5 c 1.4205,1.162 2.8375,2.32831 4.25,3.5 0.5698,0.4241 1.1395,0.8482 1.7266,1.28516 14.7895,11.46017 24.9784,30.84685 29.2734,48.71484 0.223,0.81598 0.446,1.63195 0.6758,2.47266 4.6629,20.01571 1.2972,42.24121 -7.6758,60.52734 -0.4525,0.93199 -0.9049,1.86398 -1.3711,2.82422 -3.4644,6.73158 -7.7627,12.40331 -12.6289,18.17578 -0.6355,0.83016 -1.271,1.66031 -1.9258,2.51562 C 1304.9793,831.39767 1281.4334,841.45479 1260,844 c -27.195,1.58227 -50.9924,-5.29054 -72,-23 -0.8302,-0.63551 -1.6603,-1.27102 -2.5156,-1.92578 C 1168.8535,805.189 1158.7385,782.15877 1156,761 c -1.1493,-18.33903 0.8414,-35.37351 9,-52 0.4525,-0.93199 0.9049,-1.86398 1.3711,-2.82422 3.4658,-6.73432 7.7399,-12.4159 12.6289,-18.17578 0.4924,-0.62648 0.9848,-1.25297 1.4922,-1.89844 29.7555,-37.15233 89.9899,-39.46217 126.2578,-11.60156 z"
     fill="#d0cabe"
     id="path4" />
  <g
     id="Folder 1"
     transform="matrix(154.51273,0,0,154.51273,-841.28233,-468.76129)">
    <path
       id="Shape 1"
       fill-rule="evenodd"
       class="s1"
       d="M 16.8,12.8 15.6,14.2 7,6.3 8.3,5 Z"
       style="fill:#bf616a" />
  </g>
</svg>
