<?xml version="1.0" encoding="UTF-8"?>
<svg version="1.1" xmlns="http://www.w3.org/2000/svg" width="2000" height="2000">
<path d="M0 0 C1.86844405 -0.00702048 3.73688785 -0.01410731 5.60533142 -0.02125549 C11.54157863 -0.04065474 17.47778679 -0.04568922 23.4140625 -0.046875 C24.93004343 -0.04753778 24.93004343 -0.04753778 26.47665024 -0.04821396 C55.24005734 -0.05481217 83.88635103 0.00131658 112.52850342 2.94665527 C115.20581564 3.2201599 117.8842138 3.48048449 120.56298828 3.73925781 C159.05470961 7.49219141 197.19671172 13.22219141 235.0390625 21.203125 C235.79153259 21.36127686 236.54400269 21.51942871 237.3192749 21.68237305 C317.08997149 38.51824999 394.49783811 66.14717892 510.0390625 124.203125 C511.66279785 125.11167236 511.66279785 125.11167236 513.31933594 126.03857422 C553.21432644 148.41690669 591.62578595 173.50702468 628.0390625 201.203125 C628.60044922 201.62803223 629.16183594 202.05293945 629.74023438 202.49072266 C638.38953807 209.04000033 646.82065575 215.83869555 655.21435547 222.71044922 C656.82129946 224.02498702 658.43185441 225.33510802 660.04296875 226.64453125 C670.10802639 234.83429431 680.00666943 243.16961165 689.56640625 251.9453125 C691.65774189 253.85493651 693.77165114 255.72643752 695.9140625 257.578125 C704.50596386 265.06082598 712.7695794 272.86161631 720.7734375 280.96875 C722.82269814 282.98974497 724.91831539 284.89181449 727.1015625 286.765625 C732.90513582 291.75014563 738.32476381 297.13079937 743.2890625 302.953125 C746.52247954 306.73048135 750.00629789 310.20967969 753.5390625 313.703125 C757.59999859 317.72353165 761.54199461 321.76536679 765.2421875 326.125 C767.10920726 328.28424894 769.03854156 330.37909188 770.98046875 332.47094727 C775.81813258 337.68346413 780.4070231 343.02283312 784.8671875 348.56640625 C786.97662599 351.12732528 789.16793898 353.57435955 791.4140625 356.015625 C795.93559762 360.98382823 800.05058456 366.21116077 804.1640625 371.515625 C806.52918883 374.56386683 808.94315042 377.56863236 811.37353516 380.56494141 C818.31220475 389.13569978 824.86520932 397.96702207 831.34814453 406.88574219 C832.87795867 408.98233414 834.42203648 411.06721751 835.97265625 413.1484375 C852.82546137 435.9241795 868.55159356 459.86020282 883.0390625 484.203125 C883.86809082 485.59168701 883.86809082 485.59168701 884.71386719 487.00830078 C893.55353134 501.86159289 901.94128235 516.93405664 910.0390625 532.203125 C910.59029785 533.23711426 911.1415332 534.27110352 911.70947266 535.33642578 C934.63101786 578.43580656 953.86213528 623.15904655 970.0390625 669.203125 C970.30354187 669.95531311 970.56802124 670.70750122 970.84051514 671.48248291 C997.03029794 746.17575154 1013.58027907 823.9637316 1021.3515625 902.703125 C1021.46487411 903.83883942 1021.46487411 903.83883942 1021.58047485 904.99749756 C1022.14196194 910.72732725 1022.60553599 916.4623151 1023.0390625 922.203125 C1023.12519806 923.31022827 1023.21133362 924.41733154 1023.30007935 925.5579834 C1025.09136136 949.20567552 1025.40248589 972.79461147 1025.35712051 996.50296402 C1025.35147915 999.49736841 1025.34865939 1002.49176713 1025.34603882 1005.48617554 C1025.31107264 1032.9651695 1025.10910103 1060.33181905 1022.29553223 1087.69256592 C1022.0220276 1090.36987814 1021.76170301 1093.0482763 1021.50292969 1095.72705078 C1014.50743533 1167.47148605 1000.60885258 1238.67712651 978.0390625 1307.203125 C977.63624054 1308.42905365 977.63624054 1308.42905365 977.22528076 1309.67974854 C969.83670277 1332.12558282 962.05476625 1354.35302762 953.0390625 1376.203125 C952.59498047 1377.28513184 952.15089844 1378.36713867 951.69335938 1379.48193359 C944.91840243 1395.92948195 937.6229529 1412.11430326 930.0390625 1428.203125 C929.54792969 1429.24855469 929.05679687 1430.29398438 928.55078125 1431.37109375 C917.65784767 1454.50779964 905.95340762 1477.12952256 893.0390625 1499.203125 C892.52907715 1500.08000977 892.0190918 1500.95689453 891.49365234 1501.86035156 C878.49752982 1524.19376922 864.80911764 1545.9986726 850.0390625 1567.203125 C849.24870605 1568.34104492 849.24870605 1568.34104492 848.44238281 1569.50195312 C829.40710755 1596.86286901 809.0741465 1623.25255192 787.41601562 1648.58789062 C785.99784904 1650.25147043 784.58830933 1651.92208376 783.1796875 1653.59375 C777.26862066 1660.58241652 771.17561489 1667.35835365 764.89697266 1674.01904297 C762.06187426 1677.02754187 759.26895747 1680.04328788 756.6015625 1683.203125 C752.51814713 1687.96536901 747.9752102 1692.2928875 743.51904297 1696.70166016 C740.29660268 1699.90162763 737.15281267 1703.10014747 734.2265625 1706.578125 C731.11366061 1710.25558341 727.59839399 1713.33425557 723.984375 1716.51171875 C720.34332449 1719.83888559 716.88213561 1723.32237871 713.4140625 1726.828125 C709.07913972 1731.20153766 704.75565647 1735.5016171 700.046875 1739.4765625 C697.90904155 1741.3149329 695.84169656 1743.22181828 693.77563477 1745.14013672 C688.56211666 1749.9797934 683.22096657 1754.56978849 677.67578125 1759.03125 C675.11486222 1761.14068849 672.66782795 1763.33200148 670.2265625 1765.578125 C665.85205424 1769.55996087 661.29377175 1773.22054583 656.62255859 1776.84204102 C652.80591682 1779.80357984 649.04694533 1782.82272329 645.31933594 1785.89550781 C636.56617988 1793.10220057 627.53265329 1799.86669378 618.35351562 1806.51953125 C616.22383957 1808.06871332 614.10622049 1809.63270049 611.9921875 1811.203125 C574.44146939 1838.93386617 534.24397236 1863.34566586 493.0390625 1885.203125 C492.45487549 1885.51336609 491.87068848 1885.82360718 491.26879883 1886.14324951 C470.2131556 1897.31277611 448.8740131 1907.64679866 427.0390625 1917.203125 C425.86730469 1917.71601074 424.69554687 1918.22889648 423.48828125 1918.75732422 C338.20377955 1955.85411511 248.17088845 1980.2860089 122.6015625 1996.515625 C121.47293289 1996.62880066 121.47293289 1996.62880066 120.32150269 1996.7442627 C114.56639056 1997.31144746 108.80608198 1997.77518446 103.0390625 1998.203125 C101.89717468 1998.2895929 100.75528687 1998.37606079 99.57879639 1998.46514893 C76.62965982 2000.15073737 53.74984014 2000.51946237 30.74414062 2000.46386719 C25.99181496 2000.45247365 21.23971336 2000.45926769 16.48739529 2000.47073746 C-14.84439577 2000.53502479 -45.85064516 1999.24438932 -77.0234375 1995.953125 C-78.04656036 1995.84674713 -79.06968323 1995.74036926 -80.12380981 1995.63076782 C-165.15169401 1986.73880833 -249.17315741 1967.21004201 -471.47314453 1869.66992188 C-474.12908728 1868.10398428 -476.79275688 1866.55171512 -479.45703125 1865 C-506.75721866 1849.0472237 -533.35725267 1831.76534005 -558.9609375 1813.203125 C-559.70714355 1812.66268555 -560.45334961 1812.12224609 -561.22216797 1811.56542969 C-582.57281182 1796.05937549 -603.27894597 1779.73380114 -623.33691406 1762.58886719 C-625.02807971 1761.14583408 -626.72468369 1759.70937683 -628.421875 1758.2734375 C-635.92109783 1751.91071194 -643.21092318 1745.3620999 -650.39941406 1738.65136719 C-651.91777873 1737.2431528 -653.44795684 1735.84941169 -654.984375 1734.4609375 C-660.95974205 1729.05535112 -666.7230831 1723.49217286 -672.38452148 1717.75805664 C-675.17370216 1714.94532793 -677.98217243 1712.24695748 -681.0234375 1709.703125 C-685.11050466 1706.23297364 -688.6505186 1702.28529496 -692.24707031 1698.32348633 C-695.81907301 1694.40068198 -699.49611477 1690.61558408 -703.2734375 1686.890625 C-707.02901418 1683.1779692 -710.64020411 1679.40609694 -714.0625 1675.3828125 C-716.08063295 1673.06569689 -718.16397535 1670.82146119 -720.26147461 1668.57641602 C-725.23802695 1663.24797844 -729.99247279 1657.8257917 -734.55859375 1652.13671875 C-737.41055325 1648.65408203 -740.36935875 1645.27551207 -743.3359375 1641.890625 C-748.94620072 1635.46233352 -754.27562181 1628.86430837 -759.48486328 1622.10888672 C-761.07965229 1620.04985215 -762.68906041 1618.0028361 -764.30078125 1615.95703125 C-771.83676008 1606.37046022 -779.1157265 1596.630526 -786.18408203 1586.69433594 C-787.51816314 1584.8239095 -788.8587854 1582.95814575 -790.20263672 1581.09472656 C-796.51325876 1572.33403516 -802.60365151 1563.44080443 -808.5859375 1554.453125 C-809.29910126 1553.38247299 -809.29910126 1553.38247299 -810.02667236 1552.29019165 C-856.11518986 1482.99986096 -893.56714351 1407.87122178 -921.9609375 1325.203125 C-922.3312207 1324.11384705 -922.3312207 1324.11384705 -922.70898438 1323.00256348 C-931.07960316 1298.31210827 -938.58049216 1273.48177162 -944.9609375 1248.203125 C-945.15409546 1247.44038269 -945.34725342 1246.67764038 -945.54626465 1245.89178467 C-957.84912575 1197.189433 -966.34955089 1147.69598421 -971.2734375 1097.703125 C-971.38661316 1096.56809036 -971.38661316 1096.56809036 -971.5020752 1095.41012573 C-972.06364787 1089.67983244 -972.52737558 1083.94440391 -972.9609375 1078.203125 C-973.04707306 1077.09602173 -973.13320862 1075.98891846 -973.22195435 1074.8482666 C-975.01323636 1051.20057448 -975.32436089 1027.61163853 -975.27899551 1003.90328598 C-975.27335415 1000.90888159 -975.27053439 997.91448287 -975.26791382 994.92007446 C-975.23293768 967.43325356 -975.02351783 940.063028 -972.21417236 912.6942749 C-971.94595526 910.0557401 -971.69235576 907.41606325 -971.44091797 904.77587891 C-962.66790898 813.48277794 -942.02239935 723.16707404 -887.9609375 589.203125 C-887.45208008 588.08389648 -886.94322266 586.96466797 -886.41894531 585.81152344 C-875.46761109 561.79847629 -863.7999136 538.26246701 -850.9609375 515.203125 C-850.45481934 514.28740723 -849.94870117 513.37168945 -849.42724609 512.42822266 C-837.13861161 490.21102257 -823.78345853 468.76133543 -809.7109375 447.640625 C-808.96751602 446.52392929 -808.96751602 446.52392929 -808.20907593 445.38467407 C-797.26530255 428.97162318 -785.90349929 412.90453423 -773.9609375 397.203125 C-773.53603027 396.64173828 -773.11112305 396.08035156 -772.67333984 395.50195312 C-766.61368575 387.49927082 -760.33966014 379.68953173 -753.98828125 371.91796875 C-751.59803868 368.99214704 -749.24015777 366.04300576 -746.8984375 363.078125 C-739.35265737 353.62604252 -731.35665393 344.55198063 -723.18359375 335.640625 C-721.28671986 333.56039775 -719.42700807 331.45755602 -717.5859375 329.328125 C-710.10200978 320.73481506 -702.29978404 312.47009432 -694.19140625 304.46484375 C-692.19180006 302.43722206 -690.31238481 300.36530472 -688.4609375 298.203125 C-682.55152979 291.32040308 -676.04733531 285.0664041 -669.15625 279.1796875 C-666.31715566 276.62349224 -663.64514485 273.92022908 -660.9609375 271.203125 C-657.11941487 267.31939437 -653.23720963 263.57757706 -649.07421875 260.03515625 C-646.90417422 258.15391617 -644.79567399 256.21325287 -642.69091797 254.25952148 C-637.47890067 249.42285523 -632.14042336 244.83451591 -626.59765625 240.375 C-624.03673722 238.26556151 -621.58970295 236.07424852 -619.1484375 233.828125 C-614.18376192 229.30980038 -608.96006353 225.19750564 -603.66015625 221.0859375 C-600.56057571 218.68070891 -597.49918147 216.23177903 -594.44677734 213.76708984 C-586.76193871 207.56638693 -578.94270529 201.56903157 -570.99707031 195.70654297 C-569.67381697 194.72949332 -568.35272424 193.74950827 -567.03417969 192.76611328 C-495.09562324 139.16805639 -414.21192599 95.41617961 -321.94952393 60.93695068 C-320.01929797 60.22466111 -318.09118257 59.50693674 -316.16357422 58.78759766 C-233.08118122 27.91216219 -145.90377559 10.40692687 -49.47265625 2 C-48.69162033 1.933573 -47.91058441 1.867146 -47.10588074 1.79870605 C-31.41208766 0.52876309 -15.74056987 0.03674714 0 0 Z " fill="#2E343F" transform="translate(974.9609375,-0.203125)"/>
<path d="M0 0 C1.08258319 -0.00266251 1.08258319 -0.00266251 2.18703675 -0.00537882 C4.60490823 -0.01010896 7.0227198 -0.0077482 9.44059402 -0.00541991 C11.19929138 -0.00737357 12.95798831 -0.0097627 14.71668455 -0.01254788 C19.56727848 -0.01894921 24.41785586 -0.0191094 29.26845321 -0.01827047 C34.53904236 -0.01843995 39.80962557 -0.0243458 45.08021176 -0.02951133 C55.54194304 -0.03884133 66.0036701 -0.04276006 76.46540502 -0.0450303 C88.9934485 -0.04799134 101.52148637 -0.0566882 114.0495269 -0.06544458 C144.33287896 -0.08629437 174.6162313 -0.09676324 204.89958877 -0.10557419 C214.92975948 -0.10850869 224.95992998 -0.11187866 234.99010044 -0.1155414 C236.05169169 -0.11592884 236.05169169 -0.11592884 237.13472923 -0.1163241 C239.99804616 -0.11737034 242.86136309 -0.11841877 245.72468002 -0.11946992 C294.70591842 -0.13743527 343.68715716 -0.15281324 392.66839839 -0.16022895 C396.51554161 -0.16081292 400.36268482 -0.16141019 404.20982804 -0.16200657 C404.97297142 -0.16212469 405.7361148 -0.16224281 406.52238374 -0.16236451 C414.25396803 -0.16356188 421.98555232 -0.16477064 429.7171366 -0.16599704 C431.26732981 -0.16624227 432.81752303 -0.16648613 434.36771624 -0.16672861 C484.13966193 -0.17451604 533.91158402 -0.196894 583.6835194 -0.22940504 C619.44728834 -0.25275806 655.21105258 -0.274306 690.97482902 -0.28141135 C692.0786357 -0.28163188 692.0786357 -0.28163188 693.20474152 -0.28185687 C709.36098801 -0.28504207 725.51723446 -0.2870927 741.67348123 -0.28808442 C748.17458466 -0.28849914 754.67568807 -0.28905403 761.17679149 -0.28964633 C761.88828095 -0.289707 762.59977041 -0.28976766 763.33282016 -0.28983017 C786.23005511 -0.2918443 809.12726216 -0.30606907 832.02448738 -0.32659133 C855.73989841 -0.34777146 879.45526212 -0.35451618 903.17068353 -0.34471754 C916.83719908 -0.3395024 930.50360396 -0.34538084 944.17010359 -0.36725221 C953.30509536 -0.38076593 962.440011 -0.37967817 971.57500355 -0.36685025 C976.77602981 -0.35995755 981.97684456 -0.35927071 987.17785188 -0.37641034 C991.9205454 -0.3919117 996.66285909 -0.38859083 1001.40554193 -0.37100006 C1003.09989212 -0.36788088 1004.7942721 -0.37128977 1006.48858813 -0.38249181 C1036.85476237 -0.56998825 1065.34642151 9.46137262 1088.54923373 29.12880117 C1089.05793002 29.55386953 1089.56662631 29.97893789 1090.09073764 30.4168871 C1113.70876421 50.31441947 1128.72285808 79.55676934 1132.54923373 110.12880117 C1132.63716853 112.61120401 1132.67660052 115.09560802 1132.6780349 117.57956743 C1132.67980991 118.30128956 1132.68158492 119.02301169 1132.68341372 119.76660419 C1132.68814386 122.18447566 1132.6857831 124.60228723 1132.68345481 127.02016145 C1132.68540848 128.77885881 1132.6877976 130.53755574 1132.69058278 132.29625198 C1132.69698411 137.14684592 1132.6971443 141.99742329 1132.69630537 146.84802064 C1132.69647485 152.11860979 1132.7023807 157.389193 1132.70754623 162.65977919 C1132.71687623 173.12151048 1132.72079496 183.58323753 1132.7230652 194.04497245 C1132.72602625 206.57301594 1132.7347231 219.1010538 1132.74347948 231.62909434 C1132.76432928 261.91244639 1132.77479814 292.19579874 1132.78360909 322.4791562 C1132.78654359 332.50932691 1132.78991356 342.53949741 1132.7935763 352.56966788 C1132.79383459 353.27739538 1132.79409288 353.98512288 1132.794359 354.71429666 C1132.79540525 357.5776136 1132.79645367 360.44093053 1132.79750482 363.30424746 C1132.81547018 412.28548585 1132.83084814 461.2667246 1132.83826385 510.24796582 C1132.83884782 514.09510904 1132.83944509 517.94225225 1132.84004147 521.78939547 C1132.84015959 522.55253885 1132.84027771 523.31568223 1132.84039941 524.10195117 C1132.84159678 531.83353546 1132.84280554 539.56511975 1132.84403194 547.29670404 C1132.84427718 548.84689725 1132.84452103 550.39709046 1132.84476351 551.94728367 C1132.85255094 601.71922936 1132.8749289 651.49115145 1132.90743994 701.26308683 C1132.93079297 737.02685577 1132.9523409 772.79062002 1132.95944625 808.55439645 C1132.95959327 809.29026757 1132.95974029 810.0261387 1132.95989177 810.78430895 C1132.96307697 826.94055544 1132.9651276 843.09680189 1132.96611932 859.25304866 C1132.96653404 865.75415209 1132.96708894 872.25525551 1132.96768123 878.75635892 C1132.96777223 879.82359311 1132.96777223 879.82359311 1132.96786507 880.91238759 C1132.9698792 903.80962254 1132.98410397 926.70682959 1133.00462623 949.60405482 C1133.02580636 973.31946585 1133.03255108 997.03482955 1133.02275244 1020.75025096 C1133.0175373 1034.41676652 1133.02341574 1048.08317139 1133.04528711 1061.74967102 C1133.05880083 1070.8846628 1133.05771307 1080.01957844 1133.04488516 1089.15457098 C1133.03799246 1094.35559725 1133.03730561 1099.55641199 1133.05444524 1104.75741931 C1133.0699466 1109.50011283 1133.06662573 1114.24242653 1133.04903496 1118.98510936 C1133.04591578 1120.67945955 1133.04932467 1122.37383953 1133.06052671 1124.06815556 C1133.24815391 1154.45550792 1123.20133106 1182.89817322 1103.54923373 1206.12880117 C1102.73067905 1207.12266835 1101.91212436 1208.11653554 1101.06876498 1209.14051992 C1086.80139466 1225.65268073 1067.94483693 1237.52666826 1047.36173373 1244.56630117 C1046.71083774 1244.78922841 1046.05994174 1245.01215566 1045.38932163 1245.24183828 C1031.86436379 1249.50569428 1018.59606645 1250.57003869 1004.53926975 1250.50632459 C1002.76887022 1250.50946114 1000.99847262 1250.51391016 999.22807926 1250.51953769 C994.38692918 1250.53115616 989.54596001 1250.52426376 984.70481308 1250.51420383 C979.42892974 1250.50656526 974.15307324 1250.51638472 968.87719375 1250.52393383 C959.6383137 1250.53475214 950.39948627 1250.5344505 941.16060382 1250.52679235 C927.42195938 1250.51543533 913.68335926 1250.52125111 899.94471511 1250.53041727 C876.82806744 1250.54529457 853.71144575 1250.54585554 830.59479648 1250.53768712 C829.89152124 1250.53743874 829.18824599 1250.53719035 828.46365938 1250.53693444 C827.40704829 1250.53656125 827.40704829 1250.53656125 826.32909152 1250.53618053 C804.85497424 1250.52860616 783.3808655 1250.52665904 761.90674716 1250.53024846 C760.46784277 1250.5304809 759.02893837 1250.53071237 757.59003397 1250.53094287 C751.80743912 1250.5318743 746.02484428 1250.5328303 740.24224944 1250.53382216 C724.0782558 1250.53657297 707.91426213 1250.53828493 691.75026828 1250.53918058 C690.64623221 1250.53924198 690.64623221 1250.53924198 689.51989237 1250.53930463 C666.07264536 1250.54053217 642.62540132 1250.53715332 619.17815524 1250.53063184 C618.03769091 1250.53031572 618.03769091 1250.53031572 616.87418688 1250.52999321 C604.52783636 1250.52655851 592.18148589 1250.52290006 579.83513544 1250.51922269 C530.87036048 1250.50465407 481.90561014 1250.50533027 432.9408353 1250.51991445 C420.60066097 1250.52357812 408.26048663 1250.52721132 395.92031223 1250.53063184 C395.16044686 1250.53084318 394.4005815 1250.53105453 393.61768992 1250.53127228 C370.19452595 1250.53774238 346.77136403 1250.54048336 323.34819919 1250.53918058 C322.2449774 1250.53911945 322.2449774 1250.53911945 321.11946831 1250.53905708 C304.97332788 1250.53811958 288.82718767 1250.53621854 272.68104745 1250.53344907 C266.90367236 1250.53246168 261.12629725 1250.53152243 255.34892215 1250.53059693 C253.91170758 1250.53036477 252.47449302 1250.53012858 251.03727846 1250.52988835 C229.56978473 1250.5263099 208.10230062 1250.52935236 186.63480809 1250.53693444 C185.93153285 1250.53718282 185.2282576 1250.53743121 184.50367099 1250.53768712 C183.4507106 1250.53805919 183.4507106 1250.53805919 182.37647829 1250.53843878 C158.68369436 1250.54671923 134.99094143 1250.54365226 111.29815966 1250.52784489 C97.64188799 1250.5190342 83.98567501 1250.51846367 70.32940486 1250.52978341 C61.20665829 1250.53651125 52.08395876 1250.53232258 42.96121917 1250.51926911 C37.7640973 1250.51213534 32.56709202 1250.50968741 27.36997384 1250.52048706 C22.63563543 1250.53022461 17.90151633 1250.52599401 13.1671937 1250.51094507 C11.47138716 1250.50794068 9.77556218 1250.50987651 8.0797704 1250.51756289 C-5.76380339 1250.57582351 -19.07197832 1249.08156059 -32.26326627 1244.56630117 C-32.99698453 1244.31654531 -33.73070279 1244.06678945 -34.48665494 1243.80946523 C-48.90200705 1238.65513431 -61.8188 1231.02631556 -73.45076627 1221.12880117 C-74.34150845 1220.38887929 -75.23225064 1219.64895742 -76.14998502 1218.88661367 C-82.3542987 1213.54691338 -87.49399099 1207.6293376 -92.45076627 1201.12880117 C-93.04502408 1200.36180898 -93.63928189 1199.59481679 -94.25154752 1198.80458242 C-101.80880097 1188.5718875 -107.73941803 1177.1003006 -111.82576627 1165.06630117 C-112.0520773 1164.40823476 -112.27838834 1163.75016835 -112.51155728 1163.07216054 C-116.82731356 1149.52363538 -117.89249246 1136.22208425 -117.831083 1122.13001043 C-117.83452369 1120.36082117 -117.83927529 1118.59163408 -117.84520397 1116.82245141 C-117.85764751 1111.98463725 -117.85159356 1107.14700071 -117.84237029 1102.30918596 C-117.8356372 1097.03685526 -117.84633827 1091.76455429 -117.85476613 1086.49223 C-117.86712156 1077.25947297 -117.86835031 1068.02676676 -117.8622157 1058.79400426 C-117.85311753 1045.06424627 -117.86116241 1031.33453522 -117.87250694 1017.60478083 C-117.89274133 992.36880752 -117.89423582 967.13286295 -117.88885632 941.89688464 C-117.88810056 938.32397787 -117.88737294 934.75107109 -117.88667434 931.1781643 C-117.88653525 930.46844756 -117.88639616 929.75873082 -117.88625286 929.02750752 C-117.88329776 913.28354563 -117.88631613 897.53958657 -117.89057063 881.7956252 C-117.89115279 879.639455 -117.89172164 877.48328479 -117.89228627 875.32711458 C-117.89380128 869.54680469 -117.8953282 863.76649479 -117.89687927 857.98618491 C-117.90763256 817.64577981 -117.91234142 777.30537732 -117.90440911 736.96497136 C-117.90418665 735.82488167 -117.90418665 735.82488167 -117.9039597 734.66175987 C-117.90230077 726.18671884 -117.90055119 717.71167784 -117.89876669 709.23663685 C-117.89860566 708.47149834 -117.89844464 707.70635984 -117.89827874 706.91803532 C-117.89697124 700.70970079 -117.89697124 700.70970079 -117.89631755 697.63522189 C-117.88592695 648.69752118 -117.89369223 599.75985644 -117.917319 550.82216054 C-117.92326265 538.49090883 -117.92915432 526.15965709 -117.93472832 513.8284052 C-117.93507209 513.06906954 -117.93541587 512.30973388 -117.93577005 511.52738806 C-117.94630145 488.11570043 -117.95189156 464.7040158 -117.95228547 441.29232579 C-117.95229825 440.55705874 -117.95231103 439.8217917 -117.9523242 439.06424383 C-117.95255252 422.92170202 -117.95154616 406.77916047 -117.94941515 390.63661881 C-117.94866042 384.86027303 -117.94798221 379.08392724 -117.947335 373.30758144 C-117.94717231 371.87064097 -117.94700464 370.43370051 -117.94683198 368.99676004 C-117.94411367 346.12488936 -117.95265278 323.25304054 -117.96668609 300.38117455 C-117.98111062 276.69801008 -117.9806195 253.0148981 -117.96331137 229.3317326 C-117.95374863 215.68517134 -117.95518281 202.03871661 -117.97254606 188.39216246 C-117.98303987 179.27078323 -117.97892897 170.1494851 -117.96306602 161.02811385 C-117.95443966 155.83502743 -117.9519964 150.64214966 -117.96733534 145.449074 C-117.98118994 140.71368706 -117.97624596 135.97868594 -117.95705015 131.24332103 C-117.95335084 129.55164124 -117.95616707 127.85992947 -117.96676323 126.16827881 C-118.14363422 95.81031735 -108.11292066 67.32539118 -88.45076627 44.12880117 C-87.81316373 43.36575673 -87.81316373 43.36575673 -87.16268033 42.58729726 C-66.28693791 17.80815229 -32.78518787 0.018932 0 0 Z " fill="#D0CABE" transform="translate(492.4507662653923,374.87119883298874)"/>
<path d="M0 0 C330 0 660 0 1000 0 C1000 243.54 1000 487.08 1000 738 C998 735 998 735 998 733 C997.34 733 996.68 733 996 733 C996 732.01 996 731.02 996 730 C995.34 730 994.68 730 994 730 C994 729.01 994 728.02 994 727 C993.34 727 992.68 727 992 727 C992 726.01 992 725.02 992 724 C991.34 724 990.68 724 990 724 C989.46890625 722.86304688 988.9378125 721.72609375 988.390625 720.5546875 C985.97589073 715.72308957 982.9373441 711.47137832 979.75 707.125 C978.6572236 705.63069181 977.56845789 704.13343955 976.484375 702.6328125 C976.00709961 701.98199707 975.52982422 701.33118164 975.03808594 700.66064453 C974 699 974 699 974 697 C973.34 697 972.68 697 972 697 C972 696.01 972 695.02 972 694 C971.34 694 970.68 694 970 694 C967 689.61538462 967 689.61538462 967 687 C966.34 687 965.68 687 965 687 C965 686.01 965 685.02 965 684 C964.34 684 963.68 684 963 684 C962.67 682.68 962.34 681.36 962 680 C961.34 680 960.68 680 960 680 C957 675.61538462 957 675.61538462 957 673 C956.34 673 955.68 673 955 673 C954.67 671.68 954.34 670.36 954 669 C953.34 669 952.68 669 952 669 C950.78125 667.28515625 950.78125 667.28515625 949.5 665.0625 C947.81545121 661.94567974 947.81545121 661.94567974 945 660 C944.67 659.01 944.34 658.02 944 657 C942.66710346 655.49985609 942.66710346 655.49985609 941 654 C938.28449449 651.44907058 936.61230011 649.3320869 935 646 C934.01152624 644.98860511 933.00950054 643.99040833 932 643 C930.86635268 641.71591607 929.74182022 640.42374569 928.625 639.125 C925.86205945 635.95166451 923.01419446 632.9388396 920 630 C918.81115287 628.81384866 917.62374005 627.62625861 916.4375 626.4375 C915.84066406 625.84195313 915.24382813 625.24640625 914.62890625 624.6328125 C913.36800072 623.36888322 912.11899175 622.09307975 910.875 620.8125 C908.15873447 618.18677665 905.39240291 615.69620146 902 614 C902 613.34 902 612.68 902 612 C901.01 612 900.02 612 899 612 C899 611.34 899 610.68 899 610 C898.01 610 897.02 610 896 610 C896 609.34 896 608.68 896 608 C895.443125 607.82984375 894.88625 607.6596875 894.3125 607.484375 C890.32055326 606.21666219 886.53850521 604.86176188 882.8125 602.9375 C866.71109652 594.63422723 847.11074542 595.11038975 830.09619141 600.27587891 C825.1725583 601.97672864 820.5169636 604.25442223 815.87890625 606.609375 C813 608 813 608 811 608 C811 608.66 811 609.32 811 610 C810.01 610 809.02 610 808 610 C808 610.66 808 611.32 808 612 C806.27473958 612.94401042 804.54947917 613.88802083 802.82421875 614.83203125 C800.92188753 616.05001205 799.56095132 617.37400904 798 619 C796.77776767 620.07046956 795.54803303 621.13240992 794.3125 622.1875 C790.66286537 625.35498107 787.26779463 628.71040037 783.87890625 632.15234375 C782.24467292 633.75939648 780.58693422 635.23981582 778.8125 636.6875 C776.00809166 638.91706045 776.00809166 638.91706045 773.6875 641.3125 C771.34214928 643.65785072 768.93687124 645.82326001 766.4375 648 C764.02634022 650.11817813 761.97808404 652.02807982 760 654.5625 C758.00773353 656.99057476 756.06370269 658.55646415 753.5625 660.4375 C750.77903077 662.53302236 748.75141462 664.29830246 746.5 667 C743.71307775 670.3443067 740.69600673 672.65297261 737.18359375 675.19140625 C734.889961 676.96559768 734.889961 676.96559768 733.03515625 679.46484375 C730.26715699 682.91288889 726.94703343 685.28395033 723.4375 687.9375 C720.92510481 689.92911706 720.92510481 689.92911706 719 692.5 C716.25013497 695.93733128 712.93118756 698.29593136 709.4375 700.9375 C706.89931291 703.08519677 705.02889115 705.37613866 703 708 C698.45945946 712 698.45945946 712 696 712 C694.62926214 710.36395804 693.29944744 708.69321939 692 707 C691.1646875 706.195625 691.1646875 706.195625 690.3125 705.375 C689 704 689 704 688 701 C687.02351983 699.97702078 686.01868662 698.98095748 685 698 C683.66666667 696.33333333 682.33333333 694.66666667 681 693 C680.2265625 692.2575 680.2265625 692.2575 679.4375 691.5 C678 690 678 690 676.625 687.6875 C674.70041116 684.50452615 672.41430601 681.8265046 670 679 C668.66172696 677.33729713 667.32810215 675.67083819 666 674 C665.34 673.195625 664.68 672.39125 664 671.5625 C662 669 662 669 659.9375 665.875 C658.37284221 663.55324973 656.9893681 661.90647776 655 660 C653.65080468 658.34614767 652.31866272 656.678298 651 655 C650.34 654.195625 649.68 653.39125 649 652.5625 C647 650 647 650 644.9375 646.875 C643.37284221 644.55324973 641.9893681 642.90647776 640 641 C638.65080468 639.34614767 637.31866272 637.678298 636 636 C635.34 635.195625 634.68 634.39125 634 633.5625 C632 631 632 631 629.9375 627.875 C628.37284221 625.55324973 626.9893681 623.90647776 625 622 C622.94665394 619.48299516 620.94434785 616.92917 618.9375 614.375 C617.12115484 612.05179398 617.12115484 612.05179398 615.3125 610.375 C614 609 614 609 613 606 C612.01 605.34 611.02 604.68 610 604 C609.67 603.01 609.34 602.02 609 601 C608.02351983 599.97702078 607.01868662 598.98095748 606 598 C603.79974978 595.37389489 601.82605792 592.73645139 599.9375 589.875 C598.37284221 587.55324973 596.9893681 585.90647776 595 584 C592.94665394 581.48299516 590.94434785 578.92917 588.9375 576.375 C587.12115484 574.05179398 587.12115484 574.05179398 585.3125 572.375 C584 571 584 571 583 568 C582.02351983 566.97702078 581.01868662 565.98095748 580 565 C577.94665394 562.48299516 575.94434785 559.92917 573.9375 557.375 C572.12115484 555.05179398 572.12115484 555.05179398 570.3125 553.375 C569 552 569 552 568 549 C567.02351983 547.97702078 566.01868662 546.98095748 565 546 C562.94665394 543.48299516 560.94434785 540.92917 558.9375 538.375 C557.12115484 536.05179398 557.12115484 536.05179398 555.3125 534.375 C554 533 554 533 553 530 C552.02351983 528.97702078 551.01868662 527.98095748 550 527 C547.94665394 524.48299516 545.94434785 521.92917 543.9375 519.375 C542.12115484 517.05179398 542.12115484 517.05179398 540.3125 515.375 C539 514 539 514 538 511 C537.02351983 509.97702078 536.01868662 508.98095748 535 508 C532.94665394 505.48299516 530.94434785 502.92917 528.9375 500.375 C527.12115484 498.05179398 527.12115484 498.05179398 525.3125 496.375 C524 495 524 495 523 492 C522.02351983 490.97702078 521.01868662 489.98095748 520 489 C518.65080468 487.34614767 517.31866272 485.678298 516 484 C515.34 483.175 514.68 482.35 514 481.5 C508 474 508 474 506.0625 471.5 C503.99744342 468.90570772 503.99744342 468.90570772 501.375 466.4375 C499.29018101 464.29781736 498.11188358 462.72916878 497 460 C496.34 460 495.68 460 495 460 C495 459.34 495 458.68 495 458 C494.10087891 457.61134766 494.10087891 457.61134766 493.18359375 457.21484375 C490.83205698 455.9065648 489.70084658 454.67283562 488.0625 452.5625 C485.64830939 449.60909931 483.37760026 447.83355443 480 446 C479.67 445.34 479.34 444.68 479 444 C478.01 443.67 477.02 443.34 476 443 C475.67 442.34 475.34 441.68 475 441 C474.01 440.67 473.02 440.34 472 440 C472 439.34 472 438.68 472 438 C471.42765625 437.71382812 470.8553125 437.42765625 470.265625 437.1328125 C466.84375 435.421875 463.421875 433.7109375 460 432 C460 431.34 460 430.68 460 430 C457.03 429.01 454.06 428.02 451 427 C451 426.34 451 425.68 451 425 C449.80375 424.731875 448.6075 424.46375 447.375 424.1875 C443.5835659 423.33769581 440.46537239 421.73914341 437 420 C399.50909547 405.39731557 358.27730193 406.73203074 321.4921875 422.83203125 C319.09846313 423.95385505 316.73263587 425.11690174 314.375 426.3125 C311 428 311 428 309 428 C309 428.66 309 429.32 309 430 C307.35 430.33 305.7 430.66 304 431 C304 431.66 304 432.32 304 433 C301.0173094 434.52448631 298.181798 435.93940067 295 437 C295 437.66 295 438.32 295 439 C294.01 439 293.02 439 292 439 C292 439.66 292 440.32 292 441 C291.401875 441.268125 290.80375 441.53625 290.1875 441.8125 C287.97373493 443.01425818 286.74896787 444.21245196 285 446 C283.77960939 447.09321021 282.54973443 448.17588978 281.3125 449.25 C280.61125 449.86359375 279.91 450.4771875 279.1875 451.109375 C277.76164131 452.3417243 276.32454387 453.56122458 274.875 454.765625 C270.9849681 458.03678819 267.90011094 461.20957421 265.08203125 465.44140625 C263.6212863 467.54551179 261.83682905 469.2224235 260 471 C258.64613064 472.65002828 257.31321858 474.3174387 256 476 C242 493.5 242 493.5 228 511 C226.9790625 512.299375 226.9790625 512.299375 225.9375 513.625 C224 516 224 516 222.375 517.5625 C220.89066489 518.972776 220.89066489 518.972776 220 521 C218.92101907 523.15796187 217.766197 524.37509876 216 526 C213.70106836 528.12209075 213.02791832 528.91624505 212 532 C211.01 532.66 210.02 533.32 209 534 C208.67 534.99 208.34 535.98 208 537 C207.02351983 538.02297922 206.01868662 539.01904252 205 540 C203.65080468 541.65385233 202.31866272 543.321702 201 545 C193 555 185 565 177 575 C176.319375 575.86625 175.63875 576.7325 174.9375 577.625 C173 580 173 580 171.375 581.5625 C169.89066489 582.972776 169.89066489 582.972776 169 585 C167.92101907 587.15796187 166.766197 588.37509876 165 590 C162.70106836 592.12209075 162.02791832 592.91624505 161 596 C160.02351983 597.02297922 159.01868662 598.01904252 158 599 C156.65080468 600.65385233 155.31866272 602.321702 154 604 C144.66666667 615.66666667 135.33333333 627.33333333 126 639 C125.319375 639.86625 124.63875 640.7325 123.9375 641.625 C122 644 122 644 120.375 645.5625 C118.89066489 646.972776 118.89066489 646.972776 118 649 C116.92101907 651.15796187 115.766197 652.37509876 114 654 C111.70106836 656.12209075 111.02791832 656.91624505 110 660 C109.01 660.66 108.02 661.32 107 662 C106.67 662.99 106.34 663.98 106 665 C105.02351983 666.02297922 104.01868662 667.01904252 103 668 C101.65080468 669.65385233 100.31866272 671.321702 99 673 C91 683 83 693 75 703 C74.319375 703.86625 73.63875 704.7325 72.9375 705.625 C71 708 71 708 69.375 709.5625 C67.87456467 710.98960804 67.87456467 710.98960804 66.9375 713.125 C66 715 66 715 64 716 C63.67 716.66 63.34 717.32 63 718 C62 720 62 720 60 721 C59.67 721.99 59.34 722.98 59 724 C58.01 724.66 57.02 725.32 56 726 C55.67 726.99 55.34 727.98 55 729 C54.02351983 730.02297922 53.01868662 731.01904252 52 732 C50.65080468 733.65385233 49.31866272 735.321702 48 737 C40 747 32 757 24 767 C23.319375 767.86625 22.63875 768.7325 21.9375 769.625 C20 772 20 772 18.375 773.5625 C16.89066489 774.972776 16.89066489 774.972776 16 777 C14.92101907 779.15796187 13.766197 780.37509876 12 782 C9.70106836 784.12209075 9.02791832 784.91624505 8 788 C7.01 788.66 6.02 789.32 5 790 C4.67 790.99 4.34 791.98 4 793 C2.68 793.99 1.36 794.98 0 796 C0 533.32 0 270.64 0 0 Z " fill="#2E3440" transform="translate(500,500)"/>
<path d="M0 0 C1.4204986 1.16199797 2.83748211 2.32831371 4.25 3.5 C4.81976562 3.92410156 5.38953125 4.34820313 5.9765625 4.78515625 C20.76614606 16.24533119 30.95503702 35.63200484 35.25 53.5 C35.47300781 54.31597656 35.69601562 55.13195312 35.92578125 55.97265625 C40.58871175 75.98836473 37.2230231 98.21386837 28.25 116.5 C27.79753906 117.43199219 27.34507812 118.36398437 26.87890625 119.32421875 C23.41453545 126.05580103 19.11621178 131.72753016 14.25 137.5 C13.61449219 138.33015625 12.97898437 139.1603125 12.32421875 140.015625 C-1.77069454 156.89766803 -25.31662599 166.95478684 -46.75 169.5 C-73.94496726 171.08227486 -97.74242153 164.20946035 -118.75 146.5 C-119.58015625 145.86449219 -120.4103125 145.22898437 -121.265625 144.57421875 C-137.8965141 130.68899531 -148.01150185 107.65877343 -150.75 86.5 C-151.89931223 68.16097446 -149.90863626 51.12649197 -141.75 34.5 C-141.29753906 33.56800781 -140.84507813 32.63601563 -140.37890625 31.67578125 C-136.91312765 24.94146347 -132.63897298 19.25988315 -127.75 13.5 C-127.25757813 12.87351562 -126.76515625 12.24703125 -126.2578125 11.6015625 C-96.50232648 -25.55076751 -36.26788565 -27.86060928 0 0 Z " fill="#D0CABE" transform="translate(1306.75,674.5)"/>
</svg>
