<svg version="1.2" xmlns="http://www.w3.org/2000/svg" viewBox="0 0 24 24" width="24" height="24">
	<title>audio-input-microphone-svg</title>
	<style>
		.s0 { fill: #d1cbbf } 
		.s1 { fill: #bf616a } 
	</style>
	<g id="Layer 1">
		<path id="Layer" class="s0" d="m12 4c1.7 0 3 1.3 3 3v5c0 1.7-1.3 3-3 3-1.7 0-3-1.3-3-3v-5c0-1.7 1.3-3 3-3z"/>
		<path id="Layer" class="s0" d="m7.5 10c-0.3 0-0.5 0.2-0.5 0.5v1.5c0 2.6 2 4.7 4.5 5v2h-2c-0.3 0-0.5 0.2-0.5 0.5 0 0.3 0.2 0.5 0.5 0.5h5c0.3 0 0.5-0.2 0.5-0.5 0-0.3-0.2-0.5-0.5-0.5h-2v-2c2.5-0.3 4.5-2.4 4.5-5v-1.5c0-0.3-0.2-0.5-0.5-0.5-0.3 0-0.5 0.2-0.5 0.5v1.5c0 2.2-1.8 4-4 4-2.2 0-4-1.8-4-4v-1.5c0-0.3-0.2-0.5-0.5-0.5z"/>
		<g id="Folder 1">
			<path id="Shape 1" fill-rule="evenodd" class="s1" d="m16.8 12.8l-1.2 1.4-8.6-7.9 1.3-1.3z"/>
		</g>
	</g>
</svg>