<svg version="1.2" xmlns="http://www.w3.org/2000/svg" viewBox="0 0 24 24" width="24" height="24">
	<title>audio-volume-high-svg</title>
	<style>
		.s0 { fill: #d1cbbf } 
	</style>
	<g id="Layer 1">
		<path id="Layer" class="s0" d="m12 4l-5 5v6l5 5h1v-16c0 0-1 0-1 0zm2.9 0.5l-0.3 1q1 0.4 1.8 1.1 0.8 0.6 1.4 1.5 0.6 0.9 0.9 1.9 0.3 1 0.3 2 0 1-0.3 2-0.3 1-0.9 1.9-0.6 0.9-1.4 1.5-0.8 0.7-1.8 1.1l0.3 1q1.1-0.5 2-1.2 1-0.8 1.7-1.8 0.7-1 1-2.1 0.4-1.2 0.4-2.4 0-1.2-0.4-2.4-0.3-1.1-1-2.1-0.7-1-1.6-1.8-1-0.7-2.1-1.2zm0.4 3.8l-0.5 0.8q0.3 0.3 0.5 0.7 0.2 0.3 0.4 0.6 0.1 0.4 0.2 0.8 0.1 0.4 0.1 0.8 0 0.4-0.1 0.8-0.1 0.4-0.2 0.8-0.2 0.3-0.4 0.7-0.2 0.3-0.5 0.6l0.5 0.8q0.4-0.3 0.7-0.8 0.3-0.4 0.6-0.9 0.2-0.4 0.3-1 0.1-0.5 0.1-1 0-0.5-0.1-1-0.1-0.6-0.3-1-0.3-0.5-0.6-0.9-0.3-0.5-0.7-0.8zm-11.3 0.7v6h2v-6z"/>
	</g>
</svg>