<?xml version="1.0" encoding="UTF-8" standalone="no"?>
<svg
   width="24"
   height="24"
   version="1.1"
   id="svg1"
   sodipodi:docname="audio-input-microphone.svg"
   xmlns:inkscape="http://www.inkscape.org/namespaces/inkscape"
   xmlns:sodipodi="http://sodipodi.sourceforge.net/DTD/sodipodi-0.dtd"
   xmlns="http://www.w3.org/2000/svg"
   xmlns:svg="http://www.w3.org/2000/svg">
  <sodipodi:namedview
     id="namedview1"
     pagecolor="#ffffff"
     bordercolor="#000000"
     borderopacity="0.25"
     inkscape:showpageshadow="2"
     inkscape:pageopacity="0.0"
     inkscape:pagecheckerboard="0"
     inkscape:deskcolor="#d1d1d1"
     inkscape:zoom="33.666667"
     inkscape:cx="11.985149"
     inkscape:cy="12"
     inkscape:window-width="1896"
     inkscape:window-height="1014"
     inkscape:window-x="10"
     inkscape:window-y="52"
     inkscape:window-maximized="1"
     inkscape:current-layer="svg1" />
  <defs
     id="defs1">
    <style
       type="text/css"
       id="style1">.ColorScheme-Text { color:#2e3440; } .ColorScheme-Highlight { color:#5294e2; }</style>
  </defs>
  <rect
     class="ColorScheme-Text"
     x="9"
     y="4"
     width="6"
     height="11"
     rx="3"
     ry="3"
     fill="currentColor"
     id="rect1"
     style="fill:#d1cbbf" />
  <path
     class="ColorScheme-Text"
     d="M 7.5,10 C 7.223,10 7,10.223 7,10.5 V 12 c 0,2.6008 1.967,4.7248 4.5,4.9746 V 19 h -2 C 9.223,19 9,19.223 9,19.5 9,19.777 9.223,20 9.5,20 h 5 C 14.777,20 15,19.777 15,19.5 15,19.223 14.777,19 14.5,19 h -2 V 16.9746 C 15.033,16.72477 17,14.6008 17,12 V 10.5 C 17,10.223 16.777,10 16.5,10 16.223,10 16,10.223 16,10.5 V 12 c 0,2.216 -1.784,4 -4,4 C 9.784,16 8,14.216 8,12 V 10.5 C 8,10.223 7.777,10 7.5,10 Z"
     fill="currentColor"
     id="path1"
     style="fill:#d1cbbf" />
</svg>
