<svg version="1.2" xmlns="http://www.w3.org/2000/svg" viewBox="0 0 24 24" width="24" height="24">
	<title>globe-svg</title>
	<style>
		.s0 { fill: #d1cbbf } 
	</style>
	<g>
		<g>
			<path class="s0" d="m12 4q-0.5 0-0.9 0.1-0.5 0-0.9 0.1-0.2 0.1-0.3 0.1-0.1 0-0.3 0.1-0.1 0-0.3 0.1-0.1 0-0.3 0.1-0.3 0.1-0.6 0.3-0.1 0-0.2 0.1-0.3 0.2-0.7 0.4-0.1 0.1-0.2 0.1-0.1 0.1-0.1 0.1-0.1 0.1-0.3 0.2-0.1 0.1-0.3 0.3 0 0-0.1 0.1 0 0.1-0.1 0.1c-0.2 0.2-0.4 0.4-0.6 0.6q0 0 0 0-0.2 0.4-0.5 0.7 0 0.1 0 0.1-0.1 0-0.1 0.1-0.1 0.1-0.2 0.3 0 0 0 0.1-0.1 0.2-0.2 0.4 0 0 0 0.1-0.2 0.3-0.4 0.7 0 0.1 0 0.2 0 0 0 0-0.1 0.1-0.1 0.2-0.1 0.4-0.2 0.8 0 0.3-0.1 0.6 0 0.4 0 0.8 0 0.6 0.1 1.2 0 0.1 0 0.1 0.1 0.4 0.2 0.8 0 0.1 0.1 0.3 0 0.2 0.1 0.3 0.1 0.4 0.3 0.7 0 0.1 0.1 0.3 0.2 0.4 0.5 0.8 0 0.1 0.1 0.1 0.3 0.4 0.6 0.8 0.1 0.1 0.1 0.1 0.1 0.1 0.2 0.2 0.3 0.3 0.6 0.5 0.5 0.4 1 0.7 0 0 0 0 0.1 0.1 0.2 0.1c0.3 0.2 0.7 0.4 0.9 0.5q0.2 0 0.4 0.1 0.1 0 0.1 0 0.2 0.1 0.4 0.2 0.1 0 0.2 0 0.4 0.1 0.9 0.1 0.4 0.1 0.9 0.1 0.5 0 1-0.1c0.4 0 0.7-0.1 1-0.2 1.7-0.4 3.2-1.4 4.2-2.7q0.1 0 0.1-0.1 0 0 0.1 0 0-0.1 0-0.1 0.9-1.2 1.3-2.8 0.1-0.3 0.2-0.7 0 0 0 0 0-0.1 0-0.2 0 0 0-0.1 0.1-0.5 0.1-1 0-0.8-0.1-1.6-0.1-0.1-0.1-0.1-0.1-0.4-0.2-0.7 0 0 0 0 0-0.1 0-0.1-0.1-0.2-0.1-0.4 0 0-0.1-0.1 0-0.1-0.1-0.3 0 0 0 0-0.1-0.1-0.1-0.2-0.1-0.3-0.3-0.6c-0.1-0.1-0.1-0.2-0.2-0.3q0 0-0.1-0.1-0.1-0.1-0.2-0.2-0.1-0.2-0.2-0.4 0 0 0 0-0.3-0.3-0.6-0.6-0.1-0.1-0.3-0.3 0 0 0 0-0.4-0.3-0.7-0.5-0.1-0.1-0.2-0.2-0.1 0-0.2-0.1-0.2-0.1-0.4-0.2-0.2-0.1-0.4-0.2-0.3-0.2-0.6-0.3-0.4-0.1-0.8-0.2-0.4-0.1-0.8-0.2-0.6-0.1-1.2-0.1zm0 1q0.5 0 0.9 0.1 0.2 0 0.5 0.1 0.3 0 0.5 0.1 0.2 0 0.3 0.1 0.3 0.1 0.5 0.2 0.3 0.1 0.6 0.2-0.1 0-0.1 0c-0.1 0.1-0.1 0.1-0.1 0.2-0.1 0 0 0.1 0 0.2 0 0 0 0 0.1 0.1 0 0 0 0 0.1 0 0 0 0 0.1 0 0.1 0 0.1-0.1 0-0.1 0.1 0 0.1 0 0.1-0.1 0.1 0 0.1 0.1 0.1 0.1 0.1 0 0-0.1 0-0.1 0.1 0.1 0 0.2 0 0.2 0 0.2-0.1 0.3 0 0.4-0.1 0 0 0.1-0.1 0.1-0.1 0-0.1-0.1-0.1-0.1-0.1q0-0.1-0.1-0.1 0-0.1-0.1-0.1c0-0.1-0.1-0.2-0.1-0.2 0 0 0.1-0.1 0.1-0.1 0-0.1-0.1 0-0.2-0.1q0.1 0 0.1-0.1 0.2 0.2 0.4 0.3 0.1 0.1 0.1 0.1 0.2 0.1 0.3 0.2c0 0.1-0.1 0.1-0.1 0.2q-0.1 0.1-0.2 0.1c0 0-0.1 0-0.1 0 0 0 0 0.1-0.1 0.1 0 0.1-0.1 0.1-0.1 0.1-0.1 0-0.1 0-0.2 0 0 0 0 0.1 0 0.1-0.1 0-0.3-0.1-0.3 0.1 0 0 0.2 0 0.2 0.1 0.1 0 0.1 0.1 0.1 0.1 0.1 0.1 0.1 0.2 0 0.3 0 0.1-0.1 0.1-0.2 0.1q-0.1 0-0.1 0c-0.2-0.1-0.4-0.1-0.5 0 0 0.1 0 0.2 0 0.3 0 0.1-0.1 0.1-0.1 0.2 0 0 0 0.1 0 0.1 0 0 0 0.1 0 0.1 0.1 0.1 0.2 0 0.2 0 0.1 0 0.2 0.1 0.2 0.2q-0.1 0.1-0.1 0.2c-0.1 0-0.2 0-0.3 0.1 0 0 0 0.1-0.1 0.2 0 0-0.1 0.1 0 0.2q-0.1 0.2-0.3 0.2-0.1 0.1-0.1 0.1-0.1 0-0.1 0.1-0.1 0.1-0.1 0.1c-0.1 0.1-0.1 0.1-0.1 0.1q0 0.1-0.1 0.2 0 0-0.1 0.1c0 0.1-0.1 0.1-0.1 0.2 0.1 0.1 0.1 0.1 0.1 0.1 0 0.1 0 0.1 0 0.1q0 0.1 0 0.2c0 0.1 0 0.1 0 0.1q0 0.1 0 0.1c0 0.1-0.1 0.1-0.1 0.2 0 0 0 0.1 0 0.2 0 0 0 0 0 0 0 0.1 0.2 0.2 0.2 0.3q0.2 0.1 0.2 0.2c0 0.1 0.1 0.2 0.1 0.2q0.1 0 0.2 0.1 0 0 0.1 0.1c0.1 0.1 0.2 0.2 0.3 0.2q0.1-0.1 0.3-0.1 0.1 0 0.2 0c0.1 0 0.1 0.1 0.2 0 0.1 0 0.1 0 0.2 0 0.1-0.1 0.4-0.2 0.5-0.2 0.2 0 0.2 0.2 0.3 0.3 0.1 0 0.2 0 0.3 0 0.1 0 0.2 0.1 0.2 0.2 0 0-0.1 0.1-0.1 0.1 0 0.1 0 0.2 0 0.2q-0.1 0.1-0.1 0.2c0 0 0.1 0.1 0.1 0.2q0.1 0 0.2 0.1 0.1 0.2 0.2 0.4c0 0 0 0.1 0 0.1 0 0.2-0.1 0.4-0.2 0.6-0.1 0.1-0.2 0.2-0.2 0.3 0 0.2 0.1 0.4 0.1 0.6 0 0.3 0.1 0.3 0 0.5 0.1 0.1 0.1 0.2 0 0.4 0 0.1-0.1 0.1-0.1 0.2q0.1 0 0.3 0c0 0 0 0.4 0 0.4-0.8 0.8-1.8 1.4-2.9 1.7-0.5 0.2-0.7 0.2-1 0.2q-0.5 0.1-1 0.1-0.4 0-0.7 0-0.3-0.1-0.5-0.1-0.1 0-0.2 0c-0.2-0.1-0.3-0.1-0.5-0.2q-0.3 0-0.5-0.1 0 0 0-0.1 0 0 0-0.1c0 0 0.1 0 0.1-0.1 0-0.1-0.1 0-0.1-0.1q-0.1 0-0.1-0.1c0.1 0 0.2 0.1 0.3 0 0-0.1 0-0.2 0-0.2 0 0 0.2-0.1 0.2-0.1q0.1 0 0.2 0c0 0 0.1-0.1 0.1-0.2q0 0-0.1-0.1c0 0 0-0.1 0-0.1 0 0-0.1 0-0.1-0.1 0.1 0 0.2 0.1 0.4 0.1 0-0.1 0.1-0.2 0.2-0.3q0 0 0-0.1c0 0 0 0 0 0q0-0.1 0-0.1c0.1-0.1 0.1-0.1 0.2-0.1q0-0.1 0-0.2 0.1 0 0.1-0.1c0-0.1 0-0.2 0-0.3 0-0.1 0.2-0.2 0.3-0.2q0.1-0.1 0.1-0.1 0.1 0 0.3-0.1c0.1 0 0.1-0.1 0.2-0.2q0-0.1 0-0.2 0 0 0-0.1 0.1 0 0.1-0.1c0-0.1 0-0.2 0-0.2 0-0.1 0-0.1 0-0.1 0-0.2 0-0.3 0.1-0.4q0 0 0.1-0.1c0.1-0.1 0.3-0.2 0.2-0.5 0 0 0-0.2 0-0.2-0.1-0.1-0.2 0-0.2-0.1-0.2 0-0.3-0.2-0.4-0.2-0.1 0-0.1 0-0.1 0-0.1 0-0.2-0.1-0.3-0.1 0 0-0.1 0-0.1 0 0 0 0-0.1-0.1-0.1q0 0-0.1 0-0.1-0.1-0.2-0.1 0 0-0.1 0 0 0-0.1-0.1-0.1 0-0.1-0.1c0-0.1-0.1-0.1-0.1-0.2 0 0 0-0.1 0-0.1q-0.1-0.1-0.1-0.2c-0.1 0-0.2-0.1-0.4-0.1q-0.1 0-0.2 0-0.1 0-0.2-0.1c-0.1-0.1-0.1-0.2-0.1-0.2-0.1 0-0.1 0-0.2-0.1q0 0 0 0c0-0.1-0.1-0.1 0-0.2-0.1 0-0.1 0.1-0.1 0.1-0.1-0.1-0.1-0.1-0.3-0.1 0 0 0 0.1-0.1 0.1-0.1 0-0.1-0.1-0.2-0.1 0 0-0.1 0-0.1 0-0.1 0-0.1 0-0.1-0.1-0.1 0-0.1-0.1-0.2-0.1 0 0-0.1 0.2-0.2 0.1 0 0 0.1 0 0-0.1 0 0 0 0-0.1 0q0 0.1-0.1 0.1c-0.1 0-0.1 0-0.2 0.1q-0.1 0-0.1 0.1c-0.1 0.1-0.1 0.2-0.1 0.2-0.1 0-0.2-0.1-0.2-0.1-0.2-0.1-0.3 0-0.4 0-0.1 0-0.3-0.2-0.3-0.3 0 0 0.1-0.1 0.1-0.2 0-0.1 0.1-0.1 0.1-0.2 0-0.1-0.2-0.2-0.2-0.2-0.1 0-0.3 0.1-0.5 0 0 0 0.1 0 0.1-0.1 0 0 0 0 0-0.1 0 0 0.1 0 0.1-0.1q0 0 0-0.1 0.1-0.1 0.1-0.1 0-0.1-0.1-0.2c-0.1 0.1-0.2 0-0.2 0.1-0.2 0-0.1 0.2-0.3 0.3q-0.1 0-0.2 0 0 0-0.1 0.1c-0.1 0-0.2-0.1-0.2-0.1q0-0.1 0-0.1 0 0 0 0 0-0.4 0.1-0.7 0 0 0 0 0.1-0.2 0.2-0.4 0 0 0-0.1c0.1 0 0.2-0.1 0.3-0.1 0 0 0.1 0 0.2 0 0 0.1 0.1 0.1 0.1 0.1 0.1 0 0.2-0.1 0.3-0.1 0.1 0 0.1-0.1 0.2 0 0.1 0 0.1 0 0.2 0.1 0 0 0-0.1 0.1-0.1 0 0 0.1 0.1 0.1 0.1 0 0.1 0 0.2 0 0.2 0 0.1 0.2 0.1 0.3 0.1 0 0 0-0.1 0-0.2q0 0 0-0.1-0.1 0-0.1-0.1c0-0.2 0.2-0.3 0.3-0.4q0.1 0 0.2-0.1 0.1 0 0.1 0 0.2-0.1 0.3-0.2c0-0.1 0-0.2 0-0.3 0 0 0.1 0 0.1 0 0.1 0 0.1-0.1 0.1-0.1q0.1 0 0.1-0.1c0.1 0 0.1-0.1 0.1-0.1q0.1 0 0.1 0 0.1 0 0.2-0.1c0 0 0.1 0 0.1 0 0.1 0 0-0.1 0-0.1 0.1-0.2 0.3-0.2 0.5-0.3 0 0 0.1-0.1 0.2-0.1 0 0.1-0.1 0.1-0.1 0.2 0.1 0.1 0.2 0 0.3-0.1 0 0 0.2 0 0.3-0.1 0.1 0 0.2 0 0.2-0.1-0.1 0-0.1 0-0.2 0 0 0.1-0.1 0-0.1 0 0 0 0 0.1-0.1 0 0 0-0.1 0-0.1-0.1 0-0.1 0.1-0.1 0.2-0.2-0.1-0.1-0.2 0-0.3-0.1q0-0.1 0.2-0.1c0 0 0.1 0 0.2 0 0 0.1 0 0.1 0 0.1 0 0.1 0.1 0.1 0.1 0 0 0-0.1 0-0.1-0.1 0.1 0 0.3 0 0.4 0 0.1 0 0.1 0 0.2-0.1 0.1 0 0.1-0.1 0.2 0 0 0-0.1 0.1-0.1 0.1q-0.2 0.1-0.3 0.3c0.1 0 0.1 0 0.2 0q0.1 0 0.1 0.1c0.1 0 0.1-0.1 0.1 0 0.1 0 0.1 0.1 0.2 0.1 0.1 0 0.1-0.2 0-0.2 0-0.1 0.1-0.1 0-0.2 0 0-0.2 0.1-0.2-0.1 0 0 0.1 0 0.1-0.1 0-0.1 0.1-0.1 0.1-0.2 0-0.1-0.1-0.1-0.1-0.1 0 0 0-0.1 0-0.1-0.1-0.1-0.2-0.1-0.2-0.2q0-0.1 0-0.2c-0.1 0-0.1-0.2-0.2-0.2 0-0.1-0.1 0.1-0.2 0.1 0 0-0.1 0.1-0.2 0 0 0-0.1 0-0.1 0 0-0.1 0.1-0.1 0.1-0.2 0 0-0.1 0-0.1-0.1 0 0-0.1-0.1-0.2-0.1 0 0 0 0-0.1 0q-0.1 0-0.1 0 0 0 0 0 0.2-0.1 0.4-0.1 0 0 0.1 0c0 0 0 0.1 0.1 0.1 0 0 0 0 0.1 0 0.1 0 0.1 0.1 0.2 0 0.1 0 0 0 0-0.1q0.1 0 0.2 0.1c0.1-0.1 0.1-0.1 0.1-0.2 0 0 0 0-0.1-0.1q0.1 0 0.2 0 0 0 0 0c0.1 0 0.2 0 0.2 0q0 0 0-0.1 0.4 0 0.8 0zm-2.5 0.5q0 0-0.1 0.1c0 0-0.1 0.1-0.1 0.1q0 0.1 0 0.1c0 0.4-0.2 0.5-0.5 0.5-0.1 0.1-0.1 0.2-0.1 0.3 0 0-0.1 0.1-0.2 0.1 0 0-0.1-0.1-0.1-0.1 0-0.1 0.1-0.1 0-0.2 0 0 0.1-0.1 0.1-0.1 0-0.1-0.1-0.1-0.2-0.1q-0.1 0-0.2 0 0.2-0.1 0.3-0.2 0.2-0.1 0.3-0.2 0.4-0.2 0.8-0.3zm5.4 0.7q-0.1 0-0.1 0.1c0 0 0 0-0.1 0 0 0.1-0.1 0.1-0.1 0.1 0 0.1 0 0.1 0 0.1 0 0.1 0 0.1 0 0.1 0 0.1 0.2 0 0.3 0 0 0 0.1 0 0.1 0 0-0.1 0-0.1 0-0.2 0 0 0.1 0 0.1-0.1 0 0-0.1-0.1-0.2-0.1zm-7.3 0.8c0 0 0.2 0.2 0 0.3 0 0-0.2 0-0.2 0 0 0-0.1-0.1-0.1-0.1-0.1 0-0.2 0.1-0.3 0 0-0.1 0.1-0.1 0.2-0.1 0.1 0 0.3-0.1 0.4-0.1zm0.2 0.3c0 0 0.1 0.1 0.1 0.1 0 0 0.1-0.1 0.1-0.1 0.1 0.1 0.1 0.2 0 0.2 0 0 0 0-0.1 0 0 0-0.1 0.2-0.1 0.2-0.1 0-0.1-0.2-0.1-0.2 0-0.1 0-0.1 0-0.1 0 0 0.1-0.1 0.1-0.1zm-0.3 0q0 0 0 0c0 0.1 0 0.1-0.1 0.2q-0.1 0-0.1 0.2c-0.1 0.1-0.2 0.2-0.2 0.1-0.1 0 0-0.2 0.1-0.2q0 0 0.1-0.1c0 0 0-0.1 0-0.1 0.1 0 0.2-0.1 0.2-0.1zm9.5 0.1c0.1 0 0.1 0 0.1 0.1q0 0 0.1 0 0 0 0.1 0.1 0.1 0.1 0.2 0.1 0 0 0.1 0.1 0 0.1 0.1 0.2 0 0 0.1 0.1 0 0.1 0.1 0.2 0 0.1 0.1 0.2 0.1 0.2 0.3 0.3 0 0.1 0 0.2 0 0 0 0c-0.1-0.1-0.5-0.1-0.5 0.1 0 0 0.1 0.1 0 0.2-0.1 0-0.2-0.1-0.3-0.1 0-0.1-0.1 0-0.1 0-0.1-0.1-0.1-0.2-0.1-0.2-0.1 0-0.2-0.1-0.2-0.1h-0.1c-0.1 0-0.1 0-0.2 0 0 0-0.1-0.1-0.1-0.1 0 0 0.1-0.1 0.1-0.1 0-0.1 0-0.1 0-0.1q0-0.1 0-0.1-0.1-0.1-0.2-0.1 0 0-0.1 0c-0.1 0-0.2 0-0.2 0q-0.1 0-0.2 0c-0.1 0.1-0.2 0-0.2 0-0.1 0-0.2 0.1-0.3 0.1q0 0-0.1 0.1 0 0-0.1 0 0 0-0.1 0.1-0.1 0-0.2 0c-0.1 0-0.2-0.1-0.2-0.1 0-0.2 0.2-0.1 0.4-0.1 0 0 0-0.1 0.1-0.1q0 0 0-0.1c0.1 0 0.2 0 0.2-0.1 0 0-0.1 0-0.1-0.1q0.1 0 0.1-0.1c0.1 0 0.1-0.1 0.2-0.1 0 0 0.1 0 0.1-0.1q0 0 0-0.1 0.1 0 0.1 0c0.1-0.1 0.1 0 0.2 0q0.1 0 0.2 0 0-0.1 0-0.1c0.1 0 0.1-0.1 0.1-0.1 0.1 0 0.2 0.2 0.3 0.2 0 0.1 0.1 0.1 0.2 0.2q0 0 0.1 0c0.1 0.1 0.2 0.2 0.3 0.3 0 0-0.1 0-0.1 0.1 0.1 0 0.1-0.1 0.1-0.1 0-0.1 0-0.1 0-0.1 0-0.1 0.2 0 0.2-0.1 0 0-0.1-0.1-0.2-0.1q0 0-0.1-0.1-0.1 0-0.1 0-0.1-0.1-0.1-0.1c-0.1-0.1-0.2-0.1-0.2-0.3 0.1 0 0.1 0 0.1 0zm-8.8 0.2h0.1c0 0 0.1 0 0.1 0 0 0.1-0.2 0.1-0.3 0 0 0 0.1 0 0.1 0zm-0.3 0.2q0-0.1 0 0 0 0-0.2 0.1c-0.1 0-0.1 0-0.1-0.1 0 0 0 0 0.1 0 0 0 0.1 0 0.2 0zm8.7 0c-0.1 0-0.1 0.1 0 0.1q0-0.1 0-0.1 0-0.1 0 0zm-0.1 0.1q0 0 0 0.1 0 0.1 0 0.2c0 0 0.1 0 0.1-0.1 0.1-0.1 0-0.2-0.1-0.2zm0.5 0.4q0.1 0.1 0.2 0.2c0.1-0.1 0.1-0.1 0.1-0.2q-0.1 0-0.2 0c0 0-0.1 0-0.1 0zm-11.7 2.7c0.2 0 0.2 0.2 0.3 0.3q0.1 0 0.2 0 0 0 0.1 0c0 0.1 0.1 0.1 0.2 0.1 0.1 0 0.1 0.2 0.2 0.2q0 0.1 0 0.1 0.1 0.1 0.1 0.1c0.1 0.1 0.1 0.2 0.2 0.2q0 0 0.1 0c0.1 0 0.1 0.1 0.2 0.1 0 0 0-0.1 0.1-0.1 0 0 0-0.1 0.1-0.1 0.1 0 0.1 0.1 0.1 0.2q0 0 0.1 0.1c0 0.1 0 0.3 0 0.4-0.1 0.1-0.1 0.1-0.2 0.1q0 0.1-0.1 0.1 0 0.1 0 0.1-0.1 0.1-0.1 0.1c0 0.1-0.1 0.2 0 0.3 0 0 0 0.1 0 0.1 0 0.1-0.1 0.1-0.1 0.2 0 0 0 0.1 0.1 0.1 0 0.1 0.1 0.1 0.1 0.2q0 0.1 0.1 0.2c0.1 0.1 0.1 0.2 0.2 0.4 0.1 0 0.2 0.1 0.2 0.2 0 0 0 0 0 0.1 0 0.1 0.2 0.2 0.4 0.3 0 0 0.1 0 0.1 0 0.1 0 0.2 0.1 0.3 0.2 0 0.1 0 0.2 0 0.3 0 0.1 0 0.2 0 0.3q0 0.1 0.1 0.2 0 0.1 0 0.1 0 0.1 0 0.3 0 0 0 0.1 0 0 0 0.1c0 0 0 0.1 0 0.1 0 0.1 0 0.2 0.1 0.2 0 0.1 0 0.2 0 0.3q0 0.1 0 0.1 0 0.1 0 0.1-0.1 0.1-0.1 0.2c0 0 0.1 0.1 0.1 0.2q0 0.1 0 0.1 0 0 0 0.1-0.3-0.3-0.7-0.5-0.4-0.3-0.7-0.6-0.3-0.3-0.6-0.7-0.1-0.2-0.3-0.4-0.1-0.1-0.2-0.2 0-0.1 0-0.2-0.2-0.2-0.3-0.5-0.1-0.1-0.1-0.3-0.2-0.3-0.3-0.7-0.1-0.3-0.1-0.6-0.1-0.2-0.1-0.4 0-0.2-0.1-0.3 0-0.3 0-0.7 0-0.4 0.1-0.9 0 0 0 0c0 0 0.1-0.1 0.2-0.1zm2.7 0.7c0 0 0.1 0.2 0 0.2 0 0-0.1-0.1 0-0.2z"/>
		</g>
	</g>
</svg>