<?xml version="1.0" encoding="UTF-8"?>
<svg version="1.1" xmlns="http://www.w3.org/2000/svg" width="818" height="818">
<path d="M0 0 C1.13752716 0.00182281 2.27505432 0.00364563 3.447052 0.00552368 C21.31568056 0.05359004 38.80137817 0.6831975 56.5 3.3125 C57.66257324 3.47878906 58.82514648 3.64507812 60.02294922 3.81640625 C98.08708432 9.39508258 135.10690505 20.06714166 170.05419922 36.18652344 C172.32088457 37.23004039 174.59733178 38.24737856 176.87890625 39.2578125 C208.29079226 53.35515998 237.1874251 73.23509301 263.5 95.3125 C263.99990952 95.72870102 264.49981903 96.14490204 265.01487732 96.57371521 C273.7517213 103.86032243 282.00953762 111.50414662 290.0246582 119.57641602 C291.82215805 121.38471608 293.63022316 123.18195977 295.43945312 124.97851562 C302.25419837 131.78553124 308.51646973 138.75664367 314.5 146.3125 C315.43448138 147.41458104 316.37586641 148.51089885 317.328125 149.59765625 C364.66536372 203.88278001 394.1452855 275.17769452 405.3125 345.8125 C405.50739014 347.03783447 405.70228027 348.26316895 405.90307617 349.52563477 C408.86368051 369.26343194 409.87919582 388.86716043 409.8125 408.8125 C409.80976578 410.51879074 409.80976578 410.51879074 409.80697632 412.259552 C409.75890996 430.12818056 409.1293025 447.61387817 406.5 465.3125 C406.33371094 466.47507324 406.16742187 467.63764648 405.99609375 468.83544922 C400.16248566 508.63902149 388.6887899 546.94686859 371.5 583.3125 C371.14873047 584.05806152 370.79746094 584.80362305 370.43554688 585.57177734 C368.22916618 590.20934392 365.88928893 594.76704924 363.5 599.3125 C363.08733887 600.11123535 362.67467773 600.9099707 362.24951172 601.73291016 C349.11258352 627.07827761 332.83225067 650.46072034 314.5 672.3125 C313.65767822 673.32449463 312.81535645 674.33648926 311.94750977 675.37915039 C304.93811671 683.72807222 297.54193643 691.58394631 289.80883789 699.2644043 C287.92811472 701.13433141 286.05843181 703.01482638 284.18945312 704.89648438 C277.26436718 711.82953916 270.20772848 718.24988076 262.5 724.3125 C261.20561318 725.38448466 259.91484842 726.46086844 258.62890625 727.54296875 C203.3469936 773.5717513 135.07962919 802.8257995 64.25 814.0625 C63.00935791 814.26117676 61.76871582 814.45985352 60.49047852 814.66455078 C40.68408059 817.66930429 21.01939119 818.69194344 1 818.625 C-0.13752716 818.62317719 -1.27505432 818.62135437 -2.447052 818.61947632 C-20.31568056 818.57140996 -37.80137817 817.9418025 -55.5 815.3125 C-56.66257324 815.14621094 -57.82514648 814.97992187 -59.02294922 814.80859375 C-97.08708432 809.22991742 -134.10690505 798.55785834 -169.05419922 782.43847656 C-171.32088457 781.39495961 -173.59733178 780.37762144 -175.87890625 779.3671875 C-207.29079226 765.26984002 -236.1874251 745.38990699 -262.5 723.3125 C-262.99990952 722.89629898 -263.49981903 722.48009796 -264.01487732 722.05128479 C-272.7517213 714.76467757 -281.00953762 707.12085338 -289.0246582 699.04858398 C-290.82215805 697.24028392 -292.63022316 695.44304023 -294.43945312 693.64648438 C-301.25419837 686.83946876 -307.51646973 679.86835633 -313.5 672.3125 C-314.43448138 671.21041896 -315.37586641 670.11410115 -316.328125 669.02734375 C-365.42937247 612.71930029 -394.86921916 538.64991489 -405.5 465.3125 C-405.66516113 464.20471191 -405.83032227 463.09692383 -406.00048828 461.95556641 C-411.04411558 426.58758632 -410.76576871 388.6316804 -405.5 353.3125 C-405.32839355 352.12865723 -405.15678711 350.94481445 -404.97998047 349.72509766 C-399.10105484 310.19076759 -387.77372281 271.39052866 -370.5 235.3125 C-369.80487305 233.83813477 -369.80487305 233.83813477 -369.09570312 232.33398438 C-355.5214182 203.67716064 -338.633186 176.8176329 -318.5 152.3125 C-318.05060059 151.7654541 -317.60120117 151.2184082 -317.13818359 150.65478516 C-307.48044995 138.9620413 -297.20420496 127.92246498 -286.52429199 117.16156006 C-285.52511139 116.15433768 -284.52741559 115.14563969 -283.53137207 114.13531494 C-276.87153413 107.39020992 -269.91342012 101.23112218 -262.5 95.3125 C-261.39828422 94.37758802 -260.30193811 93.4362489 -259.21484375 92.484375 C-234.80648922 71.20001521 -206.53614704 54.36311627 -177.46679688 40.27148438 C-175.52747843 39.32589812 -173.59967401 38.35943735 -171.671875 37.390625 C-137.8503408 20.65220228 -100.39782896 10.46544728 -63.25 4.5625 C-62.00911621 4.36374268 -60.76823242 4.16498535 -59.48974609 3.96020508 C-39.68344258 0.9561675 -20.01923409 -0.06694292 0 0 Z M-31.375 384.625 C-37.82495462 393.52411192 -40.33674293 403.43484191 -39.5 414.3125 C-37.64439031 425.35180509 -32.66768864 434.35620646 -24.0703125 441.5546875 C-15.24716687 447.58875366 -5.10385715 450.33403848 5.5 449.3125 C17.74009383 446.71611646 27.11572054 441.50434404 34.5 431.3125 C40.33413188 421.94142567 41.94411163 411.5160249 40.03515625 400.671875 C37.08507086 389.56977851 30.91690483 380.75319461 21.046875 374.84375 C2.8166455 365.2253467 -17.82153533 368.37232839 -31.375 384.625 Z " fill="#CFC9BD" transform="translate(408.5,-0.3125)"/>
</svg>
