<?xml version="1.0" encoding="UTF-8"?>
<svg version="1.1" xmlns="http://www.w3.org/2000/svg" width="818" height="818">
<path d="M0 0 C1.13752716 0.00182281 2.27505432 0.00364563 3.447052 0.00552368 C21.31568056 0.05359004 38.80137817 0.6831975 56.5 3.3125 C57.66257324 3.47878906 58.82514648 3.64507812 60.02294922 3.81640625 C98.08708432 9.39508258 135.10690505 20.06714166 170.05419922 36.18652344 C172.32088457 37.23004039 174.59733178 38.24737856 176.87890625 39.2578125 C208.29079226 53.35515998 237.1874251 73.23509301 263.5 95.3125 C263.99990952 95.72870102 264.49981903 96.14490204 265.01487732 96.57371521 C273.7517213 103.86032243 282.00953762 111.50414662 290.0246582 119.57641602 C291.82215805 121.38471608 293.63022316 123.18195977 295.43945312 124.97851562 C302.25419837 131.78553124 308.51646973 138.75664367 314.5 146.3125 C315.43448138 147.41458104 316.37586641 148.51089885 317.328125 149.59765625 C364.66536372 203.88278001 394.1452855 275.17769452 405.3125 345.8125 C405.50739014 347.03783447 405.70228027 348.26316895 405.90307617 349.52563477 C408.86368051 369.26343194 409.87919582 388.86716043 409.8125 408.8125 C409.80976578 410.51879074 409.80976578 410.51879074 409.80697632 412.259552 C409.75890996 430.12818056 409.1293025 447.61387817 406.5 465.3125 C406.33371094 466.47507324 406.16742187 467.63764648 405.99609375 468.83544922 C400.16248566 508.63902149 388.6887899 546.94686859 371.5 583.3125 C371.14873047 584.05806152 370.79746094 584.80362305 370.43554688 585.57177734 C368.22922859 590.20921274 365.89588607 594.77056065 363.5 599.3125 C363.07138672 600.13250488 362.64277344 600.95250977 362.20117188 601.79736328 C356.17108516 613.28513975 349.83194211 624.36065335 342.3371582 634.96777344 C341.80566162 635.74411133 341.27416504 636.52044922 340.7265625 637.3203125 C340.24783691 637.99723145 339.76911133 638.67415039 339.27587891 639.37158203 C338.29453443 641.27289528 338.29453443 641.27289528 338.97729492 643.17724609 C341.19354687 646.28504464 343.88783236 648.84240698 346.63671875 651.46875 C347.86565244 652.66754032 349.09415537 653.86677237 350.32226562 655.06640625 C352.25970014 656.94789399 354.20075461 658.82521532 356.1496582 660.69482422 C358.03141557 662.50428835 359.89737337 664.32887491 361.76171875 666.15625 C362.64593758 666.99234802 362.64593758 666.99234802 363.54801941 667.84533691 C365.16674805 669.44335938 365.16674805 669.44335938 367.5 672.3125 C367.05128059 676.06603968 365.58807996 677.41984949 362.6875 679.75 C360.34088823 681.70620202 358.41553545 683.41808069 356.5 685.8125 C354.08754578 688.82806778 351.3057385 691.12525245 348.375 693.625 C346.36602082 695.341158 346.36602082 695.341158 344.5 697.8125 C342.08754578 700.82806778 339.3057385 703.12525245 336.375 705.625 C334.36602082 707.341158 334.36602082 707.341158 332.5 709.8125 C330.08754578 712.82806778 327.3057385 715.12525245 324.375 717.625 C322.36602082 719.341158 322.36602082 719.341158 320.5 721.8125 C318.08754578 724.82806778 315.3057385 727.12525245 312.375 729.625 C310.36602082 731.341158 310.36602082 731.341158 308.5 733.8125 C306.08754578 736.82806778 303.3057385 739.12525245 300.375 741.625 C298.36602082 743.341158 298.36602082 743.341158 296.5 745.8125 C294.08754578 748.82806778 291.3057385 751.12525245 288.375 753.625 C286.36602082 755.341158 286.36602082 755.341158 284.5 757.8125 C282.09084072 760.8239491 279.31460647 763.1183529 276.38671875 765.61328125 C274.13240513 767.6435637 272.36839388 769.92868712 270.5 772.3125 C268 774.6875 268 774.6875 265.5 776.3125 C262.32368197 775.94001115 260.68960619 774.87287355 258.47558594 772.62866211 C257.91530701 772.06815659 257.35502808 771.50765106 256.777771 770.93016052 C256.18595032 770.32285599 255.59412964 769.71555145 254.984375 769.08984375 C254.36854553 768.46976944 253.75271606 767.84969513 253.1182251 767.21083069 C251.15499365 765.23082095 249.20245564 763.24063081 247.25 761.25 C245.91996252 759.90491465 244.58924121 758.56050512 243.2578125 757.21679688 C239.99722463 753.92315094 236.74618812 750.62033661 233.5 747.3125 C228.21074536 750.18575771 223.07755439 753.1628914 218.0625 756.5 C210.47513464 761.46117184 202.59570631 765.8335037 194.62841797 770.14990234 C192.74146131 771.18060751 190.87061259 772.2340146 189.00390625 773.30078125 C148.69960202 795.80595922 101.90266782 808.73105979 56.5 815.3125 C55.39221191 815.47766113 54.28442383 815.64282227 53.14306641 815.81298828 C17.76672374 820.85780812 -20.17163847 820.56087188 -55.5 815.3125 C-56.66257324 815.14621094 -57.82514648 814.97992187 -59.02294922 814.80859375 C-97.08708432 809.22991742 -134.10690505 798.55785834 -169.05419922 782.43847656 C-171.32088457 781.39495961 -173.59733178 780.37762144 -175.87890625 779.3671875 C-207.29079226 765.26984002 -236.1874251 745.38990699 -262.5 723.3125 C-262.99990952 722.89629898 -263.49981903 722.48009796 -264.01487732 722.05128479 C-272.7517213 714.76467757 -281.00953762 707.12085338 -289.0246582 699.04858398 C-290.82215805 697.24028392 -292.63022316 695.44304023 -294.43945312 693.64648438 C-301.25419837 686.83946876 -307.51646973 679.86835633 -313.5 672.3125 C-314.43448138 671.21041896 -315.37586641 670.11410115 -316.328125 669.02734375 C-365.42937247 612.71930029 -394.86921916 538.64991489 -405.5 465.3125 C-405.66516113 464.20471191 -405.83032227 463.09692383 -406.00048828 461.95556641 C-411.04411558 426.58758632 -410.76576871 388.6316804 -405.5 353.3125 C-405.32839355 352.12865723 -405.15678711 350.94481445 -404.97998047 349.72509766 C-399.10105484 310.19076759 -387.77372281 271.39052866 -370.5 235.3125 C-369.80487305 233.83813477 -369.80487305 233.83813477 -369.09570312 232.33398438 C-360.01766672 213.16924086 -349.42251592 194.85093204 -337.5 177.3125 C-341.18883014 172.76143013 -345.15923059 168.62192376 -349.37109375 164.5546875 C-349.90054596 164.04021057 -350.42999817 163.52573364 -350.97549438 162.9956665 C-353.19267942 160.8415453 -355.41022159 158.68856097 -357.65112305 156.55908203 C-359.30078202 154.9879105 -360.93080704 153.39846706 -362.55859375 151.8046875 C-363.06990341 151.3274826 -363.58121307 150.85027771 -364.10801697 150.35861206 C-365.50561523 148.97216797 -365.50561523 148.97216797 -367.5 146.3125 C-367.25909635 141.95696432 -365.62555103 139.93496048 -362.61027527 136.90811157 C-361.77326584 136.05837769 -360.93625641 135.2086438 -360.07388306 134.3331604 C-359.14868866 133.41449188 -358.22349426 132.49582336 -357.27026367 131.54931641 C-356.29057206 130.56256568 -355.3117261 129.57497474 -354.33366394 128.58660889 C-351.67767538 125.90812163 -349.0091134 123.24250439 -346.33742309 120.5796895 C-344.1092381 118.35661277 -341.88727976 116.12736521 -339.66529733 113.89809167 C-334.42578037 108.64157583 -329.17605286 103.39541595 -323.91967773 98.15576172 C-318.49202421 92.74505069 -313.08098554 87.31812693 -307.67796534 81.88282645 C-303.04070165 77.21890734 -298.39383703 72.56471465 -293.73897916 67.91835535 C-290.95782263 65.14213725 -288.18039403 62.36243353 -285.41194725 59.57353592 C-282.8104706 56.95376431 -280.19722691 54.34634116 -277.57428169 51.74806976 C-276.1520672 50.33328529 -274.74221342 48.90610946 -273.33270264 47.47866821 C-272.48723373 46.64585327 -271.64176483 45.81303833 -270.77067566 44.95498657 C-270.03822726 44.22312449 -269.30577887 43.4912624 -268.55113506 42.73722267 C-266.5 41.3125 -266.5 41.3125 -264.33195591 41.50851917 C-262.22670174 42.43244097 -260.99779414 43.45289278 -259.38378906 45.08813477 C-258.51333954 45.95892418 -258.51333954 45.95892418 -257.62530518 46.8473053 C-257.01161072 47.47648361 -256.39791626 48.10566193 -255.765625 48.75390625 C-255.12759949 49.39617661 -254.48957397 50.03844696 -253.83221436 50.70018005 C-251.79765882 52.75151726 -249.77378621 54.81304273 -247.75 56.875 C-246.37178509 58.26826234 -244.99288675 59.66084898 -243.61328125 61.05273438 C-240.23420954 64.46486865 -236.86468136 67.88617707 -233.5 71.3125 C-230.25199125 70.09127973 -227.39051513 68.74217423 -224.48828125 66.84375 C-223.36546753 66.11816895 -223.36546753 66.11816895 -222.2199707 65.37792969 C-221.42550537 64.86133789 -220.63104004 64.34474609 -219.8125 63.8125 C-206.16615018 55.07567632 -192.04413099 47.33797968 -177.46679688 40.27148438 C-175.52747843 39.32589812 -173.59967401 38.35943735 -171.671875 37.390625 C-137.8503408 20.65220228 -100.39782896 10.46544728 -63.25 4.5625 C-62.00911621 4.36374268 -60.76823242 4.16498535 -59.48974609 3.96020508 C-39.68344258 0.9561675 -20.01923409 -0.06694292 0 0 Z " fill="#CFC9BD" transform="translate(408.5,-0.3125)"/>
<path d="M0 0 C0.99 0 1.98 0 3 0 C4.25574778 1.45402374 5.50457552 2.91582582 6.6875 4.4296875 C8.05570413 6.17559696 8.05570413 6.17559696 10.375 7.875 C12.75140977 9.79876029 14.52609858 11.68429747 16.5 14 C18.43477883 16.26836139 20.1631184 18.13049472 22.5 20 C25.51556778 22.41245422 27.81275245 25.1942615 30.3125 28.125 C32.028658 30.13397918 32.028658 30.13397918 34.5 32 C37.51556778 34.41245422 39.81275245 37.1942615 42.3125 40.125 C44.028658 42.13397918 44.028658 42.13397918 46.5 44 C49.51556778 46.41245422 51.81275245 49.1942615 54.3125 52.125 C56.028658 54.13397918 56.028658 54.13397918 58.5 56 C61.51556778 58.41245422 63.81275245 61.1942615 66.3125 64.125 C68.028658 66.13397918 68.028658 66.13397918 70.5 68 C73.51556778 70.41245422 75.81275245 73.1942615 78.3125 76.125 C80.028658 78.13397918 80.028658 78.13397918 82.5 80 C85.51556778 82.41245422 87.81275245 85.1942615 90.3125 88.125 C92.028658 90.13397918 92.028658 90.13397918 94.5 92 C97.51556778 94.41245422 99.81275245 97.1942615 102.3125 100.125 C104.028658 102.13397918 104.028658 102.13397918 106.5 104 C109.51556778 106.41245422 111.81275245 109.1942615 114.3125 112.125 C116.028658 114.13397918 116.028658 114.13397918 118.5 116 C121.51556778 118.41245422 123.81275245 121.1942615 126.3125 124.125 C128.028658 126.13397918 128.028658 126.13397918 130.5 128 C133.51556778 130.41245422 135.81275245 133.1942615 138.3125 136.125 C140.028658 138.13397918 140.028658 138.13397918 142.5 140 C145.51556778 142.41245422 147.81275245 145.1942615 150.3125 148.125 C152.028658 150.13397918 152.028658 150.13397918 154.5 152 C157.51556778 154.41245422 159.81275245 157.1942615 162.3125 160.125 C164.028658 162.13397918 164.028658 162.13397918 166.5 164 C169.51556778 166.41245422 171.81275245 169.1942615 174.3125 172.125 C176.028658 174.13397918 176.028658 174.13397918 178.5 176 C181.51556778 178.41245422 183.81275245 181.1942615 186.3125 184.125 C188.028658 186.13397918 188.028658 186.13397918 190.5 188 C193.51556778 190.41245422 195.81275245 193.1942615 198.3125 196.125 C200.028658 198.13397918 200.028658 198.13397918 202.5 200 C205.51556778 202.41245422 207.81275245 205.1942615 210.3125 208.125 C212.028658 210.13397918 212.028658 210.13397918 214.5 212 C217.51556778 214.41245422 219.81275245 217.1942615 222.3125 220.125 C224.028658 222.13397918 224.028658 222.13397918 226.5 224 C229.51556778 226.41245422 231.81275245 229.1942615 234.3125 232.125 C236.028658 234.13397918 236.028658 234.13397918 238.5 236 C241.51556778 238.41245422 243.81275245 241.1942615 246.3125 244.125 C248.028658 246.13397918 248.028658 246.13397918 250.5 248 C253.51556778 250.41245422 255.81275245 253.1942615 258.3125 256.125 C260.028658 258.13397918 260.028658 258.13397918 262.5 260 C265.51556778 262.41245422 267.81275245 265.1942615 270.3125 268.125 C272.028658 270.13397918 272.028658 270.13397918 274.5 272 C277.51556778 274.41245422 279.81275245 277.1942615 282.3125 280.125 C284.028658 282.13397918 284.028658 282.13397918 286.5 284 C289.51556778 286.41245422 291.81275245 289.1942615 294.3125 292.125 C296.028658 294.13397918 296.028658 294.13397918 298.5 296 C301.51556778 298.41245422 303.81275245 301.1942615 306.3125 304.125 C308.028658 306.13397918 308.028658 306.13397918 310.5 308 C313.51556778 310.41245422 315.81275245 313.1942615 318.3125 316.125 C320.028658 318.13397918 320.028658 318.13397918 322.5 320 C325.51556778 322.41245422 327.81275245 325.1942615 330.3125 328.125 C332.028658 330.13397918 332.028658 330.13397918 334.5 332 C337.51556778 334.41245422 339.81275245 337.1942615 342.3125 340.125 C344.028658 342.13397918 344.028658 342.13397918 346.5 344 C348.79924126 345.83939301 350.47807746 347.64084679 352.375 349.875 C355.15472677 353.13815752 358.07909395 355.8539217 361.3828125 358.5703125 C363.88531695 360.7826715 365.86451523 363.43741828 368 366 C369.14846224 367.02085532 370.31621922 368.02031935 371.5 369 C374.76428178 371.70147457 377.28518379 374.74222055 380 378 C381.14846224 379.02085532 382.31621922 380.02031935 383.5 381 C386.76428178 383.70147457 389.28518379 386.74222055 392 390 C393.10720754 390.97883565 394.23347435 391.93641225 395.375 392.875 C398.77612785 395.68462736 401.53320111 398.83910353 404.3828125 402.1953125 C406.04072435 404.14508617 406.04072435 404.14508617 408.5 406 C411.51556778 408.41245422 413.81275245 411.1942615 416.3125 414.125 C418.028658 416.13397918 418.028658 416.13397918 420.5 418 C423.51556778 420.41245422 425.81275245 423.1942615 428.3125 426.125 C430.028658 428.13397918 430.028658 428.13397918 432.5 430 C435.51556778 432.41245422 437.81275245 435.1942615 440.3125 438.125 C442.028658 440.13397918 442.028658 440.13397918 444.5 442 C447.51556778 444.41245422 449.81275245 447.1942615 452.3125 450.125 C454.028658 452.13397918 454.028658 452.13397918 456.5 454 C459.51556778 456.41245422 461.81275245 459.1942615 464.3125 462.125 C466.028658 464.13397918 466.028658 464.13397918 468.5 466 C471.51556778 468.41245422 473.81275245 471.1942615 476.3125 474.125 C478.028658 476.13397918 478.028658 476.13397918 480.5 478 C483.51556778 480.41245422 485.81275245 483.1942615 488.3125 486.125 C490.028658 488.13397918 490.028658 488.13397918 492.5 490 C495.51556778 492.41245422 497.81275245 495.1942615 500.3125 498.125 C502.028658 500.13397918 502.028658 500.13397918 504.5 502 C507.51556778 504.41245422 509.81275245 507.1942615 512.3125 510.125 C514.028658 512.13397918 514.028658 512.13397918 516.5 514 C519.51556778 516.41245422 521.81275245 519.1942615 524.3125 522.125 C526.028658 524.13397918 526.028658 524.13397918 528.5 526 C531.51556778 528.41245422 533.81275245 531.1942615 536.3125 534.125 C538.028658 536.13397918 538.028658 536.13397918 540.5 538 C543.51556778 540.41245422 545.81275245 543.1942615 548.3125 546.125 C550.028658 548.13397918 550.028658 548.13397918 552.5 550 C555.5106838 552.40854704 557.80487473 555.18069113 560.29296875 558.11328125 C562.06368609 560.18000907 562.06368609 560.18000907 564.8125 562.1875 C567.3172414 564.26285716 568.06033606 565.92473621 569 569 C545.32732026 593.84761054 503.58737005 608.97735058 472 620 C471.0095166 620.34659668 470.0190332 620.69319336 468.99853516 621.05029297 C446.66909694 628.76146474 423.81447702 634.12653011 400.5 637.8125 C399.27466553 638.00739014 398.04933105 638.20228027 396.78686523 638.40307617 C377.04906806 641.36368051 357.44533957 642.37919582 337.5 642.3125 C336.36247284 642.31067719 335.22494568 642.30885437 334.052948 642.30697632 C316.18431944 642.25890996 298.69862183 641.6293025 281 639 C279.83742676 638.83371094 278.67485352 638.66742187 277.47705078 638.49609375 C239.41291568 632.91741742 202.39309495 622.24535834 167.44580078 606.12597656 C165.17911543 605.08245961 162.90266822 604.06512144 160.62109375 603.0546875 C129.20920774 588.95734002 100.3125749 569.07740699 74 547 C73.50009048 546.58379898 73.00018097 546.16759796 72.48512268 545.73878479 C63.7482787 538.45217757 55.49046238 530.80835338 47.4753418 522.73608398 C45.67784195 520.92778392 43.86977684 519.13054023 42.06054688 517.33398438 C35.24580163 510.52696876 28.98353027 503.55585633 23 496 C22.06551862 494.89791896 21.12413359 493.80160115 20.171875 492.71484375 C-28.92937247 436.40680029 -58.36921916 362.33741489 -69 289 C-69.16516113 287.89221191 -69.33032227 286.78442383 -69.50048828 285.64306641 C-74.54411558 250.27508632 -74.26576871 212.3191804 -69 177 C-68.82839355 175.81615723 -68.65678711 174.63231445 -68.47998047 173.41259766 C-62.60105484 133.87826759 -51.27372281 95.07802866 -34 59 C-33.30487305 57.52563477 -33.30487305 57.52563477 -32.59570312 56.02148438 C-24.08773409 38.06021641 -14.29981993 20.79176985 -3.23828125 4.2734375 C-2.68825439 3.45020996 -2.13822754 2.62698242 -1.5715332 1.77880859 C-1.05292725 1.19180176 -0.53432129 0.60479492 0 0 Z " fill="#CFC9BD" transform="translate(72,176)"/>
<path d="M0 0 C2.09574757 0.92011349 3.29151137 1.92123966 4.883008 3.56332588 C5.45039692 4.14062447 6.01778584 4.71792305 6.60236835 5.31271553 C7.2035146 5.93875679 7.80466084 6.56479805 8.42402363 7.20981026 C9.36683186 8.16965828 9.36683186 8.16965828 10.32868671 9.14889717 C13.01657795 11.88584422 15.686415 14.64016728 18.35810566 17.39291573 C20.31147461 19.40045254 22.27370603 21.39901777 24.23652363 23.39731026 C24.83766987 24.02335152 25.43881611 24.64939278 26.0581789 25.29440498 C26.90926228 26.16035286 26.90926228 26.16035286 27.77753925 27.04379463 C28.27177387 27.5537397 28.76600849 28.06368477 29.27521992 28.58908272 C31.08743361 30.00439899 32.58671044 30.39741492 34.83027363 30.80356026 C34.50027363 32.45356026 34.17027363 34.10356026 33.83027363 35.80356026 C34.62691425 36.47451729 34.62691425 36.47451729 35.43964863 37.15902901 C39.3424717 40.49921882 42.61922459 43.78974896 45.83027363 47.80356026 C47.14716115 48.98875903 48.48231099 50.15382742 49.83027363 51.30356026 C52.9087473 53.92931721 55.30119889 56.64221683 57.83027363 59.80356026 C59.14716115 60.98875903 60.48231099 62.15382742 61.83027363 63.30356026 C64.9087473 65.92931721 67.30119889 68.64221683 69.83027363 71.80356026 C71.14716115 72.98875903 72.48231099 74.15382742 73.83027363 75.30356026 C76.9087473 77.92931721 79.30119889 80.64221683 81.83027363 83.80356026 C83.14716115 84.98875903 84.48231099 86.15382742 85.83027363 87.30356026 C88.9087473 89.92931721 91.30119889 92.64221683 93.83027363 95.80356026 C95.14716115 96.98875903 96.48231099 98.15382742 97.83027363 99.30356026 C100.9087473 101.92931721 103.30119889 104.64221683 105.83027363 107.80356026 C107.14716115 108.98875903 108.48231099 110.15382742 109.83027363 111.30356026 C112.9087473 113.92931721 115.30119889 116.64221683 117.83027363 119.80356026 C119.14716115 120.98875903 120.48231099 122.15382742 121.83027363 123.30356026 C124.9087473 125.92931721 127.30119889 128.64221683 129.83027363 131.80356026 C131.14716115 132.98875903 132.48231099 134.15382742 133.83027363 135.30356026 C136.9087473 137.92931721 139.30119889 140.64221683 141.83027363 143.80356026 C143.14716115 144.98875903 144.48231099 146.15382742 145.83027363 147.30356026 C148.9087473 149.92931721 151.30119889 152.64221683 153.83027363 155.80356026 C155.14716115 156.98875903 156.48231099 158.15382742 157.83027363 159.30356026 C160.9087473 161.92931721 163.30119889 164.64221683 165.83027363 167.80356026 C167.14716115 168.98875903 168.48231099 170.15382742 169.83027363 171.30356026 C172.9087473 173.92931721 175.30119889 176.64221683 177.83027363 179.80356026 C179.14716115 180.98875903 180.48231099 182.15382742 181.83027363 183.30356026 C184.9087473 185.92931721 187.30119889 188.64221683 189.83027363 191.80356026 C191.14716115 192.98875903 192.48231099 194.15382742 193.83027363 195.30356026 C196.9087473 197.92931721 199.30119889 200.64221683 201.83027363 203.80356026 C202.98976918 204.84305793 204.16777656 205.86203689 205.35688496 206.8675251 C210.26499892 211.11861482 214.82898638 215.67649803 219.40449238 220.28012276 C220.73478222 221.61253502 220.73478222 221.61253502 222.0919466 222.9718647 C224.42784447 225.31237945 226.7615618 227.65503883 229.09418964 229.99881172 C231.46337626 232.37825764 233.83541574 234.75485581 236.20722675 237.13168526 C239.68155533 240.61415214 243.15458487 244.09790257 246.62592793 247.58334541 C249.69050833 250.6603089 252.75784328 253.73443636 255.83027363 256.80356026 C321.60110696 322.57439359 387.37194029 388.34522692 593.62324238 594.63168526 C594.56103535 595.58301338 594.56103535 595.58301338 595.51777363 596.55356026 C596.09914082 597.14652901 596.680508 597.73949776 597.27949238 598.35043526 C598.78541337 599.8999783 598.78541337 599.8999783 600.83027363 600.80356026 C601.16027363 599.81356026 601.49027363 598.82356026 601.83027363 597.80356026 C601.99141148 598.69911629 601.99141148 598.69911629 602.15580463 599.61276436 C602.92061926 602.09701903 603.7602231 603.07318455 605.62177753 604.85629463 C606.2055315 605.42368355 606.78928547 605.99107246 607.39072895 606.57565498 C608.02304432 607.17680122 608.65535969 607.77794746 609.30683613 608.39731026 C610.62999998 609.68742137 611.95290902 610.97779386 613.27558613 612.26840401 C615.36960255 614.29393378 617.46745863 616.31524177 619.570508 618.33139229 C621.59749271 620.28016079 623.60901812 622.24387478 625.61933613 624.20981026 C626.25569996 624.8109565 626.89206379 625.41210274 627.54771137 626.03146553 C629.29755878 627.75082588 629.29755878 627.75082588 631.83027363 630.80356026 C631.40641414 634.55791732 629.91220137 635.91585207 627.01777363 638.24106026 C624.67116186 640.19726228 622.74580908 641.90914094 620.83027363 644.30356026 C618.41781941 647.31912803 615.63601213 649.61631271 612.70527363 652.11606026 C610.69629445 653.83221826 610.69629445 653.83221826 608.83027363 656.30356026 C606.41781941 659.31912803 603.63601213 661.61631271 600.70527363 664.11606026 C598.69629445 665.83221826 598.69629445 665.83221826 596.83027363 668.30356026 C594.41781941 671.31912803 591.63601213 673.61631271 588.70527363 676.11606026 C586.69629445 677.83221826 586.69629445 677.83221826 584.83027363 680.30356026 C582.41781941 683.31912803 579.63601213 685.61631271 576.70527363 688.11606026 C574.69629445 689.83221826 574.69629445 689.83221826 572.83027363 692.30356026 C570.41781941 695.31912803 567.63601213 697.61631271 564.70527363 700.11606026 C562.69629445 701.83221826 562.69629445 701.83221826 560.83027363 704.30356026 C558.41781941 707.31912803 555.63601213 709.61631271 552.70527363 712.11606026 C550.69629445 713.83221826 550.69629445 713.83221826 548.83027363 716.30356026 C546.42111435 719.31500935 543.6448801 721.60941315 540.71699238 724.10434151 C538.46267876 726.13462396 536.6986675 728.41974738 534.83027363 730.80356026 C532.33027363 733.17856026 532.33027363 733.17856026 529.83027363 734.80356026 C525.10312848 734.24766243 522.56773625 730.88126955 519.42011738 727.61606026 C518.81140293 726.99835762 518.20268848 726.38065498 517.57552814 725.74423409 C515.6323216 723.77100983 513.69931417 721.78820074 511.76777363 719.80356026 C509.83181561 717.8198097 507.89370587 715.83836617 505.94930744 713.86288643 C504.73992715 712.6337167 503.5355123 711.39963773 502.33660603 710.16024971 C499.04445288 706.79069009 499.04445288 706.79069009 494.83027363 704.80356026 C494.83027363 703.48356026 494.83027363 702.16356026 494.83027363 700.80356026 C492.70712565 698.34444704 492.70712565 698.34444704 489.83027363 695.80356026 C488.6582798 694.64224519 487.49184575 693.47529932 486.33027363 692.30356026 C485.73214863 691.70543526 485.13402363 691.10731026 484.51777363 690.49106026 C434.28860696 640.26189359 384.05944029 590.03272692 333.83027363 539.80356026 C333.27339863 539.25828682 332.71652363 538.71301338 332.14277363 538.15121651 C329.38173013 535.43182669 326.78495464 532.74804449 324.33027363 529.74106026 C321.90338349 526.88946435 319.38697542 524.67807208 316.51777363 522.30356026 C313.99388874 520.06010702 311.98947832 517.39460589 309.83027363 514.80356026 C308.68181139 513.78270493 307.51405441 512.7832409 306.33027363 511.80356026 C303.06599185 509.10208568 300.54508984 506.06133971 297.83027363 502.80356026 C296.68181139 501.78270493 295.51405441 500.7832409 294.33027363 499.80356026 C292.03101289 497.89987126 290.32673304 496.19672929 288.39277363 493.86606026 C285.71740218 490.66866511 282.83395901 488.14840983 279.67011738 485.45590401 C277.4301621 483.44422442 275.70925643 481.15228876 273.83027363 478.80356026 C272.5133861 477.61836148 271.17823627 476.4532931 269.83027363 475.30356026 C266.75179996 472.6778033 264.35934837 469.96490368 261.83027363 466.80356026 C260.5133861 465.61836148 259.17823627 464.4532931 257.83027363 463.30356026 C254.75179996 460.6778033 252.35934837 457.96490368 249.83027363 454.80356026 C248.5133861 453.61836148 247.17823627 452.4532931 245.83027363 451.30356026 C242.75179996 448.6778033 240.35934837 445.96490368 237.83027363 442.80356026 C236.5133861 441.61836148 235.17823627 440.4532931 233.83027363 439.30356026 C230.75179996 436.6778033 228.35934837 433.96490368 225.83027363 430.80356026 C224.5133861 429.61836148 223.17823627 428.4532931 221.83027363 427.30356026 C218.75179996 424.6778033 216.35934837 421.96490368 213.83027363 418.80356026 C212.5133861 417.61836148 211.17823627 416.4532931 209.83027363 415.30356026 C206.75179996 412.6778033 204.35934837 409.96490368 201.83027363 406.80356026 C200.5133861 405.61836148 199.17823627 404.4532931 197.83027363 403.30356026 C194.75179996 400.6778033 192.35934837 397.96490368 189.83027363 394.80356026 C188.5133861 393.61836148 187.17823627 392.4532931 185.83027363 391.30356026 C182.75179996 388.6778033 180.35934837 385.96490368 177.83027363 382.80356026 C176.5133861 381.61836148 175.17823627 380.4532931 173.83027363 379.30356026 C170.75179996 376.6778033 168.35934837 373.96490368 165.83027363 370.80356026 C164.5133861 369.61836148 163.17823627 368.4532931 161.83027363 367.30356026 C158.75179996 364.6778033 156.35934837 361.96490368 153.83027363 358.80356026 C152.5133861 357.61836148 151.17823627 356.4532931 149.83027363 355.30356026 C146.75179996 352.6778033 144.35934837 349.96490368 141.83027363 346.80356026 C140.5133861 345.61836148 139.17823627 344.4532931 137.83027363 343.30356026 C134.75179996 340.6778033 132.35934837 337.96490368 129.83027363 334.80356026 C128.5133861 333.61836148 127.17823627 332.4532931 125.83027363 331.30356026 C122.75179996 328.6778033 120.35934837 325.96490368 117.83027363 322.80356026 C116.5133861 321.61836148 115.17823627 320.4532931 113.83027363 319.30356026 C110.75179996 316.6778033 108.35934837 313.96490368 105.83027363 310.80356026 C104.5133861 309.61836148 103.17823627 308.4532931 101.83027363 307.30356026 C98.75179996 304.6778033 96.35934837 301.96490368 93.83027363 298.80356026 C92.5133861 297.61836148 91.17823627 296.4532931 89.83027363 295.30356026 C86.75179996 292.6778033 84.35934837 289.96490368 81.83027363 286.80356026 C80.5133861 285.61836148 79.17823627 284.4532931 77.83027363 283.30356026 C74.75179996 280.6778033 72.35934837 277.96490368 69.83027363 274.80356026 C68.5133861 273.61836148 67.17823627 272.4532931 65.83027363 271.30356026 C62.75179996 268.6778033 60.35934837 265.96490368 57.83027363 262.80356026 C56.5133861 261.61836148 55.17823627 260.4532931 53.83027363 259.30356026 C50.75179996 256.6778033 48.35934837 253.96490368 45.83027363 250.80356026 C44.5133861 249.61836148 43.17823627 248.4532931 41.83027363 247.30356026 C38.75179996 244.6778033 36.35934837 241.96490368 33.83027363 238.80356026 C32.5133861 237.61836148 31.17823627 236.4532931 29.83027363 235.30356026 C26.75179996 232.6778033 24.35934837 229.96490368 21.83027363 226.80356026 C20.5133861 225.61836148 19.17823627 224.4532931 17.83027363 223.30356026 C14.75179996 220.6778033 12.35934837 217.96490368 9.83027363 214.80356026 C8.5133861 213.61836148 7.17823627 212.4532931 5.83027363 211.30356026 C2.75179996 208.6778033 0.35934837 205.96490368 -2.16972637 202.80356026 C-3.4866139 201.61836148 -4.82176373 200.4532931 -6.16972637 199.30356026 C-9.24820004 196.6778033 -11.64065163 193.96490368 -14.16972637 190.80356026 C-15.4866139 189.61836148 -16.82176373 188.4532931 -18.16972637 187.30356026 C-21.24820004 184.6778033 -23.64065163 181.96490368 -26.16972637 178.80356026 C-27.4866139 177.61836148 -28.82176373 176.4532931 -30.16972637 175.30356026 C-33.24820004 172.6778033 -35.64065163 169.96490368 -38.16972637 166.80356026 C-39.4866139 165.61836148 -40.82176373 164.4532931 -42.16972637 163.30356026 C-45.24820004 160.6778033 -47.64065163 157.96490368 -50.16972637 154.80356026 C-52.1787309 152.99545618 -54.23419656 151.24858844 -56.29082012 149.49496651 C-58.54339862 147.46717754 -60.28613527 145.17323938 -62.16972637 142.80356026 C-64.00348403 141.19752414 -65.87218867 139.65391066 -67.77910137 138.13559151 C-68.23800762 137.69602119 -68.69691387 137.25645088 -69.16972637 136.80356026 C-69.16972637 136.14356026 -69.16972637 135.48356026 -69.16972637 134.80356026 C-70.19477276 134.74990303 -70.19477276 134.74990303 -71.24052715 134.69516182 C-75.52547678 133.39089144 -77.91913433 130.66500597 -81.03691387 127.53793526 C-81.67589611 126.90752327 -82.31487835 126.27711128 -82.97322369 125.6275959 C-84.31789849 124.29438765 -85.65738881 122.95593262 -86.991992 121.61264229 C-89.04119878 119.55709876 -91.11564847 117.52965927 -93.19316387 115.50277901 C-94.49686658 114.20362077 -95.79900554 112.90289102 -97.09941387 111.60043526 C-98.03513729 110.69234108 -98.03513729 110.69234108 -98.98976421 109.76590157 C-99.83657253 108.90040688 -99.83657253 108.90040688 -100.70048809 108.01742744 C-101.20280956 107.51636482 -101.70513103 107.0153022 -102.22267437 106.49905586 C-103.16972637 104.80356026 -103.16972637 104.80356026 -102.97202492 102.47286606 C-101.99522537 99.22298268 -100.66911372 97.79745373 -98.28000164 95.39917183 C-97.44299221 94.54943794 -96.60598278 93.69970406 -95.74360943 92.82422066 C-94.81841503 91.90555214 -93.89322063 90.98688362 -92.93999004 90.04037666 C-91.96029843 89.05362594 -90.98145247 88.06603499 -90.00339031 87.07766914 C-87.34740175 84.39918188 -84.67883977 81.73356465 -82.00714946 79.07074976 C-79.77896447 76.84767303 -77.55700613 74.61842547 -75.3350237 72.38915193 C-70.09550675 67.13263609 -64.84577923 61.88647621 -59.58940411 56.64682198 C-54.16175058 51.23611095 -48.75071191 45.80918718 -43.34769171 40.3738867 C-38.71042802 35.70996759 -34.06356341 31.0557749 -29.40870553 26.4094156 C-26.627549 23.63319751 -23.8501204 20.85349379 -21.08167362 18.06459618 C-18.48019697 15.44482457 -15.86695328 12.83740142 -13.24400806 10.23913002 C-11.82179357 8.82434555 -10.41193979 7.39716972 -9.00242901 5.96972847 C-8.15696011 5.13691353 -7.3114912 4.30409859 -6.44040203 3.44604683 C-5.34172944 2.3482537 -5.34172944 2.3482537 -4.22086143 1.22828293 C-2.16972637 -0.19643974 -2.16972637 -0.19643974 0 0 Z " fill="#BE616A" transform="translate(144.16972637176514,41.19643974304199)"/>
</svg>
