<?xml version="1.0" encoding="UTF-8"?>
<svg version="1.1" xmlns="http://www.w3.org/2000/svg" width="2000" height="2000">
<path d="M0 0 C1.86844405 -0.00702048 3.73688785 -0.01410731 5.60533142 -0.02125549 C11.54157863 -0.04065474 17.47778679 -0.04568922 23.4140625 -0.046875 C24.93004343 -0.04753778 24.93004343 -0.04753778 26.47665024 -0.04821396 C55.24005734 -0.05481217 83.88635103 0.00131658 112.52850342 2.94665527 C115.20581564 3.2201599 117.8842138 3.48048449 120.56298828 3.73925781 C159.05470961 7.49219141 197.19671172 13.22219141 235.0390625 21.203125 C235.79153259 21.36127686 236.54400269 21.51942871 237.3192749 21.68237305 C317.08997149 38.51824999 394.49783811 66.14717892 510.0390625 124.203125 C511.66279785 125.11167236 511.66279785 125.11167236 513.31933594 126.03857422 C553.21432644 148.41690669 591.62578595 173.50702468 628.0390625 201.203125 C628.60044922 201.62803223 629.16183594 202.05293945 629.74023438 202.49072266 C638.38953807 209.04000033 646.82065575 215.83869555 655.21435547 222.71044922 C656.82129946 224.02498702 658.43185441 225.33510802 660.04296875 226.64453125 C670.10802639 234.83429431 680.00666943 243.16961165 689.56640625 251.9453125 C691.65774189 253.85493651 693.77165114 255.72643752 695.9140625 257.578125 C704.50596386 265.06082598 712.7695794 272.86161631 720.7734375 280.96875 C722.82269814 282.98974497 724.91831539 284.89181449 727.1015625 286.765625 C732.90513582 291.75014563 738.32476381 297.13079937 743.2890625 302.953125 C746.52247954 306.73048135 750.00629789 310.20967969 753.5390625 313.703125 C757.59999859 317.72353165 761.54199461 321.76536679 765.2421875 326.125 C767.10920726 328.28424894 769.03854156 330.37909188 770.98046875 332.47094727 C775.81813258 337.68346413 780.4070231 343.02283312 784.8671875 348.56640625 C786.97662599 351.12732528 789.16793898 353.57435955 791.4140625 356.015625 C795.93559762 360.98382823 800.05058456 366.21116077 804.1640625 371.515625 C806.52918883 374.56386683 808.94315042 377.56863236 811.37353516 380.56494141 C818.31220475 389.13569978 824.86520932 397.96702207 831.34814453 406.88574219 C832.87795867 408.98233414 834.42203648 411.06721751 835.97265625 413.1484375 C852.82546137 435.9241795 868.55159356 459.86020282 883.0390625 484.203125 C883.86809082 485.59168701 883.86809082 485.59168701 884.71386719 487.00830078 C893.55353134 501.86159289 901.94128235 516.93405664 910.0390625 532.203125 C910.59029785 533.23711426 911.1415332 534.27110352 911.70947266 535.33642578 C934.63101786 578.43580656 953.86213528 623.15904655 970.0390625 669.203125 C970.30354187 669.95531311 970.56802124 670.70750122 970.84051514 671.48248291 C997.03029794 746.17575154 1013.58027907 823.9637316 1021.3515625 902.703125 C1021.46487411 903.83883942 1021.46487411 903.83883942 1021.58047485 904.99749756 C1022.14196194 910.72732725 1022.60553599 916.4623151 1023.0390625 922.203125 C1023.12519806 923.31022827 1023.21133362 924.41733154 1023.30007935 925.5579834 C1025.09136136 949.20567552 1025.40248589 972.79461147 1025.35712051 996.50296402 C1025.35147915 999.49736841 1025.34865939 1002.49176713 1025.34603882 1005.48617554 C1025.31107264 1032.9651695 1025.10910103 1060.33181905 1022.29553223 1087.69256592 C1022.0220276 1090.36987814 1021.76170301 1093.0482763 1021.50292969 1095.72705078 C1014.50743533 1167.47148605 1000.60885258 1238.67712651 978.0390625 1307.203125 C977.63624054 1308.42905365 977.63624054 1308.42905365 977.22528076 1309.67974854 C969.83670277 1332.12558282 962.05476625 1354.35302762 953.0390625 1376.203125 C952.59498047 1377.28513184 952.15089844 1378.36713867 951.69335938 1379.48193359 C944.91840243 1395.92948195 937.6229529 1412.11430326 930.0390625 1428.203125 C929.54792969 1429.24855469 929.05679687 1430.29398438 928.55078125 1431.37109375 C917.65784767 1454.50779964 905.95340762 1477.12952256 893.0390625 1499.203125 C892.52907715 1500.08000977 892.0190918 1500.95689453 891.49365234 1501.86035156 C878.49752982 1524.19376922 864.80911764 1545.9986726 850.0390625 1567.203125 C849.24870605 1568.34104492 849.24870605 1568.34104492 848.44238281 1569.50195312 C829.40710755 1596.86286901 809.0741465 1623.25255192 787.41601562 1648.58789062 C785.99784904 1650.25147043 784.58830933 1651.92208376 783.1796875 1653.59375 C777.26862066 1660.58241652 771.17561489 1667.35835365 764.89697266 1674.01904297 C762.06187426 1677.02754187 759.26895747 1680.04328788 756.6015625 1683.203125 C752.51814713 1687.96536901 747.9752102 1692.2928875 743.51904297 1696.70166016 C740.29660268 1699.90162763 737.15281267 1703.10014747 734.2265625 1706.578125 C731.11366061 1710.25558341 727.59839399 1713.33425557 723.984375 1716.51171875 C720.34332449 1719.83888559 716.88213561 1723.32237871 713.4140625 1726.828125 C709.07913972 1731.20153766 704.75565647 1735.5016171 700.046875 1739.4765625 C697.90904155 1741.3149329 695.84169656 1743.22181828 693.77563477 1745.14013672 C688.56211666 1749.9797934 683.22096657 1754.56978849 677.67578125 1759.03125 C675.11486222 1761.14068849 672.66782795 1763.33200148 670.2265625 1765.578125 C665.85205424 1769.55996087 661.29377175 1773.22054583 656.62255859 1776.84204102 C652.80591682 1779.80357984 649.04694533 1782.82272329 645.31933594 1785.89550781 C636.56617988 1793.10220057 627.53265329 1799.86669378 618.35351562 1806.51953125 C616.22383957 1808.06871332 614.10622049 1809.63270049 611.9921875 1811.203125 C574.44146939 1838.93386617 534.24397236 1863.34566586 493.0390625 1885.203125 C492.45487549 1885.51336609 491.87068848 1885.82360718 491.26879883 1886.14324951 C470.2131556 1897.31277611 448.8740131 1907.64679866 427.0390625 1917.203125 C425.86730469 1917.71601074 424.69554687 1918.22889648 423.48828125 1918.75732422 C338.20377955 1955.85411511 248.17088845 1980.2860089 122.6015625 1996.515625 C121.47293289 1996.62880066 121.47293289 1996.62880066 120.32150269 1996.7442627 C114.56639056 1997.31144746 108.80608198 1997.77518446 103.0390625 1998.203125 C101.89717468 1998.2895929 100.75528687 1998.37606079 99.57879639 1998.46514893 C76.62965982 2000.15073737 53.74984014 2000.51946237 30.74414062 2000.46386719 C25.99181496 2000.45247365 21.23971336 2000.45926769 16.48739529 2000.47073746 C-14.84439577 2000.53502479 -45.85064516 1999.24438932 -77.0234375 1995.953125 C-78.04656036 1995.84674713 -79.06968323 1995.74036926 -80.12380981 1995.63076782 C-165.15169401 1986.73880833 -249.17315741 1967.21004201 -471.47314453 1869.66992188 C-474.12908728 1868.10398428 -476.79275688 1866.55171512 -479.45703125 1865 C-506.75721866 1849.0472237 -533.35725267 1831.76534005 -558.9609375 1813.203125 C-559.70714355 1812.66268555 -560.45334961 1812.12224609 -561.22216797 1811.56542969 C-582.57281182 1796.05937549 -603.27894597 1779.73380114 -623.33691406 1762.58886719 C-625.02807971 1761.14583408 -626.72468369 1759.70937683 -628.421875 1758.2734375 C-635.92109783 1751.91071194 -643.21092318 1745.3620999 -650.39941406 1738.65136719 C-651.91777873 1737.2431528 -653.44795684 1735.84941169 -654.984375 1734.4609375 C-660.95974205 1729.05535112 -666.7230831 1723.49217286 -672.38452148 1717.75805664 C-675.17370216 1714.94532793 -677.98217243 1712.24695748 -681.0234375 1709.703125 C-685.11050466 1706.23297364 -688.6505186 1702.28529496 -692.24707031 1698.32348633 C-695.81907301 1694.40068198 -699.49611477 1690.61558408 -703.2734375 1686.890625 C-707.02901418 1683.1779692 -710.64020411 1679.40609694 -714.0625 1675.3828125 C-716.08063295 1673.06569689 -718.16397535 1670.82146119 -720.26147461 1668.57641602 C-725.23802695 1663.24797844 -729.99247279 1657.8257917 -734.55859375 1652.13671875 C-737.41055325 1648.65408203 -740.36935875 1645.27551207 -743.3359375 1641.890625 C-748.94620072 1635.46233352 -754.27562181 1628.86430837 -759.48486328 1622.10888672 C-761.07965229 1620.04985215 -762.68906041 1618.0028361 -764.30078125 1615.95703125 C-771.83676008 1606.37046022 -779.1157265 1596.630526 -786.18408203 1586.69433594 C-787.51816314 1584.8239095 -788.8587854 1582.95814575 -790.20263672 1581.09472656 C-796.51325876 1572.33403516 -802.60365151 1563.44080443 -808.5859375 1554.453125 C-809.29910126 1553.38247299 -809.29910126 1553.38247299 -810.02667236 1552.29019165 C-856.11518986 1482.99986096 -893.56714351 1407.87122178 -921.9609375 1325.203125 C-922.3312207 1324.11384705 -922.3312207 1324.11384705 -922.70898438 1323.00256348 C-931.07960316 1298.31210827 -938.58049216 1273.48177162 -944.9609375 1248.203125 C-945.15409546 1247.44038269 -945.34725342 1246.67764038 -945.54626465 1245.89178467 C-957.84912575 1197.189433 -966.34955089 1147.69598421 -971.2734375 1097.703125 C-971.38661316 1096.56809036 -971.38661316 1096.56809036 -971.5020752 1095.41012573 C-972.06364787 1089.67983244 -972.52737558 1083.94440391 -972.9609375 1078.203125 C-973.04707306 1077.09602173 -973.13320862 1075.98891846 -973.22195435 1074.8482666 C-975.01323636 1051.20057448 -975.32436089 1027.61163853 -975.27899551 1003.90328598 C-975.27335415 1000.90888159 -975.27053439 997.91448287 -975.26791382 994.92007446 C-975.23293768 967.43325356 -975.02351783 940.063028 -972.21417236 912.6942749 C-971.94595526 910.0557401 -971.69235576 907.41606325 -971.44091797 904.77587891 C-962.66790898 813.48277794 -942.02239935 723.16707404 -887.9609375 589.203125 C-887.45208008 588.08389648 -886.94322266 586.96466797 -886.41894531 585.81152344 C-875.46761109 561.79847629 -863.7999136 538.26246701 -850.9609375 515.203125 C-850.45481934 514.28740723 -849.94870117 513.37168945 -849.42724609 512.42822266 C-837.13861161 490.21102257 -823.78345853 468.76133543 -809.7109375 447.640625 C-808.96751602 446.52392929 -808.96751602 446.52392929 -808.20907593 445.38467407 C-797.26530255 428.97162318 -785.90349929 412.90453423 -773.9609375 397.203125 C-773.53603027 396.64173828 -773.11112305 396.08035156 -772.67333984 395.50195312 C-766.61368575 387.49927082 -760.33966014 379.68953173 -753.98828125 371.91796875 C-751.59803868 368.99214704 -749.24015777 366.04300576 -746.8984375 363.078125 C-739.35265737 353.62604252 -731.35665393 344.55198063 -723.18359375 335.640625 C-721.28671986 333.56039775 -719.42700807 331.45755602 -717.5859375 329.328125 C-710.10200978 320.73481506 -702.29978404 312.47009432 -694.19140625 304.46484375 C-692.19180006 302.43722206 -690.31238481 300.36530472 -688.4609375 298.203125 C-682.55152979 291.32040308 -676.04733531 285.0664041 -669.15625 279.1796875 C-666.31715566 276.62349224 -663.64514485 273.92022908 -660.9609375 271.203125 C-657.11941487 267.31939437 -653.23720963 263.57757706 -649.07421875 260.03515625 C-646.90417422 258.15391617 -644.79567399 256.21325287 -642.69091797 254.25952148 C-637.47890067 249.42285523 -632.14042336 244.83451591 -626.59765625 240.375 C-624.03673722 238.26556151 -621.58970295 236.07424852 -619.1484375 233.828125 C-614.18376192 229.30980038 -608.96006353 225.19750564 -603.66015625 221.0859375 C-600.56057571 218.68070891 -597.49918147 216.23177903 -594.44677734 213.76708984 C-586.76193871 207.56638693 -578.94270529 201.56903157 -570.99707031 195.70654297 C-569.67381697 194.72949332 -568.35272424 193.74950827 -567.03417969 192.76611328 C-495.09562324 139.16805639 -414.21192599 95.41617961 -321.94952393 60.93695068 C-320.01929797 60.22466111 -318.09118257 59.50693674 -316.16357422 58.78759766 C-233.08118122 27.91216219 -145.90377559 10.40692687 -49.47265625 2 C-48.69162033 1.933573 -47.91058441 1.867146 -47.10588074 1.79870605 C-31.41208766 0.52876309 -15.74056987 0.03674714 0 0 Z " fill="#D1CABE" transform="translate(974.9609375,-0.203125)"/>
<path d="M0 0 C1.74785969 -0.00239469 3.49571835 -0.00566298 5.24357498 -0.0097166 C10.02679332 -0.01829383 14.80993266 -0.01452802 19.59315212 -0.00866088 C24.80457648 -0.00447641 30.01598679 -0.01190053 35.22740769 -0.01781338 C44.35475055 -0.02656524 53.48207096 -0.0278911 62.60941696 -0.02431011 C76.18239251 -0.01899902 89.75534636 -0.02510251 103.32831955 -0.03339304 C128.27579907 -0.04821243 153.2232652 -0.05048319 178.17074746 -0.04807267 C181.70313084 -0.0477342 185.23551422 -0.04741211 188.76789761 -0.04710698 C189.8203905 -0.04701542 189.8203905 -0.04701542 190.89414589 -0.046922 C206.45768558 -0.04564903 222.02122391 -0.04825345 237.58476319 -0.05163305 C241.14059837 -0.05240379 244.69643356 -0.05314853 248.25226875 -0.05389806 C249.67941855 -0.05419976 251.10656835 -0.05450164 252.53371816 -0.05480371 C253.24114143 -0.05495338 253.9485647 -0.05510306 254.67742504 -0.05525728 C256.10837344 -0.05556081 257.53932184 -0.0558655 258.97027024 -0.05617132 C299.56303552 -0.0648422 340.15579959 -0.06948981 380.74856567 -0.06522369 C381.49992625 -0.06514564 382.25128683 -0.06506758 383.0254159 -0.06498716 C391.40350532 -0.06411439 399.78159474 -0.06318513 408.15968415 -0.06223653 C409.29426806 -0.06210826 409.29426806 -0.06210826 410.45177285 -0.06197741 C416.73599937 -0.06126669 416.73599937 -0.06126669 419.62844232 -0.06093518 C468.00662699 -0.05539975 516.38479257 -0.06294146 564.76297379 -0.08170605 C576.95311733 -0.08642843 589.14326089 -0.09110902 601.33340454 -0.09554291 C602.08404556 -0.09581623 602.83468659 -0.09608955 603.60807431 -0.09637116 C626.75082408 -0.1047451 649.89357227 -0.10942236 673.03632355 -0.11025047 C674.1265183 -0.11029002 674.1265183 -0.11029002 675.23873718 -0.11033037 C691.1951394 -0.11087121 707.15154149 -0.11049858 723.10794367 -0.10929066 C728.81765678 -0.10886505 734.5273699 -0.10849992 740.23708302 -0.10816122 C741.65745479 -0.10807591 743.07782657 -0.10798698 744.49819835 -0.1078944 C767.10877976 -0.10644702 789.71934818 -0.11356284 812.32992648 -0.12489836 C835.74192348 -0.13655965 859.1538923 -0.1370989 882.56589147 -0.12505493 C896.05711702 -0.11842513 909.54828155 -0.12006025 923.03950222 -0.13364345 C932.05609548 -0.14188889 941.07264303 -0.13918911 950.08923258 -0.12766818 C955.22328426 -0.12141281 960.35721689 -0.11980836 965.49126169 -0.13153151 C970.17189262 -0.14212069 974.85230437 -0.13863225 979.5329238 -0.12442699 C981.20592786 -0.12172287 982.87894987 -0.12391797 984.55193691 -0.13193413 C1020.40139237 -0.29183325 1053.41604625 10.93704136 1079.34793472 36.22713184 C1094.67488653 51.66816776 1105.47657413 69.86256904 1111.62137222 90.69197559 C1111.86395767 91.50094288 1112.10654312 92.30991016 1112.35647964 93.14339161 C1116.18231934 106.89288337 1116.6039567 120.88357167 1116.5605545 135.04579639 C1116.56264565 136.79231845 1116.56561174 138.53883963 1116.56936324 140.28535891 C1116.57710725 145.06018271 1116.57251475 149.83492497 1116.56580733 154.60974735 C1116.56071418 159.81376278 1116.56726157 165.01776613 1116.572294 170.22177982 C1116.57950563 179.33447734 1116.57930545 188.44715114 1116.57419968 197.55984974 C1116.56662782 211.11086844 1116.57050579 224.66186717 1116.57661629 238.21288574 C1116.58653413 261.01398445 1116.58690864 283.81507086 1116.58146286 306.61616993 C1116.58129727 307.30982489 1116.58113168 308.00347985 1116.58096107 308.71815465 C1116.58079521 309.4129265 1116.58062935 310.10769834 1116.58045847 310.82352388 C1116.57540875 332.0044884 1116.57411087 353.18544907 1116.57650375 374.36641407 C1116.57665871 375.78571356 1116.57681303 377.20501306 1116.57696669 378.62431255 C1116.57758765 384.32813013 1116.57822498 390.03194771 1116.57888622 395.73576529 C1116.58072009 411.67952237 1116.5818614 427.62327946 1116.5824585 443.56703663 C1116.58248579 444.29303031 1116.58251308 445.01902399 1116.5825412 445.76701748 C1116.58335955 468.89449027 1116.58110703 492.02196172 1116.57675934 515.14943409 C1116.57654859 516.27433332 1116.57654859 516.27433332 1116.57633359 517.42195778 C1116.57404379 529.59977999 1116.57160482 541.77760217 1116.56915324 553.95542435 C1116.55944084 602.25172639 1116.55989164 650.54801735 1116.56961441 698.84431934 C1116.57205686 711.01605192 1116.574479 723.18778449 1116.57675934 735.3595171 C1116.57697068 736.48375932 1116.57697068 736.48375932 1116.5771863 737.63071351 C1116.58149975 760.73444737 1116.58332701 783.83818031 1116.5824585 806.94191456 C1116.58241774 808.03010174 1116.58241774 808.03010174 1116.58237617 809.14027249 C1116.58175116 825.06642393 1116.5804838 840.99257526 1116.57863749 856.9187266 C1116.57797923 862.61739342 1116.57735306 868.31606025 1116.57673607 874.01472708 C1116.57658129 875.43235976 1116.57642383 876.84999245 1116.57626368 878.26762513 C1116.57387812 899.44201722 1116.57590622 920.61640498 1116.58096107 941.79079653 C1116.58120946 942.83127897 1116.58120946 942.83127897 1116.58146286 943.89278126 C1116.58162822 944.58515219 1116.58179359 945.27752312 1116.58196397 945.99087499 C1116.58748444 969.36031222 1116.58543925 992.72973602 1116.57490137 1016.09917259 C1116.56902789 1029.5688033 1116.56864679 1043.03840756 1116.57619372 1056.50803758 C1116.58067931 1065.50637199 1116.57788583 1074.50468519 1116.56918418 1083.50301646 C1116.56442887 1088.62906338 1116.56279535 1093.75505778 1116.56999615 1098.88110304 C1116.5764891 1103.5509264 1116.57366553 1108.22065097 1116.56363483 1112.89046723 C1116.56163235 1114.56293577 1116.5629212 1116.23541263 1116.5680467 1117.90787452 C1116.60843366 1132.1015044 1115.74260765 1146.05761471 1111.68387222 1159.75447559 C1111.42734879 1160.63466358 1111.17082535 1161.51485157 1110.90652847 1162.42171192 C1108.31481464 1170.8992877 1104.63980309 1178.54437084 1100.30887222 1186.25447559 C1099.79324722 1187.19678028 1099.27762222 1188.13908497 1098.74637222 1189.10994434 C1095.20142823 1195.32322933 1090.92998366 1200.80786174 1086.30887222 1206.25447559 C1085.61922379 1207.07947559 1084.92957535 1207.90447559 1084.21902847 1208.75447559 C1063.65191375 1232.55728468 1033.61844629 1247.09997414 1002.40718217 1250.05529473 C995.69966787 1250.48650029 988.9743165 1250.39209973 982.25583839 1250.38311005 C980.51631017 1250.38445779 978.77678225 1250.3862423 977.03725487 1250.38842228 C972.25389641 1250.39314576 967.47055702 1250.39165272 962.68719762 1250.38914451 C957.48433999 1250.38751051 952.28148642 1250.39165304 947.07863009 1250.39505368 C937.95866237 1250.40020759 928.83869996 1250.4016249 919.71873093 1250.40059757 C906.15680056 1250.3990736 892.59487608 1250.40323229 879.03294686 1250.4084722 C853.40246639 1250.41814821 827.77198895 1250.42095716 802.14150707 1250.42152926 C799.31496472 1250.421594 796.48842237 1250.42166194 793.66188002 1250.42173266 C792.96045458 1250.42174967 792.25902915 1250.42176667 791.5363484 1250.42178419 C775.98819639 1250.42219277 760.44004478 1250.42438307 744.89189298 1250.42688851 C738.48833872 1250.42791688 732.08478445 1250.42890691 725.68123019 1250.42990476 C724.97367684 1250.43001535 724.26612349 1250.43012594 723.53712913 1250.43023988 C682.99365351 1250.4365635 642.45017817 1250.44068904 601.90670204 1250.44023132 C600.38960874 1250.44021554 598.87251544 1250.44019981 597.35542214 1250.44018411 C590.50597501 1250.44011073 583.65652788 1250.44002256 576.80708075 1250.43993023 C573.75278131 1250.43988911 570.69848188 1250.43984896 567.64418244 1250.43980892 C566.11545095 1250.43978852 564.58671947 1250.4397675 563.05798799 1250.43974586 C514.7215283 1250.43906567 466.38507595 1250.44638221 418.04861832 1250.46028614 C405.87064682 1250.46378722 393.69267531 1250.4672567 381.51470375 1250.47055054 C380.76483707 1250.47075341 380.01497039 1250.47095629 379.24238047 1250.47116531 C356.12670482 1250.47738136 333.01102977 1250.48114607 309.89535332 1250.48240852 C308.80656206 1250.48246845 308.80656206 1250.48246845 307.69577503 1250.48252959 C291.76048705 1250.48338291 275.82519912 1250.48364404 259.88991112 1250.48335921 C254.18779891 1250.48326273 248.4856867 1250.48321068 242.78357448 1250.48318048 C241.36505826 1250.48317257 239.94654204 1250.48316236 238.52802582 1250.48314986 C215.93669946 1250.48297362 193.34537937 1250.48866797 170.7540548 1250.49730367 C147.36311789 1250.50619958 123.97219308 1250.50777234 100.58125441 1250.50099155 C87.09832263 1250.49729379 73.61541834 1250.49913502 60.13248947 1250.50893389 C51.12507815 1250.5149273 42.11768676 1250.51364551 33.11027636 1250.50646339 C27.97893773 1250.50257652 22.84765236 1250.50182175 17.71631746 1250.50992074 C13.04162065 1250.51723431 8.36702113 1250.51522243 3.69232855 1250.50599687 C2.01808073 1250.50428561 0.34382516 1250.50587077 -1.33041473 1250.51129808 C-14.8703365 1250.55222505 -28.48022965 1249.94841151 -41.56612778 1246.12947559 C-42.30097397 1245.91919727 -43.03582016 1245.70891895 -43.79293442 1245.49226856 C-61.01545069 1240.31984778 -75.98785337 1231.85122445 -89.69112778 1220.25447559 C-90.51483871 1219.56611622 -91.33854965 1218.87775684 -92.18722153 1218.16853809 C-110.48270268 1202.35621897 -122.82597694 1181.34728835 -129.50362778 1158.25447559 C-129.69867905 1157.5920586 -129.89373032 1156.92964161 -130.09469223 1156.24715137 C-133.68851435 1142.9022927 -133.98514626 1129.17291808 -133.94560337 1115.45591736 C-133.94799865 1113.7085976 -133.95126731 1111.96127887 -133.95531997 1110.21396217 C-133.96388905 1105.43690498 -133.96013484 1100.659927 -133.95426425 1095.88286871 C-133.95007681 1090.67638489 -133.95750557 1085.46991508 -133.96341676 1080.26343471 C-133.97216542 1071.14631696 -133.97349561 1062.02922169 -133.96991348 1052.91210079 C-133.96460071 1039.35434584 -133.97070756 1025.79661258 -133.97899642 1012.23885998 C-133.99381299 987.31922831 -133.99608688 962.39961005 -133.99367604 937.47997564 C-133.99333757 933.95197888 -133.99301548 930.42398213 -133.99271035 926.89598536 C-133.99264931 926.19519011 -133.99258826 925.49439486 -133.99252537 924.77236339 C-133.99125225 909.2261388 -133.99385709 893.67991558 -133.99723642 878.13369139 C-133.99800717 874.58152913 -133.9987519 871.02936686 -133.99950143 867.47720459 C-133.99980313 866.0515247 -134.00010501 864.6258448 -134.00040708 863.20016491 C-134.00055676 862.49346926 -134.00070644 861.78677362 -134.00086065 861.05866296 C-134.00116418 859.62918333 -134.00146887 858.1997037 -134.0017747 856.77022407 C-134.01044507 816.22141664 -134.01509352 775.67261043 -134.01082706 735.12380219 C-134.01074901 734.37331549 -134.01067095 733.6228288 -134.01059053 732.84960009 C-134.00971777 724.48130188 -134.0087885 716.11300367 -134.0078399 707.74470546 C-134.00775439 706.98920354 -134.00766888 706.23370163 -134.00758078 705.45530571 C-134.00687007 699.17852292 -134.00687007 699.17852292 -134.00653855 696.28940543 C-134.00100285 647.96566153 -134.0085458 599.64193674 -134.02730942 551.3181963 C-134.03203181 539.14112413 -134.0367124 526.96405195 -134.04114628 514.78697968 C-134.0414196 514.03714138 -134.04169292 513.28730309 -134.04197453 512.51474243 C-134.05034845 489.39679941 -134.05502573 466.27885799 -134.05585384 443.16091347 C-134.05588021 442.43490002 -134.05590658 441.70888657 -134.05593374 440.96087272 C-134.05647457 425.02170676 -134.05610196 409.08254093 -134.05489403 393.14337502 C-134.05446842 387.43985815 -134.05410329 381.73634129 -134.05376459 376.03282442 C-134.05367928 374.61399861 -134.05359035 373.19517279 -134.05349777 371.77634698 C-134.05205042 349.19090602 -134.05916597 326.60547808 -134.07050173 304.02004025 C-134.08216295 280.63472246 -134.08270232 257.24943289 -134.0706583 233.86411294 C-134.06402855 220.38843474 -134.06566351 206.91281763 -134.07924682 193.43714431 C-134.08749232 184.43094993 -134.08479241 175.42480129 -134.07327155 166.41861062 C-134.06701625 161.29051589 -134.06541154 156.16254035 -134.07713488 151.03445252 C-134.08772427 146.35923913 -134.08423537 141.68424517 -134.07003036 137.00904329 C-134.0673263 135.33800272 -134.06952115 133.66694418 -134.0775375 131.99592065 C-134.23916986 95.80121201 -122.78074079 65.29606842 -98.69112778 38.25447559 C-98.09686996 37.58674122 -97.50261215 36.91900684 -96.89034653 36.23103809 C-71.7358174 9.64089068 -35.47914922 -0.10200004 0 0 Z " fill="#2E3440" transform="translate(508.6911277770996,374.7455244064331)"/>
<path d="M0 0 C330 0 660 0 1000 0 C1000 243.21 1000 486.42 1000 737 C997.64976366 734.64976366 996.04368642 732.74469643 994.24780273 730.02612305 C993.71972519 729.23066574 993.19164764 728.43520844 992.64756775 727.61564636 C992.08195633 726.75635025 991.51634491 725.89705414 990.93359375 725.01171875 C990.04330223 723.66954033 990.04330223 723.66954033 989.13502502 722.30024719 C987.23253873 719.43150865 985.33461527 716.55979275 983.4375 713.6875 C972.70861574 697.45591121 961.77379889 681.49609957 950 666 C948.81277344 664.42605469 948.81277344 664.42605469 947.6015625 662.8203125 C940.02689612 652.82890247 931.9808845 643.24801919 923.6484375 633.87890625 C922.50406969 632.57454389 921.38581371 631.24699078 920.2890625 629.90234375 C906.58979901 613.51525008 886.26318406 601.18660966 865 598 C861.16141857 597.73705046 857.34628488 597.7196745 853.5 597.75 C852.51902344 597.74226563 851.53804687 597.73453125 850.52734375 597.7265625 C824.85238914 597.79493788 803.29054605 612.61279063 785.7121582 630.13671875 C783.72601225 632.14772347 781.75732748 634.1746459 779.7890625 636.203125 C776.66960625 639.38878946 773.4007674 642.32879156 770.02246094 645.23583984 C766.52558732 648.28610648 763.17809496 651.49397822 759.8125 654.6875 C754.69148278 659.52742457 749.56100543 664.35471945 744.375 669.125 C739.73132171 673.39689357 735.10935603 677.69108831 730.5 682 C719.72772318 692.06653072 708.87564328 702.04535714 698 712 C693.85469595 710.45141261 692.02564213 707.74633698 689.4375 704.25 C688.54763243 703.06323377 687.65698085 701.87705508 686.765625 700.69140625 C686.30865234 700.0792627 685.85167969 699.46711914 685.38085938 698.83642578 C683.18951545 695.92212434 680.94216585 693.05294107 678.6875 690.1875 C678.23632812 689.61298096 677.78515625 689.03846191 677.3203125 688.4465332 C673.74077155 683.90399076 670.09521121 679.41719284 666.4375 674.9375 C661.6726538 669.10061575 657.02554467 663.19151979 652.453125 657.203125 C645.60012351 648.23132112 638.54494935 639.41579149 631.4831543 630.6081543 C626.73505738 624.68128303 622.04200303 618.71215367 617.35888672 612.73388672 C615.07546705 609.82033183 612.78754555 606.91031584 610.5 604 C607.75951792 600.51343843 605.01990378 597.02621854 602.28515625 593.53515625 C597.55387244 587.4986907 592.79781792 581.48376068 588 575.5 C582.74365357 568.94437 577.5405794 562.34861504 572.35888672 555.73388672 C570.07546705 552.82033183 567.78754555 549.91031584 565.5 547 C562.75951792 543.51343843 560.01990378 540.02621854 557.28515625 536.53515625 C552.55387244 530.4986907 547.79781792 524.48376068 543 518.5 C536.37790865 510.24103508 529.84010678 501.91712467 523.32421875 493.57421875 C494.29799602 456.44740982 465.8631637 429.48310433 420 415 C418.31003906 414.46632813 418.31003906 414.46632813 416.5859375 413.921875 C388.17104113 405.56936944 351.46160547 409.38899587 325 422 C323.68002415 422.57668221 322.35842546 423.14966547 321.03515625 423.71875 C304.19274863 431.17810117 289.46718139 441.47982589 276 454 C275.47712402 454.48436523 274.95424805 454.96873047 274.41552734 455.46777344 C267.55848524 461.89343355 261.61372359 468.77105127 255.9140625 476.23046875 C252.71471449 480.40819374 249.36129903 484.4522481 246 488.5 C241.28682904 494.18995764 236.65597995 499.93107726 232.11547852 505.75952148 C228.61550632 510.24320042 225.03705067 514.65851024 221.4375 519.0625 C217.55012105 523.82168711 213.72659912 528.61374605 210 533.5 C205.73792101 539.08836614 201.33360701 544.54628513 196.88671875 549.98828125 C193.3766397 554.28936403 189.91574324 558.62369623 186.5 563 C182.54086551 568.07250515 178.50905284 573.07983044 174.4375 578.0625 C170.55018227 582.82173946 166.72660109 587.61374347 163 592.5 C158.73792101 598.08836614 154.33360701 603.54628513 149.88671875 608.98828125 C145.91731913 613.85219346 142.0220746 618.76803193 138.15991211 623.71728516 C134.70634291 628.13083585 131.17511126 632.47640964 127.625 636.8125 C123.15826178 642.27287441 118.81931705 647.81214341 114.5625 653.4375 C109.56347568 660.039785 104.38366203 666.46384358 99.09228516 672.83349609 C95.01314862 677.74914545 91.03317894 682.72969402 87.10839844 687.76904297 C83.67493643 692.16793138 80.1604623 696.49534857 76.625 700.8125 C72.15819104 706.27281394 67.81931466 711.81214657 63.5625 717.4375 C58.56347568 724.039785 53.38366203 730.46384358 48.09228516 736.83349609 C44.01314862 741.74914545 40.03317894 746.72969402 36.10839844 751.76904297 C32.67493635 756.16793149 29.1604652 760.49535034 25.625 764.8125 C20.41141904 771.18569499 15.36457786 777.67194268 10.40087891 784.24145508 C7.36610697 788.2517241 4.3068388 792.20894552 1 796 C0.67 796 0.34 796 0 796 C0 533.32 0 270.64 0 0 Z " fill="#D0CABE" transform="translate(500,500)"/>
<path d="M0 0 C0.95261719 0.73734375 1.90523437 1.4746875 2.88671875 2.234375 C3.68464844 2.84796875 4.48257812 3.4615625 5.3046875 4.09375 C22.58145926 18.40442112 33.66447498 40.18192947 36.88671875 62.234375 C38.61135521 89.49790395 33.67892798 112.44663399 16.88671875 134.234375 C16.31179688 134.98203125 15.736875 135.7296875 15.14453125 136.5 C1.85577631 152.64997011 -19.91943964 165.27581125 -40.82421875 168.01904297 C-69.47441297 170.71416576 -93.48886861 165.00862472 -116.11328125 147.234375 C-116.85964844 146.67234375 -117.60601563 146.1103125 -118.375 145.53125 C-135.36785725 131.88181497 -146.00426258 109.51192868 -149.11328125 88.234375 C-151.01236435 58.21314548 -144.42009648 34.07806949 -124.86328125 11.046875 C-92.5209285 -23.41811921 -37.85556941 -27.75143834 0 0 Z " fill="#2E3440" transform="translate(1306.11328125,674.765625)"/>
</svg>
