<?xml version="1.0" encoding="UTF-8" standalone="no"?>
<svg
   version="1.1"
   width="2000"
   height="2000"
   id="svg4"
   sodipodi:docname="gallery.svg"
   xmlns:inkscape="http://www.inkscape.org/namespaces/inkscape"
   xmlns:sodipodi="http://sodipodi.sourceforge.net/DTD/sodipodi-0.dtd"
   xmlns="http://www.w3.org/2000/svg"
   xmlns:svg="http://www.w3.org/2000/svg">
  <defs
     id="defs4" />
  <sodipodi:namedview
     id="namedview4"
     pagecolor="#ffffff"
     bordercolor="#000000"
     borderopacity="0.25"
     inkscape:showpageshadow="2"
     inkscape:pageopacity="0.0"
     inkscape:pagecheckerboard="0"
     inkscape:deskcolor="#d1d1d1">
    <inkscape:page
       x="0"
       y="0"
       width="2000"
       height="2000"
       id="page2"
       margin="0"
       bleed="0" />
  </sodipodi:namedview>
  <path
     d="m 974.96094,-0.203125 c 1.86844,-0.00702 3.73689,-0.0141073 5.60533,-0.0212555 5.93625,-0.0193993 11.87246,-0.0244337 17.80873,-0.0256195 1.51598,-6.6278e-4 1.51598,-6.6278e-4 3.0626,-0.001339 28.7634,-0.006598 57.4097,0.0495305 86.0518,2.9948693 2.6774,0.2735046 5.3558,0.5338292 8.0345,0.7926025 C 1134.0157,7.2890664 1172.1577,13.019066 1210,21 c 0.7525,0.158152 1.5049,0.316304 2.2802,0.479248 C 1292.0509,38.315125 1369.4588,65.944054 1485,124 c 1.6237,0.90854 1.6237,0.90854 3.2803,1.83544 39.895,22.37834 78.3064,47.46845 114.7197,75.16455 0.5614,0.42491 1.1228,0.84982 1.7012,1.2876 8.6493,6.54928 17.0804,13.34798 25.4741,20.21973 1.6069,1.31454 3.2175,2.62466 4.8286,3.93408 10.0651,8.18976 19.9637,16.52508 29.5235,25.30078 2.0913,1.90963 4.2052,3.78113 6.3476,5.63281 8.5919,7.48271 16.8555,15.2835 24.8594,23.39063 2.0492,2.02099 4.1449,3.92306 6.3281,5.79687 5.8036,4.98453 11.2232,10.36518 16.1875,16.1875 3.2334,3.77736 6.7172,7.25656 10.25,10.75 4.0609,4.02041 8.0029,8.06225 11.7031,12.42188 1.8671,2.15925 3.7964,4.25409 5.7383,6.34595 4.8377,5.21251 9.4266,10.55188 13.8867,16.09546 2.1095,2.56092 4.3008,5.00795 6.5469,7.44921 4.5215,4.96821 8.6365,10.19554 12.75,15.5 2.3651,3.04825 4.7791,6.05301 7.2095,9.04932 6.9386,8.57076 13.4917,17.40208 19.9746,26.3208 1.5298,2.09659 3.0739,4.18148 4.6245,6.2627 16.8528,22.77574 32.5789,46.71176 47.0664,71.05468 0.829,1.38857 0.829,1.38857 1.6748,2.80518 8.8397,14.85329 17.2274,29.92576 25.3252,45.19482 0.5512,1.03399 1.1025,2.06798 1.6704,3.13331 22.9216,43.09938 42.1527,87.82262 58.3296,133.86669 0.2645,0.75219 0.529,1.50438 0.8015,2.27936 26.1897,74.69327 42.7397,152.48125 50.511,231.22064 0.1133,1.13572 0.1133,1.13572 0.2289,2.29438 0.5615,5.72983 1.025,11.46482 1.4586,17.20562 0.086,1.10711 0.1722,2.21421 0.261,3.35486 1.7913,23.6477 2.1024,47.23663 2.057,70.94498 -0.01,2.99441 -0.01,5.98887 -0.011,8.98327 -0.035,27.479 -0.2369,54.8456 -3.0505,82.2064 -0.2735,2.6773 -0.5338,5.3557 -0.7926,8.0345 -6.9955,71.7444 -20.894,142.95 -43.4638,211.476 -0.4028,1.226 -0.4028,1.226 -0.8138,2.4766 -7.3886,22.4459 -15.1705,44.6733 -24.1862,66.5234 -0.4441,1.082 -0.8882,2.164 -1.3457,3.2788 -6.775,16.4476 -14.0704,32.6324 -21.6543,48.7212 -0.4911,1.0455 -0.9823,2.0909 -1.4883,3.168 -10.8929,23.1367 -22.5973,45.7584 -35.5117,67.832 -0.51,0.8769 -1.02,1.7538 -1.5454,2.6573 -12.9961,22.3334 -26.6845,44.1383 -41.4546,65.3427 -0.7903,1.1379 -0.7903,1.1379 -1.5967,2.2989 -19.0352,27.3609 -39.3682,53.7506 -61.0263,79.0859 -1.4182,1.6636 -2.8277,3.3342 -4.2364,5.0059 -5.911,6.9886 -12.004,13.7646 -18.2827,20.4252 -2.8351,3.0085 -5.628,6.0243 -8.2954,9.1841 -4.0834,4.7623 -8.6263,9.0898 -13.0825,13.4986 -3.2225,3.1999 -6.3662,6.3984 -9.2925,9.8764 -3.1129,3.6775 -6.6282,6.7562 -10.2422,9.9336 -3.641,3.3272 -7.1022,6.8107 -10.5703,10.3164 -4.3349,4.3734 -8.6584,8.6735 -13.3672,12.6485 -2.1378,1.8383 -4.2052,3.7452 -6.2712,5.6635 -5.2135,4.8397 -10.5547,9.4297 -16.0999,13.8912 -2.5609,2.1094 -5.0079,4.3007 -7.4492,6.5468 -4.3745,3.9819 -8.9328,7.6424 -13.604,11.2639 -3.8166,2.9616 -7.5756,5.9807 -11.3032,9.0535 -8.7532,7.2067 -17.7867,13.9712 -26.9658,20.624 -2.1297,1.5492 -4.2473,3.1132 -6.3614,4.6836 -37.5507,27.7308 -77.7482,52.1426 -118.9531,74 -0.5842,0.3103 -1.1684,0.6205 -1.7703,0.9401 -21.0556,11.1696 -42.3947,21.5036 -64.2297,31.0599 -1.1718,0.5129 -2.3435,1.0258 -3.5508,1.5542 -85.2845,37.0968 -175.3174,61.5287 -300.8867,77.7583 -1.1286,0.1132 -1.1286,0.1132 -2.2801,0.2287 -5.7551,0.5671 -11.5154,1.0309 -17.2824,1.4588 -1.1419,0.087 -2.2838,0.173 -3.4603,0.262 -22.9491,1.6856 -45.8289,2.0544 -68.8346,1.9988 -4.7523,-0.011 -9.50445,0 -14.25676,0.01 -31.3318,0.064 -62.33804,-1.2263 -93.51084,-4.5176 -1.02312,-0.1064 -2.04624,-0.2127 -3.10037,-0.3223 -85.02788,-8.892 -169.04935,-28.4208 -391.34933,-125.9609 -2.65595,-1.5659 -5.31962,-3.1182 -7.98389,-4.6699 -27.30019,-15.9528 -53.90022,-33.2347 -79.50391,-51.7969 -0.7462,-0.5404 -1.49241,-1.0809 -2.26123,-1.6377 -21.35064,-15.506 -42.05678,-31.8316 -62.11474,-48.9765 -1.69117,-1.4431 -3.38777,-2.8795 -5.08496,-4.3155 -7.49923,-6.3627 -14.78905,-12.9113 -21.97754,-19.622 -1.51837,-1.4082 -3.04855,-2.802 -4.58496,-4.1905 -5.97537,-5.4055 -11.73871,-10.9687 -17.40015,-16.7028 -2.78918,-2.8128 -5.59765,-5.5111 -8.63892,-8.055 -4.08706,-3.4701 -7.62708,-7.4178 -11.22363,-11.3796 -3.572,-3.9228 -7.24904,-7.7079 -11.02637,-11.4329 -3.75557,-3.7126 -7.36676,-7.4845 -10.78906,-11.5078 -2.01813,-2.3171 -4.10148,-4.5613 -6.19897,-6.8064 -4.97656,-5.3284 -9.731,-10.7506 -14.29712,-16.4397 -2.85196,-3.4826 -5.81077,-6.8612 -8.77735,-10.2461 -5.61026,-6.4283 -10.93968,-13.0263 -16.14892,-19.7817 -1.59479,-2.059 -3.2042,-4.1061 -4.81592,-6.1519 -7.53598,-9.5865 -14.81495,-19.3265 -21.8833,-29.2627 -1.33408,-1.8704 -2.67471,-3.7362 -4.01856,-5.5996 -6.31062,-8.7607 -12.40101,-17.6539 -18.3833,-26.6416 -0.71316,-1.0706 -0.71316,-1.0706 -1.44073,-2.1629 C 118.84585,1482.8 81.3939,1407.6713 53.0001,1325.0032 c -0.37028,-1.0893 -0.37028,-1.0893 -0.74804,-2.2005 -8.37062,-24.6905 -15.87151,-49.5208 -22.25196,-74.7995 -0.19316,-0.7627 -0.38631,-1.5255 -0.58532,-2.3113 -12.30287,-48.7024 -20.80329,-98.1958 -25.72718,-148.1887 -0.11317,-1.135 -0.11317,-1.135 -0.22864,-2.293 -0.56157,-5.7303 -1.0253,-11.4657 -1.45886,-17.207 -0.0861,-1.1071 -0.17227,-2.2142 -0.26101,-3.3548 -1.79129,-23.6477 -2.10241,-47.2367 -2.05705,-70.945 0.006,-2.9944 0.008,-5.98885 0.0111,-8.98326 0.035,-27.48682 0.24439,-54.85704 3.05374,-82.2258 0.26821,-2.63853 0.52181,-5.27821 0.77325,-7.91839 8.77301,-91.2931 29.41852,-181.60881 83.47998,-315.57276 0.50886,-1.11922 1.01772,-2.23845 1.54199,-3.3916 10.95134,-24.01304 22.61904,-47.54905 35.45801,-70.6084 0.50612,-0.91571 1.01224,-1.83143 1.53369,-2.7749 12.28864,-22.2172 25.64379,-43.66688 39.71631,-64.7876 0.74342,-1.11669 0.74342,-1.11669 1.50186,-2.25595 10.94378,-16.41305 22.30558,-32.48014 34.24814,-48.18155 0.42491,-0.56138 0.84982,-1.12277 1.2876,-1.70117 6.05965,-8.00268 12.33368,-15.81242 18.68506,-23.58398 2.39024,-2.92582 4.74812,-5.87496 7.08984,-8.83985 7.54578,-9.45208 15.54179,-18.52614 23.71485,-27.4375 1.89687,-2.08022 3.75658,-4.18306 5.59765,-6.3125 7.48393,-8.5933 15.28616,-16.85803 23.39453,-24.86328 1.99961,-2.02762 3.87903,-4.09954 5.73047,-6.26172 5.90941,-6.88272 12.4136,-13.13672 19.30469,-19.02343 2.83909,-2.5562 5.51111,-5.25946 8.19531,-7.97657 3.84153,-3.88373 7.72373,-7.62554 11.88672,-11.16796 2.17005,-1.88124 4.27855,-3.82191 6.3833,-5.77564 5.21202,-4.83666 10.5505,-9.425 16.09326,-13.88452 2.56092,-2.10944 5.00796,-4.30075 7.44922,-6.54688 4.96468,-4.51832 10.18838,-8.63061 15.48828,-12.74218 3.09958,-2.40523 6.16098,-4.85416 9.21338,-7.31885 7.68484,-6.2007 15.50407,-12.19806 23.44971,-18.06055 1.32325,-0.97705 2.64435,-1.95703 3.96289,-2.94043 71.93856,-53.59805 152.82225,-97.349925 245.08466,-131.829154 1.93022,-0.71229 3.85834,-1.430014 5.78595,-2.149353 83.08228,-30.878636 170.25968,-48.383871 266.6908,-56.790798 0.78104,-0.066427 1.56208,-0.132854 2.36678,-0.201294 15.69379,-1.26994291 31.36531,-1.76195886 47.10588,-1.798706 z"
     fill="#d1cabe"
     id="path1" />
  <path
     d="m 508.69113,374.74552 c 1.74786,-0.002 3.49572,-0.006 5.24357,-0.01 4.78322,-0.009 9.56636,-0.005 14.34958,10e-4 5.21143,0.004 10.42284,-0.003 15.63426,-0.009 9.12734,-0.009 18.25466,-0.0101 27.38201,-0.007 13.57297,0.005 27.14593,-7.9e-4 40.7189,-0.009 24.94748,-0.0148 49.89495,-0.0171 74.84243,-0.0147 3.53238,3.4e-4 7.06476,6.6e-4 10.59715,9.6e-4 1.05249,9e-5 1.05249,9e-5 2.12625,1.9e-4 15.56354,10e-4 31.12707,-10e-4 46.69061,-0.005 3.55584,-7.7e-4 7.11167,-0.002 10.66751,-0.002 1.42715,-3e-4 2.8543,-6e-4 4.28145,-9e-4 0.70742,-1.5e-4 1.41484,-3e-4 2.14371,-4.6e-4 1.43094,-3e-4 2.86189,-6.1e-4 4.29284,-9.1e-4 40.59277,-0.009 81.18553,-0.0133 121.7783,-0.009 0.75136,7e-5 1.50272,1.5e-4 2.27685,2.3e-4 8.37809,8.8e-4 16.75617,0.002 25.13426,0.003 1.13459,1.3e-4 1.13459,1.3e-4 2.29209,2.6e-4 6.28423,7.1e-4 6.28423,7.1e-4 9.17667,10e-4 48.37819,0.006 96.75633,-0.002 145.13453,-0.0208 12.1902,-0.005 24.3803,-0.009 36.5704,-0.0138 0.7507,-2.8e-4 1.5013,-5.5e-4 2.2747,-8.3e-4 23.1428,-0.008 46.2855,-0.0131 69.4283,-0.0139 1.0902,-4e-5 1.0902,-4e-5 2.2024,-8e-5 15.9564,-5.4e-4 31.9128,-1.7e-4 47.8692,0.001 5.7097,4.3e-4 11.4194,7.9e-4 17.1291,10e-4 1.4204,8e-5 2.8408,1.7e-4 4.2611,2.7e-4 22.6106,0.001 45.2212,-0.006 67.8318,-0.017 23.4119,-0.0117 46.8239,-0.0122 70.2359,-1.6e-4 13.4912,0.007 26.9824,0.005 40.4736,-0.009 9.0166,-0.008 18.0332,-0.006 27.0498,0.006 5.134,0.006 10.268,0.008 15.402,-0.004 4.6806,-0.0106 9.361,-0.007 14.0416,0.007 1.6731,0.003 3.3461,5.1e-4 5.0191,-0.007 35.8494,-0.1599 68.864,11.06897 94.7959,36.35906 15.327,15.44104 26.1287,33.63544 32.2735,54.46485 0.2426,0.80896 0.4851,1.61793 0.7351,2.45141 3.8258,13.74949 4.2475,27.74018 4.2041,41.90241 0,1.74652 0,3.49304 0.01,5.23956 0.01,4.77482 0,9.54956 0,14.32439 -0.01,5.20401 0,10.40802 0.01,15.61203 0.01,9.1127 0.01,18.22537 0,27.33807 -0.01,13.55102 0,27.10202 0,40.65304 0.01,22.80109 0.01,45.60218 0,68.40328 -2e-4,0.69365 -4e-4,1.38731 -5e-4,2.10198 -2e-4,0.69478 -4e-4,1.38955 -5e-4,2.10537 -0.01,21.18097 -0.01,42.36193 0,63.54289 2e-4,1.4193 3e-4,2.8386 5e-4,4.2579 6e-4,5.70382 0,11.40764 0,17.11146 0,15.94375 0,31.88751 0,47.83127 0,0.72599 0,1.45198 0,2.19998 9e-4,23.12747 0,46.25494 -0.01,69.38241 -3e-4,1.1249 -3e-4,1.1249 -5e-4,2.27253 0,12.17782 0,24.35564 -0.01,36.53346 -0.01,48.29631 -0.01,96.59256 4e-4,144.88886 0,12.1718 0,24.3435 0.01,36.5152 2e-4,1.1243 2e-4,1.1243 4e-4,2.2712 0,23.1038 0.01,46.2075 0.01,69.3112 -10e-5,1.0882 -10e-5,1.0882 -10e-5,2.1984 -6e-4,15.9261 0,31.8523 0,47.7784 -6e-4,5.6987 0,11.3974 0,17.096 -10e-5,1.4177 -3e-4,2.8353 -4e-4,4.2529 0,21.1744 -4e-4,42.3488 0,63.5232 2e-4,1.0405 2e-4,1.0405 5e-4,2.102 10e-5,0.6924 3e-4,1.3847 5e-4,2.0981 0.01,23.3694 0,46.7389 -0.01,70.1083 -0.01,13.4696 -0.01,26.9392 0,40.4088 0,8.9984 0,17.9967 -0.01,26.995 0,5.1261 -0.01,10.2521 8e-4,15.3781 0.01,4.6698 0,9.3396 -0.01,14.0094 0,1.6724 -7e-4,3.3449 0,5.0174 0.04,14.1936 -0.8254,28.1497 -4.8841,41.8466 -0.2566,0.8802 -0.5131,1.7604 -0.7774,2.6672 -2.5917,8.4776 -6.2667,16.1227 -10.5976,23.8328 -0.5157,0.9423 -1.0313,1.8846 -1.5625,2.8554 -3.545,6.2133 -7.8164,11.698 -12.4375,17.1446 -0.6897,0.825 -1.3793,1.65 -2.0899,2.5 -20.5671,23.8028 -50.6006,38.3455 -81.8118,41.3008 -6.7075,0.4312 -13.4328,0.3368 -20.1513,0.3278 -1.7396,0 -3.4791,0 -5.2186,0.01 -4.7834,0 -9.5667,0 -14.3501,7e-4 -5.2028,0 -10.4057,0 -15.6085,0.01 -9.12,0.01 -18.24,0.01 -27.3599,0.01 -13.562,0 -27.1239,0 -40.6858,0.01 -25.6305,0.01 -51.261,0.013 -76.8915,0.013 -2.8265,1e-4 -5.6531,2e-4 -8.4796,2e-4 -0.7014,0 -1.4028,10e-5 -2.1255,10e-5 -15.5482,4e-4 -31.0963,0 -46.6445,0.01 -6.4035,10e-4 -12.8071,0 -19.2106,0 -0.7076,10e-5 -1.4151,2e-4 -2.1441,3e-4 -40.5435,0.01 -81.087,0.011 -121.6305,0.01 -1.5171,0 -3.0342,0 -4.5513,0 -6.8494,-10e-5 -13.6988,-2e-4 -20.5483,-3e-4 -3.0543,0 -6.1086,-10e-5 -9.1629,-10e-5 -1.5287,0 -3.0575,0 -4.5862,-10e-5 -48.3364,-6e-4 -96.67289,0.01 -145.00935,0.021 -12.17797,0 -24.35594,0.01 -36.53392,0.01 -0.74986,2e-4 -1.49973,4e-4 -2.27232,6e-4 -23.11568,0.01 -46.23135,0.01 -69.34703,0.011 -1.08879,10e-5 -1.08879,10e-5 -2.19957,10e-5 -15.93529,9e-4 -31.87058,0 -47.80587,9e-4 -5.70211,-10e-5 -11.40422,-2e-4 -17.10634,-2e-4 -1.41851,0 -2.83703,0 -4.25554,-1e-4 -22.59133,-10e-5 -45.18265,0.01 -67.77398,0.014 -23.39093,0.01 -46.78186,0.011 -70.1728,0 -13.48293,0 -26.96583,0 -40.44876,0.01 -9.00741,0.01 -18.0148,0 -27.02221,0 -5.13134,0 -10.26263,0 -15.39396,0 -4.6747,0.01 -9.3493,0.01 -14.02399,0 -1.67425,0 -3.3485,-10e-5 -5.02274,0.01 -13.53993,0.041 -27.14982,-0.5629 -40.23572,-4.3818 -0.73484,-0.2103 -1.46969,-0.4206 -2.2268,-0.6372 -17.22252,-5.1725 -32.19492,-13.6411 -45.8982,-25.2378 -0.82371,-0.6884 -1.64742,-1.3767 -2.49609,-2.086 -18.29548,-15.8123 -30.63876,-36.8212 -37.31641,-59.914 -0.19505,-0.6624 -0.3901,-1.3249 -0.59106,-2.0073 -3.59382,-13.3449 -3.89046,-27.0743 -3.85091,-40.7913 -0.002,-1.7473 -0.006,-3.4946 -0.01,-5.2419 -0.009,-4.7771 -0.005,-9.5541 0.001,-14.3311 0.004,-5.2065 -0.003,-10.413 -0.009,-15.6195 -0.009,-9.1171 -0.0101,-18.2342 -0.006,-27.3513 0.005,-13.5578 -8e-4,-27.1155 -0.009,-40.6732 -0.0148,-24.9197 -0.0171,-49.8393 -0.0147,-74.7589 3.4e-4,-3.528 6.6e-4,-7.056 9.7e-4,-10.584 6e-5,-0.7008 1.2e-4,-1.4016 1.8e-4,-2.1236 10e-4,-15.5462 -0.001,-31.0925 -0.005,-46.6387 -7.7e-4,-3.5522 -0.002,-7.1043 -0.002,-10.6565 -3e-4,-1.4257 -6.1e-4,-2.8513 -9.1e-4,-4.277 -1.5e-4,-0.7067 -3e-4,-1.4134 -4.5e-4,-2.1415 -3e-4,-1.4295 -6.1e-4,-2.859 -9.1e-4,-4.2885 -0.009,-40.5488 -0.0133,-81.0976 -0.009,-121.6464 8e-5,-0.7505 1.6e-4,-1.501 2.4e-4,-2.2742 8.7e-4,-8.3683 0.002,-16.7366 0.003,-25.1049 9e-5,-0.7555 1.7e-4,-1.511 2.6e-4,-2.2894 7.1e-4,-6.2768 7.1e-4,-6.2768 10e-4,-9.1659 0.006,-48.3237 -0.002,-96.64744 -0.0208,-144.97118 -0.005,-12.17708 -0.009,-24.35415 -0.0138,-36.53122 -2.7e-4,-0.74984 -5.4e-4,-1.49968 -8.2e-4,-2.27224 -0.008,-23.11794 -0.0131,-46.23588 -0.0139,-69.35383 -3e-5,-0.72601 -6e-5,-1.45202 -8e-5,-2.20004 -5.4e-4,-15.93916 -1.7e-4,-31.87833 0.001,-47.81749 4.2e-4,-5.70352 7.9e-4,-11.40704 10e-4,-17.11056 8e-5,-1.41882 1.7e-4,-2.83765 2.6e-4,-4.25647 10e-4,-22.58544 -0.006,-45.17087 -0.017,-67.75631 -0.0117,-23.38532 -0.0122,-46.77061 -1.6e-4,-70.15593 0.007,-13.47568 0.005,-26.95129 -0.009,-40.42697 -0.008,-9.00619 -0.006,-18.01234 0.006,-27.01853 0.006,-5.12809 0.008,-10.25607 -0.004,-15.38416 -0.0106,-4.67521 -0.007,-9.3502 0.007,-14.02541 0.003,-1.67104 5.1e-4,-3.3421 -0.008,-5.01312 -0.16163,-36.19471 11.2968,-66.69985 35.38641,-93.74144 0.59426,-0.66774 1.18852,-1.33547 1.80078,-2.02344 25.17151,-26.61305 61.42818,-36.35594 96.90733,-36.25394 z"
     fill="#2e3440"
     id="path2" />
  <path
     d="m 500,500 c 330,0 660,0 1000,0 0,243.21 0,486.42 0,737 -2.3502,-2.3502 -3.9563,-4.2553 -5.7522,-6.9739 -0.5281,-0.7954 -1.0561,-1.5909 -1.6002,-2.4104 -0.5656,-0.8593 -1.1313,-1.7186 -1.714,-2.604 -0.8903,-1.3422 -0.8903,-1.3422 -1.7986,-2.7114 -1.9025,-2.8688 -3.8004,-5.7405 -5.6975,-8.6128 -10.7289,-16.2316 -21.6637,-32.1914 -33.4375,-47.6875 -1.1872,-1.5739 -1.1872,-1.5739 -2.3984,-3.1797 -7.5747,-9.9914 -15.6207,-19.5723 -23.9532,-28.9414 -1.1443,-1.3044 -2.2626,-2.6319 -3.3593,-3.9766 -13.6993,-16.387 -34.0259,-28.7157 -55.2891,-31.9023 -3.8386,-0.2629 -7.6537,-0.2803 -11.5,-0.25 -0.981,-0.01 -1.9619,-0.015 -2.9727,-0.023 -25.6749,0.068 -47.2367,14.8862 -64.8151,32.4102 -1.9862,2.011 -3.9549,4.0379 -5.9231,6.0664 -3.1195,3.1856 -6.3883,6.1256 -9.7666,9.0327 -3.4969,3.0503 -6.8444,6.2581 -10.21,9.4516 -5.121,4.84 -10.2515,9.6673 -15.4375,14.4375 -4.6437,4.2719 -9.2656,8.5661 -13.875,12.875 -10.7723,10.0666 -21.6244,20.0454 -32.5,30 -4.1453,-1.5485 -5.9744,-4.2536 -8.5625,-7.75 -0.8899,-1.1867 -1.7805,-2.3729 -2.6719,-3.5585 -0.4569,-0.6122 -0.9139,-1.2243 -1.3847,-1.855 -2.1914,-2.9143 -4.4387,-5.7835 -6.6934,-8.649 -0.4512,-0.5745 -0.9023,-1.149 -1.3672,-1.7409 -3.5795,-4.5426 -7.2251,-9.0294 -10.8828,-13.5091 -4.7648,-5.8368 -9.412,-11.7459 -13.9844,-17.7343 -6.853,-8.9718 -13.9081,-17.7874 -20.9699,-26.595 -4.7481,-5.9269 -9.4412,-11.896 -14.1243,-17.8743 -2.2834,-2.9135 -4.5713,-5.8235 -6.8589,-8.7339 -2.7405,-3.4865 -5.4801,-6.9737 -8.2148,-10.4648 -4.7313,-6.0365 -9.4874,-12.0514 -14.2852,-18.0352 -5.2564,-6.5556 -10.4594,-13.1514 -15.6411,-19.7661 -2.2834,-2.9136 -4.5713,-5.8236 -6.8589,-8.7339 -2.7405,-3.4866 -5.4801,-6.9738 -8.2148,-10.4648 -4.7313,-6.0365 -9.4874,-12.0514 -14.2852,-18.0352 -6.6221,-8.259 -13.1599,-16.5829 -19.6758,-24.92578 C 994.298,956.44741 965.86316,929.4831 920,915 c -1.68996,-0.53367 -1.68996,-0.53367 -3.41406,-1.07813 C 888.17104,905.56937 851.46161,909.389 825,922 c -1.31998,0.57668 -2.64157,1.14967 -3.96484,1.71875 C 804.19275,931.1781 789.46718,941.47983 776,954 c -0.52288,0.48437 -1.04575,0.96873 -1.58447,1.46777 -6.85704,6.42566 -12.80181,13.30328 -18.50147,20.7627 -3.19935,4.17772 -6.55276,8.22178 -9.91406,12.26953 -4.71317,5.68996 -9.34402,11.43108 -13.88452,17.2595 -3.49997,4.4837 -7.07843,8.899 -10.67798,13.303 -3.88738,4.7592 -7.7109,9.5513 -11.4375,14.4375 -4.26208,5.5884 -8.66639,11.0463 -13.11328,16.4883 -3.51008,4.3011 -6.97098,8.6354 -10.38672,13.0117 -3.95913,5.0725 -7.99095,10.0798 -12.0625,15.0625 -3.88732,4.7592 -7.7109,9.5512 -11.4375,14.4375 -4.26208,5.5884 -8.66639,11.0463 -13.11328,16.4883 -3.9694,4.8639 -7.86465,9.7797 -11.72681,14.729 -3.45357,4.4135 -6.9848,8.7591 -10.53491,13.0952 -4.46674,5.4604 -8.80568,10.9996 -13.0625,16.625 -4.99902,6.6023 -10.17884,13.0263 -15.47022,19.396 -4.07913,4.9157 -8.0591,9.8962 -11.98388,14.9355 -3.43346,4.3989 -6.94794,8.7264 -10.4834,13.0435 -4.46681,5.4603 -8.80569,10.9996 -13.0625,16.625 -4.99902,6.6023 -10.17884,13.0263 -15.47022,19.396 -4.07913,4.9156 -8.0591,9.8962 -11.98388,14.9355 -3.43346,4.3989 -6.94793,8.7263 -10.4834,13.0435 -5.21358,6.3732 -10.26042,12.8594 -15.22412,19.429 -3.03477,4.0102 -6.09404,7.9675 -9.40088,11.7585 -0.33,0 -0.66,0 -1,0 0,-262.68 0,-525.36 0,-796 z"
     fill="#d0cabe"
     id="path3" />
  <path
     d="m 1306.1133,674.76562 c 0.9526,0.73734 1.9052,1.47469 2.8867,2.23438 0.7979,0.61359 1.5959,1.22718 2.418,1.85937 17.2768,14.31067 28.3598,36.08818 31.582,58.14063 1.7247,27.26352 -3.2078,50.21225 -20,71.99999 -0.5749,0.74766 -1.1498,1.49532 -1.7422,2.26563 -13.2887,16.14997 -35.0639,28.77581 -55.9687,31.51904 -28.6502,2.69513 -52.6647,-3.01042 -75.2891,-20.78467 -0.7464,-0.56203 -1.4927,-1.12406 -2.2617,-1.70312 C 1170.7454,806.64743 1160.109,784.27755 1157,763 c -1.8991,-30.02124 4.6932,-54.15631 24.25,-77.1875 32.3424,-34.465 87.0077,-38.79832 124.8633,-11.04688 z"
     fill="#2e3440"
     id="path4" />
  <g
     id="Folder 1"
     transform="matrix(154.51273,0,0,154.51273,-844.77789,-494.03563)">
    <path
       id="Shape 1"
       fill-rule="evenodd"
       class="s1"
       d="M 16.8,12.8 15.6,14.2 7,6.3 8.3,5 Z"
       style="fill:#bf616a" />
  </g>
</svg>
